<?xml version="1.0" encoding="utf-8"?>
<!-- Generator: Adobe Illustrator 24.1.2, SVG Export Plug-In . SVG Version: 6.00 Build 0)  -->
<svg version="1.1" id="Layer_1" xmlns="http://www.w3.org/2000/svg" xmlns:xlink="http://www.w3.org/1999/xlink" x="0px" y="0px"
	 viewBox="0 0 591 631" style="enable-background:new 0 0 591 631;" xml:space="preserve">
<style type="text/css">
	.st0{fill:#25294A;}
	.st1{fill:#2D325A;}
	.st2{fill:#EF5451;}
	.st3{fill:#66BB6A;}
	.st4{opacity:0.5;}
	.st5{fill:#4555A5;}
	.st6{enable-background:new    ;}
	.st7{fill:#EF5853;}
	.st8{fill:#68BD6B;}
	.st9{fill:#737AAF;}
	.st10{fill:#FFFFFF;}
	.st11{fill:#FDD838;}
</style>
<g>
	<path class="st0" d="M534,287.5v-23h35V127H469V69h-71.5v-8H370v10h-6.5V0H279v71H156v37h9v7H42v19h-6v-10H0v69h37v-9h5v38h124v5.5
		H95V302h5v4h-9v92h71v160h43v73h28l14-17v-6h25v-67h108v-14h39v-48.5h-11V449h59V322.5h-15V316h94v-9h14v9h31v-28.5H534z
		 M506.5,150.5v4h-33v62h-9v15h-6v-10h-23v-5h15v-33l-10-13v-14h-8v-4h12v-2H506.5z M397.5,93.5h47v34h-32v25h11v4h-26V93.5z
		 M335.5,108h28V94.5h6.5v85h36.5v37h14v5h-42v39h12v9h-67v-42h-21v-29h24v-35h-18l-9-9v-7l9-10h37v-27h-10V108z M183.5,108h24V94.5
		h19V108h91v3.5h-38v44h-9v6h-4v-10h-48v10h-6v-20h-24v-27h-5V108z M117.5,306.5v-5h6v-41h28v15h52v-48h-18V222h12v-19.5h15v-26h5
		V208H252l14.5-14.5v-11h3v45h-22v95h-3v-18h-51v14h-28v-12H117.5z M385.5,478.5h-76v-19h-53v5h-66v-127h18v19h36v-20h3v23h52
		l9.5,9.5v71.5h76.5V478.5z M509.5,287.5h-58v-14h-25V316h7v6.5h-16v84h-66v-113h24v14h37v-38h-10v-9h57v-11h6v15h44V287.5z"/>
</g>
<g>
	<g>
		<rect x="226.5" y="94" class="st1" width="2" height="1"/>
	</g>
	<g>
		<path class="st1" d="M273.7,95H270v-1h3.8V95z M266.2,95h-3.8v-1h3.8V95z M258.7,95h-3.8v-1h3.8V95z M251.1,95h-3.8v-1h3.8V95z
			 M243.6,95h-3.8v-1h3.8V95z M236,95h-3.8v-1h3.8V95z"/>
	</g>
	<g>
		<rect x="277.5" y="94" class="st1" width="2" height="1"/>
	</g>
</g>
<g>
	<g>
		<rect x="42" y="203.9" class="st1" width="2" height="1"/>
	</g>
	<g>
		<path class="st1" d="M140.5,204.9h-4v-1h4V204.9z M132.4,204.9h-4v-1h4V204.9z M124.4,204.9h-4v-1h4V204.9z M116.4,204.9h-4v-1h4
			V204.9z M108.3,204.9h-4v-1h4V204.9z M100.3,204.9h-4v-1h4V204.9z M92.2,204.9h-4v-1h4V204.9z M84.2,204.9h-4v-1h4V204.9z
			 M76.2,204.9h-4v-1h4V204.9z M68.1,204.9h-4v-1h4V204.9z M60.1,204.9h-4v-1h4V204.9z M52,204.9h-4v-1h4V204.9z"/>
	</g>
	<g>
		<rect x="144.5" y="203.9" class="st1" width="2" height="1"/>
	</g>
</g>
<g>
	<g>
		<rect x="144.5" y="134" class="st1" width="2" height="1"/>
	</g>
	<g>
		<path class="st1" d="M140.7,135h-3.8v-1h3.8V135z M133.1,135h-3.8v-1h3.8V135z"/>
	</g>
	<g>
		<polygon class="st1" points="124,136.5 123,136.5 123,134 125.5,134 125.5,135 124,135 		"/>
	</g>
	<g>
		<path class="st1" d="M124,198.5h-1v-3.9h1V198.5z M124,190.7h-1v-3.9h1V190.7z M124,183h-1v-3.9h1V183z M124,175.2h-1v-3.9h1
			V175.2z M124,167.5h-1v-3.9h1V167.5z M124,159.7h-1v-3.9h1V159.7z M124,152h-1v-3.9h1V152z M124,144.2h-1v-3.9h1V144.2z"/>
	</g>
	<g>
		<rect x="123" y="202.4" class="st1" width="1" height="2"/>
	</g>
</g>
<g>
	<g>
		<rect x="210.5" y="188" class="st1" width="2" height="1"/>
	</g>
	<g>
		<path class="st1" d="M206.7,189h-3.8v-1h3.8V189z M199.1,189h-3.8v-1h3.8V189z"/>
	</g>
	<g>
		<polygon class="st1" points="191.5,189 189,189 189,186.5 190,186.5 190,188 191.5,188 		"/>
	</g>
	<g>
		<path class="st1" d="M190,182.4h-1v-4.1h1V182.4z M190,174.1h-1v-4.1h1V174.1z M190,165.8h-1v-4.1h1V165.8z"/>
	</g>
	<g>
		<polygon class="st1" points="190,157.5 189,157.5 189,155 191.5,155 191.5,156 190,156 		"/>
	</g>
	<g>
		<rect x="194.5" y="155" class="st1" width="3" height="1"/>
	</g>
	<g>
		<rect x="200.5" y="155" class="st1" width="2" height="1"/>
	</g>
</g>
<g>
	<g>
		<rect x="247.5" y="265.8" class="st1" width="2" height="1"/>
	</g>
	<g>
		<path class="st1" d="M267.9,266.8h-4.6v-1h4.6V266.8z M258.7,266.8h-4.6v-1h4.6V266.8z"/>
	</g>
	<g>
		<rect x="272.5" y="265.8" class="st1" width="2" height="1"/>
	</g>
</g>
<g>
	<g>
		<rect x="321.5" y="266" class="st1" width="2" height="1"/>
	</g>
	<g>
		<path class="st1" d="M317.8,267h-3.7v-1h3.7V267z M310.4,267h-3.7v-1h3.7V267z M302.9,267h-3.7v-1h3.7V267z"/>
	</g>
	<g>
		<rect x="293.5" y="266" class="st1" width="2" height="1"/>
	</g>
</g>
<g>
	<g>
		<rect x="308.5" y="317" class="st1" width="2" height="1"/>
	</g>
	<g>
		<path class="st1" d="M327.3,318h-4.2v-1h4.2V318z M318.9,318h-4.2v-1h4.2V318z"/>
	</g>
	<g>
		<polygon class="st1" points="334,318 331.5,318 331.5,317 333,317 333,315.5 334,315.5 		"/>
	</g>
	<g>
		<path class="st1" d="M334,311.5h-1v-4h1V311.5z M334,303.5h-1v-4h1V303.5z M334,295.5h-1v-4h1V295.5z M334,287.5h-1v-4h1V287.5z
			 M334,279.5h-1v-4h1V279.5z"/>
	</g>
	<g>
		<rect x="333" y="269.5" class="st1" width="1" height="2"/>
	</g>
</g>
<g>
	<g>
		<rect x="309" y="341" class="st1" width="2" height="1"/>
	</g>
	<g>
		<path class="st1" d="M327.4,342h-4.1v-1h4.1V342z M319.2,342h-4.1v-1h4.1V342z"/>
	</g>
	<g>
		<polygon class="st1" points="334,343.5 333,343.5 333,342 331.5,342 331.5,341 334,341 		"/>
	</g>
	<g>
		<path class="st1" d="M334,400.4h-1v-4.1h1V400.4z M334,392.3h-1v-4.1h1V392.3z M334,384.2h-1v-4.1h1V384.2z M334,376h-1V372h1V376
			z M334,367.9h-1v-4.1h1V367.9z M334,359.8h-1v-4.1h1V359.8z M334,351.6h-1v-4.1h1V351.6z"/>
	</g>
	<g>
		<polygon class="st1" points="334,407 331.5,407 331.5,406 333,406 333,404.5 334,404.5 		"/>
	</g>
	<g>
		<path class="st1" d="M327.4,407h-4.1v-1h4.1V407z M319.2,407h-4.1v-1h4.1V407z"/>
	</g>
	<g>
		<rect x="309" y="406" class="st1" width="2" height="1"/>
	</g>
</g>
<g>
	<g>
		<rect x="408" y="446.5" class="st1" width="1" height="2"/>
	</g>
	<g>
		<path class="st1" d="M409,443.1h-1v-3.4h1V443.1z M409,436.3h-1v-3.4h1V436.3z"/>
	</g>
	<g>
		<rect x="408" y="427.5" class="st1" width="1" height="2"/>
	</g>
</g>
<g>
	<g>
		<rect x="440" y="188.5" class="st1" width="1" height="2"/>
	</g>
	<g>
		<path class="st1" d="M441,211.1h-1v-3.4h1V211.1z M441,204.2h-1v-3.4h1V204.2z M441,197.4h-1v-3.4h1V197.4z"/>
	</g>
	<g>
		<rect x="440" y="214.5" class="st1" width="1" height="2"/>
	</g>
</g>
<g>
	<g>
		<rect x="416" y="188.5" class="st1" width="1" height="2"/>
	</g>
	<g>
		<path class="st1" d="M417,211.1h-1v-3.4h1V211.1z M417,204.2h-1v-3.4h1V204.2z M417,197.4h-1v-3.4h1V197.4z"/>
	</g>
	<g>
		<rect x="416" y="214.5" class="st1" width="1" height="2"/>
	</g>
</g>
<g>
	<g>
		<rect x="506.5" y="154" class="st1" width="2" height="1"/>
	</g>
	<g>
		<path class="st1" d="M563.1,155h-3.9v-1h3.9V155z M555.3,155h-3.9v-1h3.9V155z M547.5,155h-3.9v-1h3.9V155z M539.7,155h-3.9v-1
			h3.9V155z M531.9,155H528v-1h3.9V155z M524.1,155h-3.9v-1h3.9V155z M516.3,155h-3.9v-1h3.9V155z"/>
	</g>
	<g>
		<rect x="567" y="154" class="st1" width="2" height="1"/>
	</g>
</g>
<g>
	<rect x="37.5" y="143.5" class="st1" width="4.5" height="30"/>
</g>
<g>
	<rect x="89.5" y="115" class="st1" width="9" height="8.5"/>
</g>
<g>
	<rect x="113.5" y="193.5" class="st1" width="10" height="10.9"/>
</g>
<g>
	<rect x="76.5" y="157.5" class="st1" width="10" height="19"/>
</g>
<g>
	<rect x="137.5" y="151.5" class="st1" width="10" height="32.9"/>
</g>
<g>
	<rect x="91" y="342.5" class="st1" width="18.5" height="18"/>
</g>
<g>
	<rect x="103.9" y="227.5" class="st1" width="18.5" height="18"/>
</g>
<g>
	<rect x="362.5" y="527" class="st1" width="17.5" height="14"/>
</g>
<g>
	<circle class="st1" cx="236.5" cy="502.5" r="8"/>
</g>
<g>
	<polygon class="st1" points="194.6,543 188.4,543 184,547.4 184,553.6 188.4,558 194.6,558 199,553.6 199,547.4 	"/>
</g>
<g>
	<rect x="309" y="406.5" class="st1" width="9.5" height="11"/>
</g>
<g>
	<rect x="280" y="350.5" class="st1" width="10.5" height="9"/>
</g>
<g>
	<rect x="261" y="266.3" class="st1" width="8.5" height="10.2"/>
</g>
<g>
	<rect x="247.5" y="256.3" class="st1" width="8" height="10"/>
</g>
<g>
	<rect x="333.5" y="269.5" class="st1" width="9" height="10"/>
</g>
<g>
	<rect x="419.5" y="156.5" class="st1" width="21" height="9"/>
</g>
<g>
	<rect x="560.3" y="245.5" class="st1" width="8.8" height="19"/>
</g>
<g>
	<rect x="549.5" y="245.5" class="st1" width="10.8" height="19"/>
</g>
<g>
	<rect x="351.5" y="406.5" class="st1" width="10" height="11"/>
</g>
<g>
	<circle class="st1" cx="284.5" cy="325.5" r="5"/>
</g>
<g>
	<circle class="st1" cx="320.5" cy="58.5" r="4"/>
</g>
<g>
	<rect x="433.5" y="165.5" class="st1" width="7" height="5"/>
</g>
<g>
	<rect x="487.5" y="174.5" class="st1" width="10" height="28"/>
</g>
<g>
	<rect x="526.5" y="178.5" class="st1" width="9" height="9"/>
</g>
<g>
	<rect x="535.5" y="181.5" transform="matrix(-1 -1.224647e-16 1.224647e-16 -1 1080 372)" class="st1" width="9" height="9"/>
</g>
<g>
	
		<rect x="558.5" y="154.5" transform="matrix(-1 -1.224647e-16 1.224647e-16 -1 1127.5 319)" class="st1" width="10.5" height="10"/>
</g>
<g>
	
		<rect x="558.5" y="139.5" transform="matrix(-1 -1.224647e-16 1.224647e-16 -1 1127.5 289)" class="st1" width="10.5" height="10"/>
</g>
<g>
	
		<rect x="558.5" y="201.5" transform="matrix(-1 -1.224647e-16 1.224647e-16 -1 1127.5 413)" class="st1" width="10.5" height="10"/>
</g>
<g>
	<rect x="419.5" y="355" class="st2" width="46" height="5"/>
</g>
<g>
	<rect x="373" y="408.5" class="st2" width="5" height="30"/>
</g>
<g>
	<rect x="190" y="320.5" class="st2" width="5" height="15"/>
</g>
<g>
	<rect x="101.5" y="302" class="st2" width="13.7" height="5"/>
</g>
<g>
	<rect x="167.5" y="222" class="st3" width="16" height="5"/>
</g>
<g>
	<rect x="271.5" y="223" class="st3" width="29" height="5"/>
</g>
<g>
	<rect x="392.5" y="263" class="st3" width="8" height="5"/>
</g>
<g>
	<rect x="511.5" y="275" class="st3" width="20" height="5"/>
</g>
<g class="st4">
	<path class="st5" d="M473.5,211.5H569v-57h-95.5C473.5,154.5,473.5,211.6,473.5,211.5z"/>
</g>
<g class="st4">
	<rect x="42" y="115" class="st5" width="81.5" height="89.4"/>
</g>
<g class="st6">
	<g>
		<path class="st7" d="M218.5,573.4h2.4l4,11.4h-2.4l-0.8-2.4h-4.1l-0.8,2.4h-2.4L218.5,573.4z M218.2,580.7h3l-1-3.3
			c-0.2-0.6-0.5-1.8-0.5-1.8l0,0c0,0-0.3,1.2-0.5,1.8L218.2,580.7z"/>
	</g>
	<g>
		<path class="st7" d="M224.8,576.7h1.1v-2.6h2.1v2.6h1.4v1.4H228v4.4c0,0.6,0.3,0.8,0.8,0.8c0.3,0,0.6,0,0.6,0v1.6c0,0-0.5,0-1.4,0
			c-1.1,0-2.2-0.4-2.2-2v-4.8h-1.1v-1.4H224.8z"/>
	</g>
	<g>
		<path class="st7" d="M229.9,576.7h1.1v-2.6h2.1v2.6h1.4v1.4h-1.4v4.4c0,0.6,0.3,0.8,0.8,0.8c0.3,0,0.6,0,0.6,0v1.6
			c0,0-0.5,0-1.4,0c-1.1,0-2.2-0.4-2.2-2v-4.8h-1.1v-1.4H229.9z"/>
	</g>
	<g>
		<path class="st7" d="M240.7,584L240.7,584c-0.4,0.6-1,1.1-2.4,1.1c-1.7,0-2.9-0.9-2.9-2.5c0-1.8,1.5-2.4,3.3-2.6
			c1.4-0.2,2-0.3,2-0.9c0-0.6-0.5-1-1.4-1c-1,0-1.5,0.4-1.6,1.2h-1.9c0.1-1.4,1.1-2.7,3.5-2.7c2.5,0,3.5,1.1,3.5,3v4.2
			c0,0.6,0.1,1,0.3,1.1v0.1H241C240.8,584.7,240.8,584.3,240.7,584z M240.7,582v-1.2c-0.4,0.2-1,0.4-1.5,0.5
			c-1.1,0.3-1.7,0.5-1.7,1.3s0.5,1,1.3,1C240,583.5,240.7,582.8,240.7,582z"/>
	</g>
	<g>
		<path class="st7" d="M243.7,580.8c0-2.4,1.6-4.3,4.1-4.3c2.1,0,3.4,1.2,3.7,3h-2.1c-0.1-0.7-0.7-1.3-1.5-1.3c-1.3,0-2,1-2,2.6
			s0.6,2.6,2,2.6c0.9,0,1.5-0.5,1.6-1.4h2.1c-0.1,1.7-1.5,3.1-3.7,3.1C245.4,585.1,243.7,583.2,243.7,580.8z"/>
	</g>
	<g>
		<path class="st7" d="M255.7,581.1l-0.9,1v2.8h-2.2v-11.4h2.2v6.3l2.9-3.1h2.6l-3,3.1l3.4,5.1h-2.6L255.7,581.1z"/>
	</g>
</g>
<g class="st6">
	<g>
		<path class="st8" d="M293.3,25.7h4.5c3.1,0,5,2.5,5,5.8c0,1.9-0.6,3.5-1.8,4.5c-0.8,0.7-2,1.1-3.4,1.1h-4.3L293.3,25.7L293.3,25.7
			z M297.4,35.1c2.2,0,3-1.3,3-3.6c0-2.3-1-3.9-3-3.9h-1.9v7.5H297.4z"/>
	</g>
	<g>
		<path class="st8" d="M303.5,33c0-2.4,1.6-4.3,4-4.3c2.6,0,4,2,4,4.9h-6c0.2,1.3,0.9,2,2.1,2c0.8,0,1.3-0.4,1.6-1h2.1
			c-0.3,1.5-1.6,2.7-3.7,2.7C305,37.4,303.5,35.5,303.5,33z M305.6,32.2h3.6c-0.1-1-0.8-1.8-1.7-1.8
			C306.4,30.4,305.8,31.1,305.6,32.2z"/>
	</g>
	<g>
		<path class="st8" d="M311.9,28.9h1.1v-0.7c0-2,1.6-2.7,3.6-2.5v1.7c-1,0-1.5,0.1-1.5,0.9v0.6h1.5v1.5h-1.5v6.7h-2v-6.7H312v-1.5
			H311.9z"/>
	</g>
	<g>
		<path class="st8" d="M317.1,33c0-2.4,1.6-4.3,4-4.3c2.6,0,4,2,4,4.9h-6c0.2,1.3,0.9,2,2.1,2c0.8,0,1.3-0.4,1.6-1h2.1
			c-0.3,1.5-1.6,2.7-3.7,2.7C318.6,37.4,317.1,35.5,317.1,33z M319.2,32.2h3.6c-0.1-1-0.8-1.8-1.7-1.8
			C320,30.4,319.4,31.1,319.2,32.2z"/>
	</g>
	<g>
		<path class="st8" d="M328.3,30.1L328.3,30.1c0.6-0.9,1.4-1.3,2.5-1.3c1.7,0,2.8,1.3,2.8,3.1v5.4h-2.2v-5c0-0.9-0.5-1.5-1.4-1.5
			c-1,0-1.7,0.8-1.7,1.9v4.7h-2.2v-8.2h2.1v0.9H328.3z"/>
	</g>
	<g>
		<path class="st8" d="M334.4,34.5h2c0.1,0.9,0.8,1.4,1.8,1.4s1.5-0.4,1.5-0.9c0-0.8-1-0.9-2.2-1.1c-1.5-0.3-2.9-0.7-2.9-2.5
			s1.5-2.6,3.3-2.6c2.2,0,3.4,1.1,3.5,2.7h-2c-0.1-0.9-0.7-1.2-1.6-1.2c-0.8,0-1.4,0.3-1.4,0.9c0,0.7,1.1,0.8,2.3,1
			c1.4,0.3,2.9,0.7,2.9,2.6c0,1.6-1.4,2.6-3.5,2.6C335.9,37.4,334.6,36.2,334.4,34.5z"/>
	</g>
	<g>
		<path class="st8" d="M342.4,33c0-2.4,1.6-4.3,4-4.3c2.6,0,4,2,4,4.9h-6c0.2,1.3,0.9,2,2.1,2c0.8,0,1.3-0.4,1.6-1h2.1
			c-0.3,1.5-1.6,2.7-3.7,2.7C343.9,37.4,342.4,35.5,342.4,33z M344.6,32.2h3.6c-0.1-1-0.8-1.8-1.7-1.8
			C345.3,30.4,344.7,31.1,344.6,32.2z"/>
	</g>
</g>
<g>
	<path class="st9" d="M405.7,133.2h2.4l4,11.4h-2.4l-0.8-2.4h-4.1l-0.8,2.4h-2.4L405.7,133.2z M405.4,140.4h3l-1-3.3
		c-0.2-0.6-0.5-1.8-0.5-1.8h0c0,0-0.3,1.2-0.5,1.8L405.4,140.4z"/>
	<path class="st9" d="M415,133.2h2.4l1.5,5.7c0.2,1,0.5,2.5,0.5,2.5h0c0,0,0.3-1.4,0.5-2.4l1.2-5.7h2.2l1.2,5.7
		c0.2,1,0.5,2.4,0.5,2.4h0c0,0,0.3-1.5,0.6-2.5l1.4-5.7h2.3l-3.3,11.4h-2.2l-1.4-6.1c-0.2-0.8-0.4-2-0.4-2h0c0,0-0.2,1.2-0.4,2
		l-1.4,6.1h-2.1L415,133.2z"/>
	<path class="st9" d="M430.3,133.2h2.2v2h-2.2V133.2z M430.3,136.4h2.2v8.2h-2.2V136.4z"/>
	<path class="st9" d="M436,137.5L436,137.5c0.6-0.9,1.4-1.3,2.5-1.3c1.7,0,2.8,1.3,2.8,3.1v5.4h-2.2v-5c0-0.9-0.5-1.5-1.4-1.5
		c-1,0-1.7,0.8-1.7,1.9v4.7h-2.2v-8.2h2.1V137.5z"/>
	<path class="st9" d="M442.2,140.5c0-2.6,1.5-4.3,3.5-4.3c1.2,0,1.9,0.5,2.3,1.2h0v-4.2h2.2v11.4h-2.1v-1.1h0
		c-0.5,0.8-1.3,1.3-2.4,1.3C443.6,144.9,442.2,143.2,442.2,140.5z M448.1,140.6c0-1.6-0.5-2.6-1.9-2.6c-1.2,0-1.8,1.1-1.8,2.6
		c0,1.6,0.6,2.5,1.7,2.5C447.5,143.1,448.1,142.1,448.1,140.6z"/>
	<path class="st9" d="M451.3,140.5c0-2.4,1.7-4.3,4.3-4.3s4.3,1.9,4.3,4.3s-1.7,4.3-4.3,4.3S451.3,143,451.3,140.5z M457.7,140.5
		c0-1.6-0.8-2.7-2.1-2.7c-1.3,0-2.1,1.1-2.1,2.7s0.7,2.7,2.1,2.7C456.9,143.2,457.7,142.1,457.7,140.5z"/>
	<path class="st9" d="M460,136.4h2.2l1,3.8c0.2,0.7,0.4,1.5,0.4,1.5h0c0,0,0.2-0.9,0.4-1.6l1-3.8h1.9l1.1,3.8
		c0.2,0.7,0.4,1.6,0.4,1.6h0c0,0,0.2-0.9,0.4-1.5l1-3.8h2.1l-2.4,8.2h-2l-1.1-4c-0.2-0.7-0.4-1.4-0.4-1.4h0c0,0-0.2,0.8-0.4,1.4
		l-1.1,4h-2L460,136.4z"/>
</g>
<g>
	<path class="st9" d="M505.5,133.2h5.3c2.2,0,3.7,1.3,3.7,3.2c0,1.3-0.6,2.4-2.1,2.8v0c1.1,0.3,1.6,0.9,1.7,2.3
		c0.2,1.6,0.1,2.8,0.5,3v0.1h-2.2c-0.3-0.1-0.3-1.4-0.4-2.6c-0.1-1.2-0.8-2-2.2-2h-1.9v4.6h-2.3V133.2z M507.9,138.3h2.5
		c1.3,0,1.9-0.7,1.9-1.6c0-0.9-0.6-1.6-1.8-1.6h-2.5V138.3z"/>
	<path class="st9" d="M520.7,143.7L520.7,143.7c-0.4,0.6-1,1.1-2.4,1.1c-1.7,0-2.9-0.9-2.9-2.5c0-1.8,1.5-2.4,3.3-2.6
		c1.4-0.2,2-0.3,2-0.9c0-0.6-0.5-1-1.4-1c-1,0-1.5,0.4-1.6,1.2h-1.9c0.1-1.4,1.1-2.7,3.5-2.7c2.5,0,3.5,1.1,3.5,3v4.2
		c0,0.6,0.1,1,0.3,1.1v0.1H521C520.8,144.5,520.7,144.1,520.7,143.7z M520.7,141.7v-1.2c-0.4,0.2-1,0.4-1.5,0.5
		c-1.1,0.3-1.7,0.5-1.7,1.3c0,0.8,0.5,1,1.3,1C520,143.3,520.7,142.5,520.7,141.7z"/>
	<path class="st9" d="M523.7,136.4h1.1v-0.7c0-2,1.6-2.7,3.6-2.5v1.7c-1,0-1.5,0.1-1.5,0.9v0.6h1.5v1.5H527v6.7h-2.2v-6.7h-1.1
		V136.4z"/>
	<path class="st9" d="M528.9,136.4h1.1v-2.6h2.1v2.6h1.4v1.4h-1.4v4.4c0,0.6,0.3,0.8,0.8,0.8c0.3,0,0.6,0,0.6,0v1.6c0,0-0.5,0-1.4,0
		c-1.1,0-2.2-0.4-2.2-2v-4.8h-1.1V136.4z"/>
	<path class="st9" d="M534.2,140.5c0-2.4,1.6-4.3,4-4.3c2.6,0,4,2,4,4.9h-6c0.2,1.3,0.9,2,2.1,2c0.8,0,1.3-0.4,1.6-1h2.1
		c-0.3,1.5-1.6,2.7-3.7,2.7C535.7,144.9,534.2,143,534.2,140.5z M536.3,139.6h3.6c-0.1-1-0.8-1.8-1.7-1.8
		C537.1,137.9,536.5,138.6,536.3,139.6z"/>
	<path class="st9" d="M545.4,137.7L545.4,137.7c0.5-0.9,1.1-1.4,2.1-1.4c0.2,0,0.4,0,0.5,0.1v1.9h0c-1.4-0.1-2.4,0.6-2.4,2.3v4h-2.2
		v-8.2h2.1V137.7z"/>
	<path class="st9" d="M548.4,142h2c0.1,0.9,0.8,1.4,1.8,1.4c1,0,1.5-0.4,1.5-0.9c0-0.8-1-0.9-2.2-1.1c-1.5-0.3-2.9-0.7-2.9-2.5
		c0-1.8,1.5-2.6,3.3-2.6c2.2,0,3.4,1.1,3.5,2.7h-2c-0.1-0.9-0.7-1.2-1.6-1.2c-0.8,0-1.4,0.3-1.4,0.9c0,0.7,1.1,0.8,2.3,1
		c1.4,0.3,2.9,0.7,2.9,2.6c0,1.6-1.4,2.6-3.5,2.6C549.8,144.9,548.5,143.7,548.4,142z"/>
</g>
<g>
	<path class="st9" d="M550.7,292.2h2.4l1.5,5.7c0.2,1,0.5,2.5,0.5,2.5h0c0,0,0.3-1.4,0.5-2.4l1.2-5.7h2.2l1.2,5.7
		c0.2,1,0.5,2.4,0.5,2.4h0c0,0,0.3-1.5,0.6-2.5l1.4-5.7h2.3l-3.3,11.4h-2.2l-1.4-6.1c-0.2-0.8-0.4-2-0.4-2h0c0,0-0.2,1.2-0.4,2
		l-1.4,6.1h-2.1L550.7,292.2z"/>
	<path class="st9" d="M566,292.2h2.2v2H566V292.2z M566,295.4h2.2v8.2H566V295.4z"/>
	<path class="st9" d="M571.7,296.5L571.7,296.5c0.6-0.9,1.4-1.3,2.5-1.3c1.7,0,2.8,1.3,2.8,3.1v5.4h-2.2v-5c0-0.9-0.5-1.5-1.4-1.5
		c-1,0-1.7,0.8-1.7,1.9v4.7h-2.2v-8.2h2.1V296.5z"/>
	<path class="st9" d="M578,299.5c0-2.4,1.6-4.3,4-4.3c2.6,0,4,2,4,4.9h-6c0.2,1.3,0.9,2,2.1,2c0.8,0,1.3-0.4,1.6-1h2.1
		c-0.3,1.5-1.6,2.7-3.7,2.7C579.5,303.9,578,302,578,299.5z M580.2,298.6h3.6c-0.1-1-0.8-1.8-1.7-1.8
		C580.9,296.9,580.4,297.6,580.2,298.6z"/>
</g>
<g>
	<path class="st9" d="M460.7,295.2h2.4l4,11.4h-2.4l-0.8-2.4h-4.1l-0.8,2.4h-2.4L460.7,295.2z M460.4,302.4h3l-1-3.3
		c-0.2-0.6-0.5-1.8-0.5-1.8h0c0,0-0.3,1.2-0.5,1.8L460.4,302.4z"/>
	<path class="st9" d="M470.8,295.2h3.3l1.6,5.7c0.4,1.4,0.7,3.1,0.7,3.1h0c0,0,0.3-1.6,0.7-3.1l1.6-5.7h3.3v11.4h-2.2v-6.6
		c0-0.9,0.1-2.4,0.1-2.4h0c0,0-0.3,1.3-0.5,2.2l-2,6.8h-2.2l-1.9-6.8c-0.2-0.8-0.5-2.2-0.5-2.2h0c0,0,0.1,1.4,0.1,2.4v6.6h-2.1
		V295.2z"/>
	<path class="st9" d="M488.5,305.7L488.5,305.7c-0.4,0.6-1,1.1-2.4,1.1c-1.7,0-2.9-0.9-2.9-2.5c0-1.8,1.5-2.4,3.3-2.6
		c1.4-0.2,2-0.3,2-0.9c0-0.6-0.5-1-1.4-1c-1,0-1.5,0.4-1.6,1.2h-1.9c0.1-1.4,1.1-2.7,3.5-2.7c2.5,0,3.5,1.1,3.5,3v4.2
		c0,0.6,0.1,1,0.3,1.1v0.1h-2.1C488.7,306.5,488.6,306.1,488.5,305.7z M488.6,303.7v-1.2c-0.4,0.2-1,0.4-1.5,0.5
		c-1.1,0.3-1.7,0.5-1.7,1.3c0,0.8,0.5,1,1.3,1C487.9,305.3,488.6,304.5,488.6,303.7z"/>
	<path class="st9" d="M492,295.2h2.2v2H492V295.2z M492,298.4h2.2v8.2H492V298.4z"/>
	<path class="st9" d="M497.7,299.5L497.7,299.5c0.6-0.9,1.4-1.3,2.5-1.3c1.7,0,2.8,1.3,2.8,3.1v5.4h-2.2v-5c0-0.9-0.5-1.5-1.4-1.5
		c-1,0-1.7,0.8-1.7,1.9v4.7h-2.2v-8.2h2.1V299.5z"/>
</g>
<g>
	<path class="st9" d="M418.7,377.2h2.4l4,11.4h-2.4l-0.8-2.4h-4.1l-0.8,2.4h-2.4L418.7,377.2z M418.4,384.4h3l-1-3.3
		c-0.2-0.6-0.5-1.8-0.5-1.8h0c0,0-0.3,1.2-0.5,1.8L418.4,384.4z"/>
	<path class="st9" d="M428.8,377.2h2.3v9.5h5.4v1.9h-7.7V377.2z"/>
	<path class="st9" d="M437,384.5c0-2.4,1.7-4.3,4.3-4.3s4.3,1.9,4.3,4.3s-1.7,4.3-4.3,4.3S437,387,437,384.5z M443.4,384.5
		c0-1.6-0.8-2.7-2.1-2.7c-1.3,0-2.1,1.1-2.1,2.7s0.7,2.7,2.1,2.7C442.6,387.2,443.4,386.1,443.4,384.5z"/>
	<path class="st9" d="M448.7,387.6L448.7,387.6l0,1h-2.1v-11.4h2.2v4.2h0c0.4-0.7,1.2-1.2,2.3-1.2c2.1,0,3.5,1.8,3.5,4.3
		c0,2.7-1.4,4.3-3.5,4.3C450,388.9,449.2,388.4,448.7,387.6z M452.4,384.5c0-1.5-0.6-2.6-1.8-2.6c-1.4,0-1.9,1.1-1.9,2.6
		c0,1.5,0.8,2.5,2,2.5C451.8,387.1,452.4,386.1,452.4,384.5z"/>
	<path class="st9" d="M457.8,387.6L457.8,387.6l0,1h-2.1v-11.4h2.2v4.2h0c0.4-0.7,1.2-1.2,2.3-1.2c2.1,0,3.5,1.8,3.5,4.3
		c0,2.7-1.4,4.3-3.5,4.3C459.1,388.9,458.2,388.4,457.8,387.6z M461.5,384.5c0-1.5-0.6-2.6-1.8-2.6c-1.4,0-1.9,1.1-1.9,2.6
		c0,1.5,0.8,2.5,2,2.5C460.8,387.1,461.5,386.1,461.5,384.5z"/>
	<path class="st9" d="M464.6,389.6h0.8c0.9,0,1.2-0.4,1.2-1.1c0-0.4-0.2-1-0.6-2.2l-2.2-5.8h2.3l1.2,3.7c0.3,0.8,0.5,1.8,0.5,1.8h0
		c0,0,0.2-1,0.5-1.8l1.2-3.7h2.2l-2.9,8.4c-0.6,1.8-1.2,2.5-2.9,2.5h-1.3V389.6z"/>
</g>
<g>
	<path class="st9" d="M314.5,417.2h3.3l1.6,5.7c0.4,1.4,0.7,3.1,0.7,3.1h0c0,0,0.3-1.6,0.7-3.1l1.6-5.7h3.3v11.4h-2.2v-6.6
		c0-0.9,0.1-2.4,0.1-2.4h0c0,0-0.3,1.3-0.5,2.2l-2,6.8H319l-1.9-6.8c-0.2-0.8-0.5-2.2-0.5-2.2h0c0,0,0.1,1.4,0.1,2.4v6.6h-2.1V417.2
		z"/>
	<path class="st9" d="M327.4,417.2h2.2v2h-2.2V417.2z M327.4,420.4h2.2v8.2h-2.2V420.4z"/>
	<path class="st9" d="M330.6,424.5c0-2.6,1.5-4.3,3.5-4.3c1.2,0,1.9,0.5,2.3,1.2h0v-4.2h2.2v11.4h-2.1v-1.1h0
		c-0.5,0.8-1.3,1.3-2.4,1.3C332,428.9,330.6,427.2,330.6,424.5z M336.5,424.6c0-1.6-0.5-2.6-1.9-2.6c-1.2,0-1.8,1.1-1.8,2.6
		c0,1.6,0.6,2.5,1.7,2.5C335.8,427.1,336.5,426.1,336.5,424.6z"/>
	<path class="st9" d="M342.3,417.2h9.2v2h-3.4v9.5h-2.3v-9.5h-3.4V417.2z"/>
	<path class="st9" d="M350.3,424.5c0-2.4,1.7-4.3,4.3-4.3s4.3,1.9,4.3,4.3s-1.7,4.3-4.3,4.3S350.3,427,350.3,424.5z M356.6,424.5
		c0-1.6-0.8-2.7-2.1-2.7c-1.3,0-2.1,1.1-2.1,2.7s0.7,2.7,2.1,2.7C355.9,427.2,356.6,426.1,356.6,424.5z"/>
	<path class="st9" d="M359.8,420.4h2.1v1h0c0.5-0.7,1.3-1.2,2.4-1.2c2.2,0,3.6,1.8,3.6,4.3c0,2.7-1.4,4.3-3.6,4.3
		c-1.2,0-1.9-0.5-2.4-1.2h0v3.6h-2.2V420.4z M365.8,424.6c0-1.6-0.5-2.6-1.9-2.6c-1.4,0-1.9,1.2-1.9,2.6c0,1.5,0.7,2.5,2,2.5
		C365.1,427.1,365.8,426.2,365.8,424.6z"/>
</g>
<g>
	<path class="st9" d="M301.1,329c0-3.4,2.1-6,5.5-6c2.8,0,4.5,1.7,4.7,3.9H309c-0.2-1.2-1.1-1.9-2.4-1.9c-2.1,0-3.1,1.8-3.1,4
		c0,2.3,1.2,4,3.1,4c1.4,0,2.3-0.8,2.5-2h2.3c-0.1,1-0.5,2-1.3,2.7c-0.8,0.7-1.9,1.2-3.5,1.2C303.3,334.9,301.1,332.4,301.1,329z"/>
	<path class="st9" d="M317.2,333.7L317.2,333.7c-0.4,0.6-1,1.1-2.4,1.1c-1.7,0-2.9-0.9-2.9-2.5c0-1.8,1.5-2.4,3.3-2.6
		c1.4-0.2,2-0.3,2-0.9c0-0.6-0.5-1-1.4-1c-1,0-1.5,0.4-1.6,1.2h-1.9c0.1-1.4,1.1-2.7,3.5-2.7c2.5,0,3.5,1.1,3.5,3v4.2
		c0,0.6,0.1,1,0.3,1.1v0.1h-2.1C317.4,334.5,317.3,334.1,317.2,333.7z M317.2,331.7v-1.2c-0.4,0.2-1,0.4-1.5,0.5
		c-1.1,0.3-1.7,0.5-1.7,1.3c0,0.8,0.5,1,1.3,1C316.6,333.3,317.2,332.5,317.2,331.7z"/>
	<path class="st9" d="M320,326.4h1.1v-2.6h2.1v2.6h1.4v1.4h-1.4v4.4c0,0.6,0.3,0.8,0.8,0.8c0.3,0,0.6,0,0.6,0v1.6c0,0-0.5,0-1.4,0
		c-1.1,0-2.2-0.4-2.2-2v-4.8H320V326.4z"/>
	<path class="st9" d="M325.4,326.4h2.2l1,3.8c0.2,0.7,0.4,1.5,0.4,1.5h0c0,0,0.2-0.9,0.4-1.6l1-3.8h1.9l1.1,3.8
		c0.2,0.7,0.4,1.6,0.4,1.6h0c0,0,0.2-0.9,0.4-1.5l1-3.8h2.1l-2.4,8.2h-2l-1.1-4c-0.2-0.7-0.4-1.4-0.4-1.4h0c0,0-0.2,0.8-0.4,1.4
		l-1.1,4h-2L325.4,326.4z"/>
	<path class="st9" d="M342.7,333.7L342.7,333.7c-0.4,0.6-1,1.1-2.4,1.1c-1.7,0-2.9-0.9-2.9-2.5c0-1.8,1.5-2.4,3.3-2.6
		c1.4-0.2,2-0.3,2-0.9c0-0.6-0.5-1-1.4-1c-1,0-1.5,0.4-1.6,1.2h-1.9c0.1-1.4,1.1-2.7,3.5-2.7c2.5,0,3.5,1.1,3.5,3v4.2
		c0,0.6,0.1,1,0.3,1.1v0.1h-2.1C342.8,334.5,342.7,334.1,342.7,333.7z M342.7,331.7v-1.2c-0.4,0.2-1,0.4-1.5,0.5
		c-1.1,0.3-1.7,0.5-1.7,1.3c0,0.8,0.5,1,1.3,1C342,333.3,342.7,332.5,342.7,331.7z"/>
	<path class="st9" d="M346.1,323.2h2.2v11.4h-2.2V323.2z"/>
	<path class="st9" d="M352.8,330.9l-0.9,1v2.8h-2.2v-11.4h2.2v6.3l2.9-3.1h2.6l-3,3.1l3.4,5.1h-2.6L352.8,330.9z"/>
</g>
<g>
	<path class="st9" d="M362.1,282c0-3.4,2.1-6,5.5-6c2.8,0,4.5,1.7,4.7,3.9H370c-0.2-1.2-1.1-1.9-2.4-1.9c-2.1,0-3.1,1.8-3.1,4
		c0,2.3,1.2,4,3.1,4c1.4,0,2.3-0.8,2.5-2h2.3c-0.1,1-0.5,2-1.3,2.7c-0.8,0.7-1.9,1.2-3.5,1.2C364.3,287.9,362.1,285.4,362.1,282z"/>
	<path class="st9" d="M378.5,287.6v-1h0c-0.6,0.8-1.2,1.2-2.4,1.2c-1.8,0-2.8-1.2-2.8-3v-5.5h2.2v5.1c0,1,0.4,1.5,1.4,1.5
		c1,0,1.6-0.8,1.6-1.9v-4.7h2.2v8.2H378.5z"/>
	<path class="st9" d="M384.1,286.6L384.1,286.6l0,1H382v-11.4h2.2v4.2h0c0.4-0.7,1.2-1.2,2.3-1.2c2.1,0,3.5,1.8,3.5,4.3
		c0,2.7-1.4,4.3-3.5,4.3C385.4,287.9,384.6,287.4,384.1,286.6z M387.8,283.5c0-1.5-0.6-2.6-1.8-2.6c-1.4,0-1.9,1.1-1.9,2.6
		c0,1.5,0.8,2.5,2,2.5C387.2,286.1,387.8,285.1,387.8,283.5z"/>
	<path class="st9" d="M393.2,286.6L393.2,286.6l0,1h-2.1v-11.4h2.2v4.2h0c0.4-0.7,1.2-1.2,2.3-1.2c2.1,0,3.5,1.8,3.5,4.3
		c0,2.7-1.4,4.3-3.5,4.3C394.5,287.9,393.7,287.4,393.2,286.6z M396.9,283.5c0-1.5-0.6-2.6-1.8-2.6c-1.4,0-1.9,1.1-1.9,2.6
		c0,1.5,0.8,2.5,2,2.5C396.3,286.1,396.9,285.1,396.9,283.5z"/>
	<path class="st9" d="M400.1,288.6h0.8c0.9,0,1.2-0.4,1.2-1.1c0-0.4-0.2-1-0.6-2.2l-2.2-5.8h2.3l1.2,3.7c0.3,0.8,0.5,1.8,0.5,1.8h0
		c0,0,0.2-1,0.5-1.8l1.2-3.7h2.2l-2.9,8.4c-0.6,1.8-1.2,2.5-2.9,2.5h-1.3V288.6z"/>
</g>
<g>
	<path class="st9" d="M254.1,296c0-3.4,2.1-6,5.5-6c2.8,0,4.5,1.7,4.7,3.9H262c-0.2-1.2-1.1-1.9-2.4-1.9c-2.1,0-3.1,1.8-3.1,4
		c0,2.3,1.2,4,3.1,4c1.4,0,2.3-0.8,2.5-2h2.3c-0.1,1-0.5,2-1.3,2.7c-0.8,0.7-1.9,1.2-3.5,1.2C256.3,301.9,254.1,299.4,254.1,296z"/>
	<path class="st9" d="M265,297.5c0-2.4,1.7-4.3,4.3-4.3s4.3,1.9,4.3,4.3s-1.7,4.3-4.3,4.3S265,300,265,297.5z M271.4,297.5
		c0-1.6-0.8-2.7-2.1-2.7c-1.3,0-2.1,1.1-2.1,2.7s0.7,2.7,2.1,2.7C270.6,300.2,271.4,299.1,271.4,297.5z"/>
	<path class="st9" d="M279.8,301.6v-1h0c-0.6,0.8-1.2,1.2-2.4,1.2c-1.8,0-2.8-1.2-2.8-3v-5.5h2.2v5.1c0,1,0.4,1.5,1.4,1.5
		c1,0,1.6-0.8,1.6-1.9v-4.7h2.2v8.2H279.8z"/>
	<path class="st9" d="M285.4,294.7L285.4,294.7c0.5-0.9,1.1-1.4,2.1-1.4c0.2,0,0.4,0,0.5,0.1v1.9h0c-1.4-0.1-2.4,0.6-2.4,2.3v4h-2.2
		v-8.2h2.1V294.7z"/>
	<path class="st9" d="M288.5,293.4h1.1v-2.6h2.1v2.6h1.4v1.4h-1.4v4.4c0,0.6,0.3,0.8,0.8,0.8c0.3,0,0.6,0,0.6,0v1.6c0,0-0.5,0-1.4,0
		c-1.1,0-2.2-0.4-2.2-2v-4.8h-1.1V293.4z"/>
	<path class="st9" d="M294.6,302.6h0.8c0.9,0,1.2-0.4,1.2-1.1c0-0.4-0.2-1-0.6-2.2l-2.2-5.8h2.3l1.2,3.7c0.3,0.8,0.5,1.8,0.5,1.8h0
		c0,0,0.2-1,0.5-1.8l1.2-3.7h2.2l-2.9,8.4c-0.6,1.8-1.2,2.5-2.9,2.5h-1.3V302.6z"/>
	<path class="st9" d="M307.1,300.7L307.1,300.7c-0.4,0.6-1,1.1-2.4,1.1c-1.7,0-2.9-0.9-2.9-2.5c0-1.8,1.5-2.4,3.3-2.6
		c1.4-0.2,2-0.3,2-0.9c0-0.6-0.5-1-1.4-1c-1,0-1.5,0.4-1.6,1.2h-1.9c0.1-1.4,1.1-2.7,3.5-2.7c2.5,0,3.5,1.1,3.5,3v4.2
		c0,0.6,0.1,1,0.3,1.1v0.1h-2.1C307.2,301.5,307.1,301.1,307.1,300.7z M307.1,298.7v-1.2c-0.4,0.2-1,0.4-1.5,0.5
		c-1.1,0.3-1.7,0.5-1.7,1.3c0,0.8,0.5,1,1.3,1C306.4,300.3,307.1,299.5,307.1,298.7z"/>
	<path class="st9" d="M312.6,294.7L312.6,294.7c0.5-0.9,1.1-1.4,2.1-1.4c0.2,0,0.4,0,0.5,0.1v1.9h0c-1.4-0.1-2.4,0.6-2.4,2.3v4h-2.2
		v-8.2h2.1V294.7z"/>
	<path class="st9" d="M315.5,297.5c0-2.6,1.5-4.3,3.5-4.3c1.2,0,1.9,0.5,2.3,1.2h0v-4.2h2.2v11.4h-2.1v-1.1h0
		c-0.5,0.8-1.3,1.3-2.4,1.3C316.9,301.9,315.5,300.2,315.5,297.5z M321.4,297.6c0-1.6-0.5-2.6-1.9-2.6c-1.2,0-1.8,1.1-1.8,2.6
		c0,1.6,0.6,2.5,1.7,2.5C320.7,300.1,321.4,299.1,321.4,297.6z"/>
</g>
<g>
	<path class="st9" d="M201.5,322.2h3.3l1.6,5.7c0.4,1.4,0.7,3.1,0.7,3.1h0c0,0,0.3-1.6,0.7-3.1l1.6-5.7h3.3v11.4h-2.2v-6.6
		c0-0.9,0.1-2.4,0.1-2.4h0c0,0-0.3,1.3-0.5,2.2l-2,6.8H206l-1.9-6.8c-0.2-0.8-0.5-2.2-0.5-2.2h0c0,0,0.1,1.4,0.1,2.4v6.6h-2.1V322.2
		z"/>
	<path class="st9" d="M214.4,322.2h2.2v2h-2.2V322.2z M214.4,325.4h2.2v8.2h-2.2V325.4z"/>
	<path class="st9" d="M217.6,329.5c0-2.6,1.5-4.3,3.5-4.3c1.2,0,1.9,0.5,2.3,1.2h0v-4.2h2.2v11.4h-2.1v-1.1h0
		c-0.5,0.8-1.3,1.3-2.4,1.3C219,333.9,217.6,332.2,217.6,329.5z M223.5,329.6c0-1.6-0.5-2.6-1.9-2.6c-1.2,0-1.8,1.1-1.8,2.6
		c0,1.6,0.6,2.5,1.7,2.5C222.8,332.1,223.5,331.1,223.5,329.6z"/>
	<path class="st9" d="M229.9,322.2h2.3v9.5h5.4v1.9h-7.7V322.2z"/>
	<path class="st9" d="M238.7,322.2h2.2v2h-2.2V322.2z M238.7,325.4h2.2v8.2h-2.2V325.4z"/>
	<path class="st9" d="M244.5,326.5L244.5,326.5c0.6-0.9,1.4-1.3,2.5-1.3c1.7,0,2.8,1.3,2.8,3.1v5.4h-2.2v-5c0-0.9-0.5-1.5-1.4-1.5
		c-1,0-1.7,0.8-1.7,1.9v4.7h-2.2v-8.2h2.1V326.5z"/>
	<path class="st9" d="M254.2,329.9l-0.9,1v2.8h-2.2v-11.4h2.2v6.3l2.9-3.1h2.6l-3,3.1l3.4,5.1h-2.6L254.2,329.9z"/>
</g>
<g>
	<path class="st9" d="M114.5,346.2h5.1c1.2,0,2.2,0.3,2.8,0.8c0.6,0.6,0.9,1.2,0.9,2.1c0,1.2-0.7,1.9-1.8,2.3v0
		c1.3,0.4,2.1,1.4,2.1,2.8c0,1.1-0.3,1.8-1,2.4c-0.7,0.6-1.7,0.9-2.9,0.9h-5.3V346.2z M119.4,350.8c1,0,1.7-0.5,1.7-1.4
		c0-0.8-0.6-1.3-1.6-1.3h-2.6v2.7H119.4z M116.9,355.7h2.7c1.1,0,1.8-0.6,1.8-1.6c0-1.1-0.8-1.6-1.9-1.6h-2.6V355.7z"/>
	<path class="st9" d="M127.7,346.2h2.3v9.5h5.4v1.9h-7.7V346.2z"/>
	<path class="st9" d="M135.9,353.5c0-2.4,1.7-4.3,4.3-4.3s4.3,1.9,4.3,4.3s-1.7,4.3-4.3,4.3S135.9,356,135.9,353.5z M142.3,353.5
		c0-1.6-0.8-2.7-2.1-2.7c-1.3,0-2.1,1.1-2.1,2.7s0.7,2.7,2.1,2.7C141.6,356.2,142.3,355.1,142.3,353.5z"/>
	<path class="st9" d="M147.7,356.6L147.7,356.6l0,1h-2.1v-11.4h2.2v4.2h0c0.4-0.7,1.2-1.2,2.3-1.2c2.1,0,3.5,1.8,3.5,4.3
		c0,2.7-1.4,4.3-3.5,4.3C148.9,357.9,148.1,357.4,147.7,356.6z M151.4,353.5c0-1.5-0.6-2.6-1.8-2.6c-1.4,0-1.9,1.1-1.9,2.6
		c0,1.5,0.8,2.5,2,2.5C150.7,356.1,151.4,355.1,151.4,353.5z"/>
	<path class="st9" d="M156.7,356.6L156.7,356.6l0,1h-2.1v-11.4h2.2v4.2h0c0.4-0.7,1.2-1.2,2.3-1.2c2.1,0,3.5,1.8,3.5,4.3
		c0,2.7-1.4,4.3-3.5,4.3C158,357.9,157.2,357.4,156.7,356.6z M160.4,353.5c0-1.5-0.6-2.6-1.8-2.6c-1.4,0-1.9,1.1-1.9,2.6
		c0,1.5,0.8,2.5,2,2.5C159.8,356.1,160.4,355.1,160.4,353.5z"/>
	<path class="st9" d="M163.6,358.6h0.8c0.9,0,1.2-0.4,1.2-1.1c0-0.4-0.2-1-0.6-2.2l-2.2-5.8h2.3l1.2,3.7c0.3,0.8,0.5,1.8,0.5,1.8h0
		c0,0,0.2-1,0.5-1.8l1.2-3.7h2.2l-2.9,8.4c-0.6,1.8-1.2,2.5-2.9,2.5h-1.3V358.6z"/>
</g>
<g>
	<path class="st9" d="M127.5,240.2h5.1c1.2,0,2.2,0.3,2.8,0.8c0.6,0.6,0.9,1.2,0.9,2.1c0,1.2-0.7,1.9-1.8,2.3v0
		c1.3,0.4,2.1,1.4,2.1,2.8c0,1.1-0.3,1.8-1,2.4c-0.7,0.6-1.7,0.9-2.9,0.9h-5.3V240.2z M132.4,244.8c1,0,1.7-0.5,1.7-1.4
		c0-0.8-0.6-1.3-1.6-1.3h-2.6v2.7H132.4z M129.9,249.7h2.7c1.1,0,1.8-0.6,1.8-1.6c0-1.1-0.8-1.6-1.9-1.6h-2.6V249.7z"/>
	<path class="st9" d="M140.7,240.2h3.3l1.6,5.7c0.4,1.4,0.7,3.1,0.7,3.1h0c0,0,0.3-1.6,0.7-3.1l1.6-5.7h3.3v11.4h-2.2v-6.6
		c0-0.9,0.1-2.4,0.1-2.4h0c0,0-0.3,1.3-0.5,2.2l-2,6.8h-2.2l-1.9-6.8c-0.2-0.8-0.5-2.2-0.5-2.2h0c0,0,0.1,1.4,0.1,2.4v6.6h-2.1
		V240.2z"/>
	<path class="st9" d="M158.5,250.7L158.5,250.7c-0.4,0.6-1,1.1-2.4,1.1c-1.7,0-2.9-0.9-2.9-2.5c0-1.8,1.5-2.4,3.3-2.6
		c1.4-0.2,2-0.3,2-0.9c0-0.6-0.5-1-1.4-1c-1,0-1.5,0.4-1.6,1.2h-1.9c0.1-1.4,1.1-2.7,3.5-2.7c2.5,0,3.5,1.1,3.5,3v4.2
		c0,0.6,0.1,1,0.3,1.1v0.1h-2.1C158.6,251.5,158.5,251.1,158.5,250.7z M158.5,248.7v-1.2c-0.4,0.2-1,0.4-1.5,0.5
		c-1.1,0.3-1.7,0.5-1.7,1.3c0,0.8,0.5,1,1.3,1C157.8,250.3,158.5,249.5,158.5,248.7z"/>
	<path class="st9" d="M161.9,240.2h2.2v2h-2.2V240.2z M161.9,243.4h2.2v8.2h-2.2V243.4z"/>
	<path class="st9" d="M167.6,244.5L167.6,244.5c0.6-0.9,1.4-1.3,2.5-1.3c1.7,0,2.8,1.3,2.8,3.1v5.4h-2.2v-5c0-0.9-0.5-1.5-1.4-1.5
		c-1,0-1.7,0.8-1.7,1.9v4.7h-2.2v-8.2h2.1V244.5z"/>
</g>
<g>
	<path class="st9" d="M4,153.7h5.1c1.2,0,2.2,0.3,2.8,0.8c0.6,0.6,0.9,1.2,0.9,2.1c0,1.2-0.7,1.9-1.8,2.3v0c1.3,0.4,2.1,1.4,2.1,2.8
		c0,1.1-0.3,1.8-1,2.4c-0.7,0.6-1.7,0.9-2.9,0.9H4V153.7z M8.9,158.3c1,0,1.7-0.5,1.7-1.4c0-0.8-0.6-1.3-1.6-1.3H6.4v2.7H8.9z
		 M6.4,163.2H9c1.1,0,1.8-0.6,1.8-1.6c0-1.1-0.8-1.6-1.9-1.6H6.4V163.2z"/>
	<path class="st9" d="M17.2,153.7h5.1c1.2,0,2.2,0.3,2.8,0.8c0.6,0.6,0.9,1.2,0.9,2.1c0,1.2-0.7,1.9-1.8,2.3v0
		c1.3,0.4,2.1,1.4,2.1,2.8c0,1.1-0.3,1.8-1,2.4c-0.7,0.6-1.7,0.9-2.9,0.9h-5.3V153.7z M22.1,158.3c1,0,1.7-0.5,1.7-1.4
		c0-0.8-0.6-1.3-1.6-1.3h-2.6v2.7H22.1z M19.6,163.2h2.7c1.1,0,1.8-0.6,1.8-1.6c0-1.1-0.8-1.6-1.9-1.6h-2.6V163.2z"/>
	<path class="st9" d="M32.5,164.2L32.5,164.2c-0.4,0.6-1,1.1-2.4,1.1c-1.7,0-2.9-0.9-2.9-2.5c0-1.8,1.5-2.4,3.3-2.6
		c1.4-0.2,2-0.3,2-0.9c0-0.6-0.5-1-1.4-1c-1,0-1.5,0.4-1.6,1.2h-1.9c0.1-1.4,1.1-2.7,3.5-2.7c2.5,0,3.5,1.1,3.5,3v4.2
		c0,0.6,0.1,1,0.3,1.1v0.1h-2.1C32.6,165,32.5,164.6,32.5,164.2z M32.5,162.2V161c-0.4,0.2-1,0.4-1.5,0.5c-1.1,0.3-1.7,0.5-1.7,1.3
		c0,0.8,0.5,1,1.3,1C31.8,163.8,32.5,163,32.5,162.2z"/>
	<path class="st9" d="M35.5,161c0-2.4,1.6-4.3,4.1-4.3c2.1,0,3.4,1.2,3.7,3h-2.1c-0.1-0.7-0.7-1.3-1.5-1.3c-1.3,0-2,1-2,2.6
		c0,1.6,0.6,2.6,2,2.6c0.9,0,1.5-0.5,1.6-1.4h2.1c-0.1,1.7-1.5,3.1-3.7,3.1C37.1,165.4,35.5,163.5,35.5,161z"/>
	<path class="st9" d="M47.5,161.4l-0.9,1v2.8h-2.2v-11.4h2.2v6.3l2.9-3.1H52l-3,3.1l3.4,5.1h-2.6L47.5,161.4z"/>
</g>
<g>
	<path class="st9" d="M219,173.7h3.3l1.6,5.7c0.4,1.4,0.7,3.1,0.7,3.1h0c0,0,0.3-1.6,0.7-3.1l1.6-5.7h3.3v11.4h-2.2v-6.6
		c0-0.9,0.1-2.4,0.1-2.4h0c0,0-0.3,1.3-0.5,2.2l-2,6.8h-2.2l-1.9-6.8c-0.2-0.8-0.5-2.2-0.5-2.2h0c0,0,0.1,1.4,0.1,2.4v6.6H219V173.7
		z"/>
	<path class="st9" d="M236.8,184.2L236.8,184.2c-0.4,0.6-1,1.1-2.4,1.1c-1.7,0-2.9-0.9-2.9-2.5c0-1.8,1.5-2.4,3.3-2.6
		c1.4-0.2,2-0.3,2-0.9c0-0.6-0.5-1-1.4-1c-1,0-1.5,0.4-1.6,1.2h-1.9c0.1-1.4,1.1-2.7,3.5-2.7c2.5,0,3.5,1.1,3.5,3v4.2
		c0,0.6,0.1,1,0.3,1.1v0.1h-2.1C236.9,185,236.9,184.6,236.8,184.2z M236.8,182.2V181c-0.4,0.2-1,0.4-1.5,0.5
		c-1.1,0.3-1.7,0.5-1.7,1.3c0,0.8,0.5,1,1.3,1C236.1,183.8,236.8,183,236.8,182.2z"/>
	<path class="st9" d="M242.3,178.2L242.3,178.2c0.5-0.9,1.1-1.4,2.1-1.4c0.2,0,0.4,0,0.5,0.1v1.9h0c-1.4-0.1-2.4,0.6-2.4,2.3v4h-2.2
		v-8.2h2.1V178.2z"/>
	<path class="st9" d="M249,181.4l-0.9,1v2.8h-2.2v-11.4h2.2v6.3l2.9-3.1h2.6l-3,3.1l3.4,5.1h-2.6L249,181.4z"/>
	<path class="st9" d="M253.6,181c0-2.4,1.6-4.3,4-4.3c2.6,0,4,2,4,4.9h-6c0.2,1.3,0.9,2,2.1,2c0.8,0,1.3-0.4,1.6-1h2.1
		c-0.3,1.5-1.6,2.7-3.7,2.7C255.2,185.4,253.6,183.5,253.6,181z M255.8,180.1h3.6c-0.1-1-0.8-1.8-1.7-1.8
		C256.6,178.4,256,179.1,255.8,180.1z"/>
	<path class="st9" d="M262.1,176.9h1.1v-2.6h2.1v2.6h1.4v1.4h-1.4v4.4c0,0.6,0.3,0.8,0.8,0.8c0.3,0,0.6,0,0.6,0v1.6c0,0-0.5,0-1.4,0
		c-1.1,0-2.2-0.4-2.2-2v-4.8h-1.1V176.9z"/>
</g>
<g>
	<path class="st9" d="M285,174.7h5c1.3,0,2.3,0.4,3,1.1c0.6,0.7,1,1.6,1,2.6c0,2.2-1.4,3.6-3.8,3.6h-2.8v4.1H285V174.7z
		 M287.4,180.1h2.4c1.2,0,1.9-0.7,1.9-1.7c0-1.1-0.7-1.7-1.8-1.7h-2.4V180.1z"/>
	<path class="st9" d="M295.1,174.7h2.2v2h-2.2V174.7z M295.1,177.9h2.2v8.2h-2.2V177.9z"/>
	<path class="st9" d="M298.4,184.5l4.2-4.8v0h-3.7v-1.7h6.3v1.7l-4.1,4.7v0h4.3v1.7h-7V184.5z"/>
	<path class="st9" d="M306.1,184.5l4.2-4.8v0h-3.7v-1.7h6.3v1.7l-4.1,4.7v0h4.3v1.7h-7V184.5z"/>
	<path class="st9" d="M319.1,185.2L319.1,185.2c-0.4,0.6-1,1.1-2.4,1.1c-1.7,0-2.9-0.9-2.9-2.5c0-1.8,1.5-2.4,3.3-2.6
		c1.4-0.2,2-0.3,2-0.9c0-0.6-0.5-1-1.4-1c-1,0-1.5,0.4-1.6,1.2h-1.9c0.1-1.4,1.1-2.7,3.5-2.7c2.5,0,3.5,1.1,3.5,3v4.2
		c0,0.6,0.1,1,0.3,1.1v0.1h-2.1C319.2,186,319.1,185.6,319.1,185.2z M319.1,183.2V182c-0.4,0.2-1,0.4-1.5,0.5
		c-1.1,0.3-1.7,0.5-1.7,1.3c0,0.8,0.5,1,1.3,1C318.4,184.8,319.1,184,319.1,183.2z"/>
</g>
<g>
	<path class="st9" d="M246,241.7h3.3l1.6,5.7c0.4,1.4,0.7,3.1,0.7,3.1h0c0,0,0.3-1.6,0.7-3.1l1.6-5.7h3.3v11.4h-2.2v-6.6
		c0-0.9,0.1-2.4,0.1-2.4h0c0,0-0.3,1.3-0.5,2.2l-2,6.8h-2.2l-1.9-6.8c-0.2-0.8-0.5-2.2-0.5-2.2h0c0,0,0.1,1.4,0.1,2.4v6.6H246V241.7
		z"/>
	<path class="st9" d="M258.9,241.7h2.2v2h-2.2V241.7z M258.9,244.9h2.2v8.2h-2.2V244.9z"/>
	<path class="st9" d="M262.1,249c0-2.6,1.5-4.3,3.5-4.3c1.2,0,1.9,0.5,2.3,1.2h0v-4.2h2.2v11.4H268v-1.1h0c-0.5,0.8-1.3,1.3-2.4,1.3
		C263.5,253.4,262.1,251.7,262.1,249z M268,249.1c0-1.6-0.5-2.6-1.9-2.6c-1.2,0-1.8,1.1-1.8,2.6c0,1.6,0.6,2.5,1.7,2.5
		C267.3,251.6,268,250.6,268,249.1z"/>
	<path class="st9" d="M274.4,241.7h5.1c1.2,0,2.2,0.3,2.8,0.8c0.6,0.6,0.9,1.2,0.9,2.1c0,1.2-0.7,1.9-1.8,2.3v0
		c1.3,0.4,2.1,1.4,2.1,2.8c0,1.1-0.3,1.8-1,2.4c-0.7,0.6-1.7,0.9-2.9,0.9h-5.3V241.7z M279.2,246.3c1,0,1.7-0.5,1.7-1.4
		c0-0.8-0.6-1.3-1.6-1.3h-2.6v2.7H279.2z M276.7,251.2h2.7c1.1,0,1.8-0.6,1.8-1.6c0-1.1-0.8-1.6-1.9-1.6h-2.6V251.2z"/>
	<path class="st9" d="M284.5,249c0-2.4,1.7-4.3,4.3-4.3s4.3,1.9,4.3,4.3s-1.7,4.3-4.3,4.3S284.5,251.5,284.5,249z M290.8,249
		c0-1.6-0.8-2.7-2.1-2.7c-1.3,0-2.1,1.1-2.1,2.7s0.7,2.7,2.1,2.7C290.1,251.7,290.8,250.6,290.8,249z"/>
	<path class="st9" d="M293.4,244.9h1.1v-2.6h2.1v2.6h1.4v1.4h-1.4v4.4c0,0.6,0.3,0.8,0.8,0.8c0.3,0,0.6,0,0.6,0v1.6c0,0-0.5,0-1.4,0
		c-1.1,0-2.2-0.4-2.2-2v-4.8h-1.1V244.9z"/>
	<path class="st9" d="M298.6,244.9h1.1v-2.6h2.1v2.6h1.4v1.4h-1.4v4.4c0,0.6,0.3,0.8,0.8,0.8c0.3,0,0.6,0,0.6,0v1.6c0,0-0.5,0-1.4,0
		c-1.1,0-2.2-0.4-2.2-2v-4.8h-1.1V244.9z"/>
	<path class="st9" d="M303.9,249c0-2.4,1.7-4.3,4.3-4.3s4.3,1.9,4.3,4.3s-1.7,4.3-4.3,4.3S303.9,251.5,303.9,249z M310.3,249
		c0-1.6-0.8-2.7-2.1-2.7c-1.3,0-2.1,1.1-2.1,2.7s0.7,2.7,2.1,2.7C309.5,251.7,310.3,250.6,310.3,249z"/>
	<path class="st9" d="M313.5,244.9h2.1v1.1h0c0.4-0.8,1.2-1.3,2.4-1.3c1,0,1.9,0.6,2.3,1.4h0c0.6-0.9,1.4-1.4,2.5-1.4
		c1.7,0,2.7,1.1,2.7,2.9v5.5h-2.2V248c0-0.9-0.5-1.4-1.3-1.4c-0.9,0-1.5,0.7-1.5,1.8v4.8h-2.2V248c0-0.9-0.5-1.4-1.3-1.4
		c-0.9,0-1.5,0.7-1.5,1.8v4.8h-2.2V244.9z"/>
</g>
<g>
	<path class="st9" d="M400.2,234.7h2.4l4,11.4h-2.4l-0.8-2.4h-4.1l-0.8,2.4h-2.4L400.2,234.7z M399.9,241.9h3l-1-3.3
		c-0.2-0.6-0.5-1.8-0.5-1.8h0c0,0-0.3,1.2-0.5,1.8L399.9,241.9z"/>
	<path class="st9" d="M410.3,234.7h2.3v9.5h5.4v1.9h-7.7V234.7z"/>
	<path class="st9" d="M419.1,234.7h2.2v2h-2.2V234.7z M419.1,237.9h2.2v8.2h-2.2V237.9z"/>
	<path class="st9" d="M424.8,239L424.8,239c0.6-0.9,1.4-1.3,2.5-1.3c1.7,0,2.8,1.3,2.8,3.1v5.4H428v-5c0-0.9-0.5-1.5-1.4-1.5
		c-1,0-1.7,0.8-1.7,1.9v4.7h-2.2v-8.2h2.1V239z"/>
	<path class="st9" d="M434.6,242.4l-0.9,1v2.8h-2.2v-11.4h2.2v6.3l2.9-3.1h2.6l-3,3.1l3.4,5.1h-2.6L434.6,242.4z"/>
</g>
<g>
	<path class="st9" d="M384.4,170.6L384.4,170.6c-0.8,1.3-1.9,1.8-3.2,1.8c-1.7,0-3.1-0.6-4-1.7c-0.9-1.1-1.5-2.5-1.5-4.3
		c0-1.9,0.7-3.6,1.9-4.7c0.9-0.8,2.1-1.3,3.7-1.3c2.9,0,4.5,1.6,4.9,3.8h-2.3c-0.3-1.1-1.1-1.9-2.6-1.9c-2.2,0-3.2,1.8-3.2,4.1
		c0,2.3,1.2,4,3.2,4c1.8,0,2.9-1.3,2.9-2.6v-0.1h-2.8v-1.8h4.8v6.1h-1.7L384.4,170.6z"/>
	<path class="st9" d="M392.5,171.2L392.5,171.2c-0.4,0.6-1,1.1-2.4,1.1c-1.7,0-2.9-0.9-2.9-2.5c0-1.8,1.5-2.4,3.3-2.6
		c1.4-0.2,2-0.3,2-0.9c0-0.6-0.5-1-1.4-1c-1,0-1.5,0.4-1.6,1.2h-1.9c0.1-1.4,1.1-2.7,3.5-2.7c2.5,0,3.5,1.1,3.5,3v4.2
		c0,0.6,0.1,1,0.3,1.1v0.1h-2.1C392.7,172,392.6,171.6,392.5,171.2z M392.5,169.2V168c-0.4,0.2-1,0.4-1.5,0.5
		c-1.1,0.3-1.7,0.5-1.7,1.3c0,0.8,0.5,1,1.3,1C391.9,170.8,392.5,170,392.5,169.2z"/>
	<path class="st9" d="M398.1,165.2L398.1,165.2c0.5-0.9,1.1-1.4,2.1-1.4c0.2,0,0.4,0,0.5,0.1v1.9h0c-1.4-0.1-2.4,0.6-2.4,2.3v4H396
		v-8.2h2.1V165.2z"/>
	<path class="st9" d="M400.9,168c0-2.6,1.5-4.3,3.5-4.3c1.2,0,1.9,0.5,2.3,1.2h0v-4.2h2.2v11.4h-2.1v-1.1h0
		c-0.5,0.8-1.3,1.3-2.4,1.3C402.4,172.4,400.9,170.7,400.9,168z M406.9,168.1c0-1.6-0.5-2.6-1.9-2.6c-1.2,0-1.8,1.1-1.8,2.6
		c0,1.6,0.6,2.5,1.7,2.5C406.2,170.6,406.9,169.6,406.9,168.1z"/>
	<path class="st9" d="M410,168c0-2.4,1.6-4.3,4-4.3c2.6,0,4,2,4,4.9h-6c0.2,1.3,0.9,2,2.1,2c0.8,0,1.3-0.4,1.6-1h2.1
		c-0.3,1.5-1.6,2.7-3.7,2.7C411.5,172.4,410,170.5,410,168z M412.2,167.1h3.6c-0.1-1-0.8-1.8-1.7-1.8
		C412.9,165.4,412.4,166.1,412.2,167.1z"/>
	<path class="st9" d="M421.2,165L421.2,165c0.6-0.9,1.4-1.3,2.5-1.3c1.7,0,2.8,1.3,2.8,3.1v5.4h-2.2v-5c0-0.9-0.5-1.5-1.4-1.5
		c-1,0-1.7,0.8-1.7,1.9v4.7h-2.2v-8.2h2.1V165z"/>
</g>
<g>
	<path class="st10" d="M64.5,155.2h5.1c1.2,0,2.2,0.3,2.8,0.8c0.6,0.6,0.9,1.2,0.9,2.1c0,1.2-0.7,1.9-1.8,2.3v0
		c1.3,0.4,2.1,1.4,2.1,2.8c0,1.1-0.3,1.8-1,2.4c-0.7,0.6-1.7,0.9-2.9,0.9h-5.3V155.2z M69.4,159.8c1,0,1.7-0.5,1.7-1.4
		c0-0.8-0.6-1.3-1.6-1.3h-2.6v2.7H69.4z M66.9,164.7h2.7c1.1,0,1.8-0.6,1.8-1.6c0-1.1-0.8-1.6-1.9-1.6h-2.6V164.7z"/>
	<path class="st10" d="M77.2,163.1h2.3c0.2,1.4,0.9,1.9,2.6,1.9c1.2,0,2.2-0.4,2.2-1.5c0-1.1-1.1-1.3-2.8-1.7c-2-0.5-3.9-1-3.9-3.4
		c0-2.3,1.8-3.4,4.4-3.4c2.6,0,4.2,1.3,4.4,3.6h-2.2c-0.1-1.2-1-1.7-2.2-1.7c-1.2,0-2.1,0.5-2.1,1.3c0,0.9,0.8,1.2,2.5,1.6
		c2.4,0.5,4.3,1.1,4.3,3.5c0,2.3-1.9,3.6-4.4,3.6C79.1,166.9,77.3,165.5,77.2,163.1z"/>
	<path class="st10" d="M87.8,155.2H90v2h-2.2V155.2z M87.8,158.4H90v8.2h-2.2V158.4z"/>
	<path class="st10" d="M90.9,158.4h1.1v-2.6h2.1v2.6h1.4v1.4h-1.4v4.4c0,0.6,0.3,0.8,0.8,0.8c0.3,0,0.6,0,0.6,0v1.6c0,0-0.5,0-1.4,0
		c-1.1,0-2.2-0.4-2.2-2v-4.8h-1.1V158.4z"/>
	<path class="st10" d="M96.2,162.5c0-2.4,1.6-4.3,4-4.3c2.6,0,4,2,4,4.9h-6c0.2,1.3,0.9,2,2.1,2c0.8,0,1.3-0.4,1.6-1h2.1
		c-0.3,1.5-1.6,2.7-3.7,2.7C97.8,166.9,96.2,165,96.2,162.5z M98.4,161.6h3.6c-0.1-1-0.8-1.8-1.7-1.8
		C99.2,159.9,98.6,160.6,98.4,161.6z"/>
</g>
<g>
	<path class="st10" d="M504.7,177.2h2.4l4,11.4h-2.4l-0.8-2.4h-4.1l-0.8,2.4h-2.4L504.7,177.2z M504.4,184.4h3l-1-3.3
		c-0.2-0.6-0.5-1.8-0.5-1.8h0c0,0-0.3,1.2-0.5,1.8L504.4,184.4z"/>
	<path class="st10" d="M514.3,185.1h2.3c0.2,1.4,0.9,1.9,2.6,1.9c1.2,0,2.2-0.4,2.2-1.5c0-1.1-1.1-1.3-2.8-1.7c-2-0.5-3.9-1-3.9-3.4
		c0-2.3,1.8-3.4,4.4-3.4c2.6,0,4.2,1.3,4.4,3.6h-2.2c-0.1-1.2-1-1.7-2.2-1.7c-1.2,0-2.1,0.5-2.1,1.3c0,0.9,0.8,1.2,2.5,1.6
		c2.4,0.5,4.3,1.1,4.3,3.5c0,2.3-1.9,3.6-4.4,3.6C516.1,188.9,514.3,187.5,514.3,185.1z"/>
	<path class="st10" d="M524.9,177.2h2.2v2h-2.2V177.2z M524.9,180.4h2.2v8.2h-2.2V180.4z"/>
	<path class="st10" d="M528,180.4h1.1v-2.6h2.1v2.6h1.4v1.4h-1.4v4.4c0,0.6,0.3,0.8,0.8,0.8c0.3,0,0.6,0,0.6,0v1.6c0,0-0.5,0-1.4,0
		c-1.1,0-2.2-0.4-2.2-2v-4.8H528V180.4z"/>
	<path class="st10" d="M533.3,184.5c0-2.4,1.6-4.3,4-4.3c2.6,0,4,2,4,4.9h-6c0.2,1.3,0.9,2,2.1,2c0.8,0,1.3-0.4,1.6-1h2.1
		c-0.3,1.5-1.6,2.7-3.7,2.7C534.8,188.9,533.3,187,533.3,184.5z M535.5,183.6h3.6c-0.1-1-0.8-1.8-1.7-1.8
		C536.2,181.9,535.7,182.6,535.5,183.6z"/>
</g>
<g>
	<g>
		<g>
			<circle class="st11" cx="113.1" cy="236.8" r="6"/>
		</g>
	</g>
</g>
<g>
	<g>
		<g>
			<circle class="st11" cx="442.1" cy="300.7" r="6"/>
		</g>
	</g>
</g>
</svg>
