<?xml version="1.0" encoding="utf-8"?>
<!-- Generator: Adobe Illustrator 24.1.2, SVG Export Plug-In . SVG Version: 6.00 Build 0)  -->
<svg version="1.1" id="Layer_1" xmlns="http://www.w3.org/2000/svg" xmlns:xlink="http://www.w3.org/1999/xlink" x="0px" y="0px"
	 viewBox="0 0 668 715" style="enable-background:new 0 0 668 715;" xml:space="preserve">
<style type="text/css">
	.st0{fill:#25294A;}
	.st1{fill:#2B3056;}
	.st2{opacity:0.5;enable-background:new    ;}
	.st3{fill:#3F51B5;}
	.st4{enable-background:new    ;}
	.st5{fill:#EF5652;}
	.st6{fill:#2D325A;}
	.st7{fill:none;}
	.st8{fill:#EF5350;}
	.st9{fill:#66BB6A;}
	.st10{fill:#67BC6B;}
	.st11{fill:#FFFFFF;}
	.st12{fill:#737AAE;}
	.st13{fill:#FDD835;}
</style>
<g id="Full">
	<path class="st0" d="M616.5,436.5h-30v11h-4v-16h16v-63h-25v-5h9v-30h18v-37H524v-2h26.5v-39h-18v-26h18v-45h-10l-16-15v-3h17v-36
		h-63v5h-5v-5h-98v-52l-11-37l-17-41h-40l-23,58l-4,18v54h-66v4h-5v-4h-122v49h-46v26h6v2h-6v39h42v37h25v4h-12v14h-4v-5h-50v13h-2
		v16h2v12h21v75h11v10h-11v33l47,48h162l10,57l10,23h2l18,20l4,10l11,13l6,3l8,10v29l7,12l19,14v3l-5,8l4,9h33l24-35l3-10v-25l19-23
		h3l62-63v-87h72v-2h4v11h30l18-18v-9L616.5,436.5z M407.5,156.5h66v-4h5v14h34v3l-16,15h-19v-14h-39l-18,18v4h-13V156.5z
		 M70.5,224.5v-17h-6v-2h41v-49h78v5h-72v63H70.5z M92.5,399.5v-81h4v4l10,10h25l10-10v-35h-14v-4h5l14-20h18v2h-9v39h9v18h-9v37h36
		v-27h31v4h-10v41h-22v22H92.5z M272.5,476.5h-14v-2h-44v2h-51v-23h-9v-35h72v4h-14v27h60V476.5z M245.5,430.5v-8h-3v-4h16v-84h3v12
		h32l15-16v-15l-15-15h-32v12h-3v-11h-36v13h-31v-49h-10v-2h10v-43h18v-32h-10v-27h-4v-5h14v-4h5v4h67l35-42h27l35,43h15v4h-8v46h35
		v8h14v5h-20v13h-14v-13h-34v59h27v10h-3v18h3v11h-19v37h19v16h-27v5h-2v-5h-47v59H245.5z M434.5,230.5v21h-54v-4h44v-17H434.5z
		 M463.5,555.5l-6,7l-1,6l-7,8h-8v6l-26,32v5l-16,18l-19,6h-4l-6-7h-3l-6-6v-5l-14-15v-8l-36-35v-5l-9-8l4-25l15,4l49,23h9l16-3h20
		l33-20h3l5,8h3l4,8V555.5z M466.5,517.5h-37l-14,10h-3l-1,1h-3l-13,9h-6l-15-4l-2-3h-6l-17-9l-5-6h-18v-49h-23v9h-13v-26h49v-37h2
		l6-6v-3h17v-15h2v15h72v68h28V517.5z M563.5,368.5h-9v36h-26v30h-69v-31h2v23h18v-55h-28v9h-31v-62l17-8h37v-31h27v15h9v2h-9v22h53
		v45h9V368.5z"/>
	<path class="st1" d="M399.8,715h-33.6l-4.2-9.5l5.1-8.1v-2.6l-18.9-14l-7.1-12.1v-29l-7.8-9.8l-6.1-3.1L316,613.7l-4-9.9L294.3,584
		h-2.1L282,560.6l-9.9-56.6H110.3L63,455.7V422h11v-9H63v-75H42v-12h-2v-17h2v-13h51v5h3v-14h12v-3H83v-37H41v-40h6v-1h-6v-27h46
		v-49h123v4h4v-4h66l0-53.6l4-18L307.2,0h40.7L365,41.3l11,37.2V130h98v5h4v-5h64v37h-17v2.3l15.7,14.7H551v46h-18v25h18v40h-26.5v1
		H601v38h-18v30h-9v4h25v64h-16v15h3v-11h30.7l18.3,17.3v9.4L616.7,481H586v-11h-3v2h-72v86.7l-0.1,0.1L448.7,622h-3L427,644.7l0,25
		l-3.1,10.1L399.8,715z M366.8,714h32.4l23.8-34.7l3-9.9v-25.1l19.3-23.3h3l61.7-62.7V471h72v-2h5v11h29.3l17.7-17.7v-8.6L616.3,437
		H587v11h-5v-17h16v-62h-25v-6h9v-30h18v-36h-76.5v-3H550v-38h-18v-27h18v-44h-9.7L524,169.7V166h17v-35h-62v5h-6v-5h-98V78.6
		l-11-36.9L347.2,1h-39.3L285,58.7l-4,17.9V131h-66v4h-6v-4H88v49H42v25h6v3h-6v38h42v37h25v5H97v14h-5v-5H43v13h-2v15h2v12h21v75
		h11v11H64v32.3l46.7,47.7h162.2l10.1,57.4l9.8,22.6h1.9l18.2,20.3l4,9.9l10.9,12.9l6.1,3.1l8.1,10.1v29l6.9,11.8l19.1,14.1v3.4
		l-4.9,7.9L366.8,714z M380.6,644h-4.3l-6-7h-3l-6.3-6.3v-5l-14-15v-8l-36-35v-5l-9-8l4.1-25.8l15.5,4.1l49,23h8.9l15.9-3l20,0
		l33-20h3.4l5,8h3l4.2,8.4v6.3l-6,7l-1,6l-7.2,8.3H442v5.7l-0.1,0.1L416,614.7v5l-16.2,18.2l-0.1,0L380.6,644z M376.7,643h3.7
		l18.8-5.9l15.8-17.8v-5l0.1-0.1l25.9-31.9V576h8.3l6.8-7.7l1-6l6-7v-5.7l-3.8-7.6h-3l-5-8h-2.6l-33,20h-20.1l-15.9,3l-9.2,0l-0.1,0
		l-49-23l-14.4-3.8l-3.9,24.2l9,8v5l36,35v8l14,15v5l5.7,5.7h3L376.7,643z M395.7,538l-6.3,0l-15.2-4l-2-2.9h-5.9l-0.1-0.1
		l-17.1-9.1l-4.9-5.8H326v-49h-22v9h-14v-27h49v-37h2.3l5.7-5.7V403h17v-15h3v15h72v68h28v47h-37.3l-14,10h-3l-1,1h-3.1L395.7,538z
		 M389.6,537h5.8l13-9h2.9l1-1h3l14-10H466v-45h-28v-68h-72v-15h-1v15h-17v2.7l-6.3,6.3H340v37h-49v25h12v-9h24v49h17.7l5.1,6.1
		l16.8,8.9h6.1l2,3.1L389.6,537z M273,477h-15v-2h-43v2h-52v-23h-9v-36h73v5h-14v26h60V477z M259,476h13v-26h-60v-28h14v-3h-71v34h9
		v23h50v-2h45V476z M529,435h-70v-32h3v23h17v-54h-27v9h-32v-62.8l17.5-8.2H474v-31h28v15h9v3h-9v21h53v45h9v6h-9v36h-26V435z
		 M460,434h68v-30h26v-36h9v-4h-9v-45h-53v-23h9v-1h-9v-15h-26v31h-37.4l-16.6,7.8V380h30v-9h29v56h-19v-23h-1V434z M318,431h-73v-8
		h-3v-5h16v-84h4v12h31.3l14.7-15.7v-14.6L293.3,301H262v12h-4v-11h-35v13h-32v-49h-10v-3h10v-43h18v-31h-10v-27h-4v-6h14v-4h6v4
		h66.3l35-42h27.5l35,43H394v5h-8v45h35v8h14v6h-20v13h-15v-13h-33v58h27v11h-3v17h3v12h-19v36h19v17h-27v5h-3v-5h-46V431z M246,430
		h71v-59h48v5h1v-5h27v-15h-19v-38h19v-10h-3v-19h3v-9h-27v-60h35v13h13v-13h20v-4h-14v-8h-35v-47h8v-3h-14.7l-35-43h-26.5l-35,42
		H214v-4h-4v4h-14v4h4v27h10v33h-18v43h-10v1h10v49h30v-13h37v11h2v-12h32.7l15.3,15.3v15.4L293.7,347H261v-12h-2v84h-16v3h3V430z
		 M191,400H92v-82h5v4.3l9.7,9.7h24.6l9.7-9.7V288h-14v-5h5.2l14-20H165v3h-9v38h9v19h-9v36h35v-27h32v5h-10v41h-22V400z M93,399h97
		v-22h22v-41h10v-3h-30v27h-37v-38h9v-17h-9v-40h9v-1h-17.2l-14,20H128v3h14v35.7L131.7,333h-25.4L96,322.7V319h-3V399z M435,252
		h-55v-5h44v-17h11V252z M381,251h53v-20h-9v17h-44V251z M112,225H70v-17h-6v-3h41v-49h79v6h-72V225z M71,224h40v-63h72v-4h-77v49
		H65v1h6V224z M421,193h-14v-37h66v-4h6v14h34v3.7L496.7,185H477v-14h-38.3L421,188.7V193z M408,192h12v-3.7l18.3-18.3H478v14h18.3
		l15.7-14.7V167h-34v-14h-4v4h-66V192z"/>
</g>
<g class="st2">
	<polygon class="st3" points="649.5,466.5 645.5,458.5 649.5,450.5 642.5,450.5 637.5,458.5 642.5,466.5 	"/>
</g>
<g class="st4">
	<path class="st5" d="M365.9,658.1h2.4l4,11.4h-2.4l-0.8-2.4H365l-0.8,2.4h-2.4L365.9,658.1z M365.6,665.4h3l-1-3.3
		c-0.2-0.6-0.5-1.8-0.5-1.8h0c0,0-0.3,1.2-0.5,1.8L365.6,665.4z"/>
	<path class="st5" d="M372.2,661.4h1.1v-2.6h2.1v2.6h1.4v1.4h-1.4v4.4c0,0.6,0.3,0.8,0.8,0.8c0.3,0,0.6,0,0.6,0v1.6c0,0-0.5,0-1.4,0
		c-1.1,0-2.2-0.4-2.2-2v-4.8h-1.1V661.4z"/>
	<path class="st5" d="M377.3,661.4h1.1v-2.6h2.1v2.6h1.4v1.4h-1.4v4.4c0,0.6,0.3,0.8,0.8,0.8c0.3,0,0.6,0,0.6,0v1.6c0,0-0.5,0-1.4,0
		c-1.1,0-2.2-0.4-2.2-2v-4.8h-1.1V661.4z"/>
	<path class="st5" d="M388.1,668.7L388.1,668.7c-0.4,0.6-1,1.1-2.4,1.1c-1.7,0-2.9-0.9-2.9-2.5c0-1.8,1.5-2.4,3.3-2.6
		c1.4-0.2,2-0.3,2-0.9c0-0.6-0.5-1-1.4-1c-1,0-1.5,0.4-1.6,1.2h-1.9c0.1-1.4,1.1-2.7,3.5-2.7c2.5,0,3.5,1.1,3.5,3v4.2
		c0,0.6,0.1,1,0.3,1.1v0.1h-2.1C388.2,669.4,388.2,669,388.1,668.7z M388.1,666.7v-1.2c-0.4,0.2-1,0.4-1.5,0.5
		c-1.1,0.3-1.7,0.5-1.7,1.3s0.5,1,1.3,1C387.4,668.2,388.1,667.5,388.1,666.7z"/>
	<path class="st5" d="M391.1,665.5c0-2.4,1.6-4.3,4.1-4.3c2.1,0,3.4,1.2,3.7,3h-2.1c-0.1-0.7-0.7-1.3-1.5-1.3c-1.3,0-2,1-2,2.6
		c0,1.6,0.6,2.6,2,2.6c0.9,0,1.5-0.5,1.6-1.4h2.1c-0.1,1.7-1.5,3.1-3.7,3.1C392.8,669.8,391.1,667.9,391.1,665.5z"/>
	<path class="st5" d="M403.1,665.8l-0.9,1v2.8H400v-11.4h2.2v6.3l2.9-3.1h2.6l-3,3.1l3.4,5.1h-2.6L403.1,665.8z"/>
</g>
<g class="st2">
	<polygon class="st3" points="386.5,290.5 379.5,290.5 376.5,298.5 379.5,306.5 386.5,306.5 	"/>
</g>
<g class="st2">
	<polygon class="st3" points="323.5,331.5 319.5,323.5 323.5,315.5 316.5,315.5 311.5,323.5 316.5,331.5 	"/>
</g>
<g class="st2">
	<polygon class="st3" points="324.5,319.5 336.5,319.5 336.5,294.5 375.5,294.5 373.5,298.5 375.5,303.5 345.5,303.5 345.5,327.5 
		324.5,327.5 	"/>
</g>
<g class="st2">
	<polygon class="st3" points="36.5,309.5 29.5,309.5 26.5,317.5 29.5,325.5 36.5,325.5 	"/>
</g>
<g class="st2">
	<polygon class="st3" points="282.8,561.2 286.4,569.5 0.5,569.5 0.5,312.5 24.5,312.5 22.5,317.5 24.5,321.5 9.3,321.5 9.3,561.2 	
		"/>
</g>
<g class="st2">
	<polygon class="st3" points="310.1,561.2 458.6,561.2 457.5,562.5 456.5,568.5 455.6,569.5 313.6,569.5 311.5,567.5 311.5,562.5 	
		"/>
</g>
<g class="st2">
	<polygon class="st3" points="667.5,453.5 667.5,569.5 499.7,569.5 507.8,561.2 658.7,561.2 658.7,462.5 650.5,462.5 650.5,453.5 	
		"/>
</g>
<g>
	<rect x="178.5" y="476.5" class="st6" width="8" height="8"/>
</g>
<g>
	<polygon class="st6" points="124.6,440.5 113.4,440.5 105.5,448.4 105.5,459.6 113.4,467.5 124.6,467.5 132.5,459.6 132.5,448.4 	
		"/>
</g>
<g>
	<circle class="st6" cx="322.5" cy="376.5" r="4"/>
</g>
<g>
	<circle class="st6" cx="328" cy="447" r="2.5"/>
</g>
<g>
	<circle class="st6" cx="440.5" cy="469.5" r="2"/>
</g>
<g>
	<rect x="473.5" y="380.5" class="st6" width="6" height="5.6"/>
</g>
<g>
	<rect x="528.5" y="404.5" class="st6" width="9" height="9"/>
</g>
<g>
	<rect x="528.5" y="413.5" class="st6" width="4" height="4"/>
</g>
<g>
	<rect x="553.5" y="431.5" class="st6" width="29" height="4"/>
</g>
<g>
	<rect x="573.5" y="435.5" class="st6" width="9" height="9"/>
</g>
<g>
	<rect x="568.5" y="435.5" class="st6" width="5" height="9"/>
</g>
<g>
	<rect x="501.5" y="480.5" class="st6" width="9" height="10"/>
</g>
<g>
	<rect x="505.5" y="490.5" class="st6" width="5" height="4"/>
</g>
<g>
	<rect x="331.5" y="440.5" class="st6" width="8" height="9"/>
</g>
<g>
	<rect x="249.5" y="341.5" class="st6" width="9" height="8"/>
</g>
<g>
	<rect x="411.5" y="318.5" class="st6" width="9" height="9"/>
</g>
<g>
	<rect x="466.5" y="279.5" class="st6" width="8" height="9"/>
</g>
<g>
	<rect x="183.5" y="256.5" class="st6" width="8" height="7"/>
</g>
<g>
	<rect x="83.5" y="246.5" class="st6" width="9" height="18"/>
</g>
<g>
	<line class="st7" x1="108.5" y1="283.5" x2="127.5" y2="283.5"/>
</g>
<g>
	<path class="st6" d="M120.9,332.9l-0.7-0.7l2.1-2.1l0.7,0.7L120.9,332.9z M125.1,328.6l-0.7-0.7l2.1-2.1l0.7,0.7L125.1,328.6z
		 M129.3,324.4l-0.7-0.7l2.1-2.1l0.7,0.7L129.3,324.4z M133.6,320.1l-0.7-0.7l2.1-2.1l0.7,0.7L133.6,320.1z M137.8,315.9l-0.7-0.7
		l2.1-2.1l0.7,0.7L137.8,315.9z"/>
</g>
<g>
	<rect x="155.5" y="348.5" class="st6" width="11" height="11"/>
</g>
<g>
	<rect x="180.5" y="289.5" class="st6" width="11" height="12"/>
</g>
<g>
	<rect x="182.5" y="291.5" class="st6" width="9" height="8"/>
</g>
<g>
	<rect x="155.5" y="350.5" class="st6" width="9" height="9"/>
</g>
<g>
	<rect x="111.5" y="216.5" class="st6" width="8" height="8"/>
</g>
<g>
	<rect x="132.5" y="196.5" class="st6" width="41" height="18"/>
</g>
<g>
	<rect x="163.5" y="187.5" class="st6" width="10" height="9"/>
</g>
<g>
	<rect x="142.5" y="214.5" class="st6" width="21" height="8"/>
</g>
<g>
	<rect x="434.5" y="236.5" class="st6" width="36" height="12"/>
</g>
<g>
	<rect x="411.5" y="251.5" class="st6" width="8" height="14"/>
</g>
<g>
	<rect x="411.5" y="265.5" class="st6" width="8" height="4"/>
</g>
<g>
	<polygon class="st6" points="492.5,247.5 501.5,247.5 501.5,238.5 509.5,238.5 509.5,229.5 492.5,229.5 	"/>
</g>
<g>
	<rect x="544.5" y="255.5" class="st6" width="6" height="16"/>
</g>
<g>
	<rect x="541.6" y="285.5" class="st6" width="8.9" height="9"/>
</g>
<g>
	<rect x="532.5" y="285.5" class="st6" width="9.1" height="9"/>
</g>
<g>
	<rect x="336.5" y="2.5" class="st6" width="8" height="8"/>
</g>
<g>
	<rect x="163.4" y="477.8" class="st8" width="5" height="24.3"/>
</g>
<g>
	<rect x="522.6" y="436.8" class="st8" width="5" height="33.3"/>
</g>
<g>
	<rect x="440.3" y="429.4" class="st8" width="17.3" height="5"/>
</g>
<g>
	<rect x="228.4" y="418.3" class="st8" width="12.3" height="5"/>
</g>
<g>
	<rect x="362.4" y="378" class="st8" width="5" height="9.2"/>
</g>
<g>
	<rect x="109.3" y="282.7" class="st9" width="17" height="5"/>
</g>
<g>
	<rect x="190.9" y="316.2" class="st9" width="5" height="15.1"/>
</g>
<g>
	<rect x="392.5" y="291.2" class="st9" width="5" height="15.1"/>
</g>
<g>
	<rect x="512.1" y="292.5" class="st9" width="10.1" height="5"/>
</g>
<g>
	<rect x="375.4" y="320.1" class="st9" width="34.5" height="5"/>
</g>
<g class="st2">
	<polygon class="st3" points="447.5,201.5 519.5,201.5 519.5,274.5 447.5,274.5 447.5,248.5 470.5,248.5 470.5,236.5 447.5,236.5 	
		"/>
</g>
<g class="st2">
	<rect x="123.5" y="174.5" class="st3" width="63" height="50"/>
</g>
<g>
	<path class="st6" d="M179.5,264h-3v-1h3V264z M173.5,264h-3v-1h3V264z M167.5,264h-3v-1h3V264z"/>
</g>
<g>
	<path class="st6" d="M540.5,185h-2v-1h2V185z M535.5,185h-3v-1h3V185z M529.5,185h-3v-1h3V185z M523.5,185h-3v-1h3V185z M517.5,185
		h-3v-1h3V185z M511.5,185h-3v-1h3V185z M505.5,185h-3v-1h3V185z M499.5,185h-3v-1h3V185z"/>
</g>
<g>
	<path class="st6" d="M478.5,381h-3v-1h3V381z M472.5,381h-3v-1h3V381z M466.5,381h-3v-1h3V381z M460.5,381h-3v-1h3V381z M454.5,381
		h-3v-1h3V381z"/>
</g>
<g>
	<path class="st6" d="M259,333.5h-1v-3h1V333.5z M259,327.5h-1v-3h1V327.5z M259,321.5h-1v-3h1V321.5z M259,315.5h-1v-3h1V315.5z"/>
</g>
<g>
	<path class="st6" d="M583,468.5h-1v-3h1V468.5z M583,462.5h-1v-3h1V462.5z M583,456.5h-1v-3h1V456.5z M583,450.5h-1v-3h1V450.5z"/>
</g>
<g class="st4">
	<path class="st10" d="M299.2,63.9h4.5c3.1,0,5,2.5,5,5.8c0,1.9-0.6,3.5-1.8,4.5c-0.8,0.7-2,1.1-3.4,1.1h-4.3V63.9z M303.3,73.3
		c2.2,0,3-1.3,3-3.6c0-2.3-1-3.9-3-3.9h-1.9v7.5H303.3z"/>
	<path class="st10" d="M309.4,71.2c0-2.4,1.6-4.3,4-4.3c2.6,0,4,2,4,4.9h-6c0.2,1.3,0.9,2,2.1,2c0.8,0,1.3-0.4,1.6-1h2.1
		c-0.3,1.5-1.6,2.7-3.7,2.7C310.9,75.6,309.4,73.7,309.4,71.2z M311.5,70.4h3.6c-0.1-1-0.8-1.8-1.7-1.8
		C312.3,68.6,311.7,69.3,311.5,70.4z"/>
	<path class="st10" d="M317.8,67.1h1.1v-0.7c0-2,1.6-2.7,3.6-2.5v1.7c-1,0-1.5,0.1-1.5,0.9v0.6h1.5v1.5h-1.5v6.7H319v-6.7h-1.1V67.1
		z"/>
	<path class="st10" d="M323,71.2c0-2.4,1.6-4.3,4-4.3c2.6,0,4,2,4,4.9h-6c0.2,1.3,0.9,2,2.1,2c0.8,0,1.3-0.4,1.6-1h2.1
		c-0.3,1.5-1.6,2.7-3.7,2.7C324.5,75.6,323,73.7,323,71.2z M325.1,70.4h3.6c-0.1-1-0.8-1.8-1.7-1.8
		C325.9,68.6,325.3,69.3,325.1,70.4z"/>
	<path class="st10" d="M334.2,68.3L334.2,68.3c0.6-0.9,1.4-1.3,2.5-1.3c1.7,0,2.8,1.3,2.8,3.1v5.4h-2.2v-5c0-0.9-0.5-1.5-1.4-1.5
		c-1,0-1.7,0.8-1.7,1.9v4.7h-2.2v-8.2h2.1V68.3z"/>
	<path class="st10" d="M340.3,72.7h2c0.1,0.9,0.8,1.4,1.8,1.4c1,0,1.5-0.4,1.5-0.9c0-0.8-1-0.9-2.2-1.1c-1.5-0.3-2.9-0.7-2.9-2.5
		c0-1.8,1.5-2.6,3.3-2.6c2.2,0,3.4,1.1,3.5,2.7h-2c-0.1-0.9-0.7-1.2-1.6-1.2c-0.8,0-1.4,0.3-1.4,0.9c0,0.7,1.1,0.8,2.3,1
		c1.4,0.3,2.9,0.7,2.9,2.6c0,1.6-1.4,2.6-3.5,2.6C341.8,75.6,340.5,74.4,340.3,72.7z"/>
	<path class="st10" d="M348.3,71.2c0-2.4,1.6-4.3,4-4.3c2.6,0,4,2,4,4.9h-6c0.2,1.3,0.9,2,2.1,2c0.8,0,1.3-0.4,1.6-1h2.1
		c-0.3,1.5-1.6,2.7-3.7,2.7C349.8,75.6,348.3,73.7,348.3,71.2z M350.5,70.4h3.6c-0.1-1-0.8-1.8-1.7-1.8
		C351.2,68.6,350.6,69.3,350.5,70.4z"/>
</g>
<g class="st4">
	<path class="st11" d="M465.5,211.1h2.4l4,11.4h-2.4l-0.8-2.4h-4.1l-0.8,2.4h-2.4L465.5,211.1z M465.2,218.3h3l-1-3.3
		c-0.2-0.6-0.5-1.8-0.5-1.8h0c0,0-0.3,1.2-0.5,1.8L465.2,218.3z"/>
	<path class="st11" d="M475.1,219h2.3c0.2,1.4,0.9,1.9,2.6,1.9c1.2,0,2.2-0.4,2.2-1.5c0-1.1-1.1-1.3-2.8-1.7c-2-0.5-3.9-1-3.9-3.4
		c0-2.3,1.8-3.4,4.4-3.4c2.6,0,4.2,1.3,4.4,3.6H482c-0.1-1.2-1-1.7-2.2-1.7c-1.2,0-2.1,0.5-2.1,1.3c0,0.9,0.8,1.2,2.5,1.6
		c2.4,0.5,4.3,1.1,4.3,3.5c0,2.3-1.9,3.6-4.5,3.6C476.9,222.8,475.2,221.4,475.1,219z"/>
	<path class="st11" d="M485.7,211.1h2.2v2h-2.2V211.1z M485.7,214.3h2.2v8.2h-2.2V214.3z"/>
	<path class="st11" d="M488.8,214.3h1.1v-2.6h2.1v2.6h1.4v1.4h-1.4v4.4c0,0.6,0.3,0.8,0.8,0.8c0.3,0,0.6,0,0.6,0v1.6
		c0,0-0.5,0-1.4,0c-1.1,0-2.2-0.4-2.2-2v-4.8h-1.1V214.3z"/>
	<path class="st11" d="M494.1,218.4c0-2.4,1.6-4.3,4-4.3c2.6,0,4,2,4,4.9h-6c0.2,1.3,0.9,2,2.1,2c0.8,0,1.3-0.4,1.6-1h2.1
		c-0.3,1.5-1.6,2.7-3.7,2.7C495.7,222.7,494.1,220.8,494.1,218.4z M496.3,217.5h3.6c-0.1-1-0.8-1.8-1.7-1.8
		C497.1,215.7,496.5,216.4,496.3,217.5z"/>
</g>
<g class="st4">
	<path class="st12" d="M479.5,142.1h2.4l4,11.4h-2.4l-0.8-2.4h-4.1l-0.8,2.4h-2.4L479.5,142.1z M479.2,149.3h3l-1-3.3
		c-0.2-0.6-0.5-1.8-0.5-1.8h0c0,0-0.3,1.2-0.5,1.8L479.2,149.3z"/>
	<path class="st12" d="M488.8,142.1h2.4l1.5,5.7c0.2,1,0.5,2.5,0.5,2.5h0c0,0,0.3-1.4,0.5-2.4l1.2-5.7h2.2l1.2,5.7
		c0.2,1,0.5,2.4,0.5,2.4h0c0,0,0.3-1.5,0.6-2.5l1.4-5.7h2.3l-3.3,11.4h-2.2l-1.4-6.1c-0.2-0.8-0.4-2-0.4-2h0c0,0-0.2,1.2-0.4,2
		l-1.4,6.1h-2.1L488.8,142.1z"/>
	<path class="st12" d="M504.1,142.1h2.2v2h-2.2V142.1z M504.1,145.3h2.2v8.2h-2.2V145.3z"/>
	<path class="st12" d="M509.8,146.4L509.8,146.4c0.6-0.9,1.4-1.3,2.5-1.3c1.7,0,2.8,1.3,2.8,3.1v5.4h-2.2v-5c0-0.9-0.5-1.5-1.4-1.5
		c-1,0-1.7,0.8-1.7,1.9v4.7h-2.2v-8.2h2.1V146.4z"/>
	<path class="st12" d="M516.1,149.4c0-2.6,1.5-4.3,3.5-4.3c1.2,0,1.9,0.5,2.3,1.2h0v-4.2h2.2v11.4H522v-1.1h0
		c-0.5,0.8-1.3,1.3-2.4,1.3C517.5,153.7,516.1,152.1,516.1,149.4z M522,149.5c0-1.6-0.5-2.6-1.9-2.6c-1.2,0-1.8,1.1-1.8,2.6
		c0,1.6,0.6,2.5,1.7,2.5C521.3,151.9,522,151,522,149.5z"/>
	<path class="st12" d="M525.1,149.4c0-2.4,1.7-4.3,4.3-4.3s4.3,1.9,4.3,4.3s-1.7,4.3-4.3,4.3S525.1,151.9,525.1,149.4z M531.5,149.4
		c0-1.6-0.8-2.7-2.1-2.7c-1.3,0-2.1,1.1-2.1,2.7s0.7,2.7,2.1,2.7C530.7,152.1,531.5,151,531.5,149.4z"/>
	<path class="st12" d="M533.8,145.3h2.2l1,3.8c0.2,0.7,0.4,1.5,0.4,1.5h0c0,0,0.2-0.9,0.4-1.6l1-3.8h1.9l1.1,3.8
		c0.2,0.7,0.4,1.6,0.4,1.6h0c0,0,0.2-0.9,0.4-1.5l1-3.8h2.1l-2.4,8.2h-2l-1.1-4c-0.2-0.7-0.4-1.4-0.4-1.4h0c0,0-0.2,0.8-0.4,1.4
		l-1.1,4h-2L533.8,145.3z"/>
</g>
<g class="st4">
	<path class="st12" d="M376,236.3v-7.8h2.3v7.8c0,1.2,0.6,2,2.1,2c1.5,0,2.2-0.9,2.2-2v-7.7h2.3v7.8c0,2.4-1.5,3.9-4.4,3.9
		C377.6,240.2,376,238.8,376,236.3z"/>
	<path class="st12" d="M389.3,228.6h2.3v4.5h4.5v-4.5h2.3V240h-2.3v-5h-4.5v5h-2.3V228.6z"/>
	<path class="st12" d="M404.9,239.1L404.9,239.1c-0.4,0.6-1,1.1-2.4,1.1c-1.7,0-2.9-0.9-2.9-2.5c0-1.8,1.5-2.4,3.3-2.6
		c1.4-0.2,2-0.3,2-0.9c0-0.6-0.5-1-1.4-1c-1,0-1.5,0.4-1.6,1.2H400c0.1-1.4,1.1-2.7,3.5-2.7c2.5,0,3.5,1.1,3.5,3v4.2
		c0,0.6,0.1,1,0.3,1.1v0.1h-2.1C405.1,239.8,405,239.5,404.9,239.1z M405,237.1v-1.2c-0.4,0.2-1,0.4-1.5,0.5
		c-1.1,0.3-1.7,0.5-1.7,1.3s0.5,1,1.3,1C404.3,238.7,405,237.9,405,237.1z"/>
	<path class="st12" d="M408.4,228.6h2.2V240h-2.2V228.6z"/>
	<path class="st12" d="M412.1,228.6h2.2V240h-2.2V228.6z"/>
</g>
<g class="st4">
	<path class="st12" d="M404.9,293.1h2.4l4,11.4h-2.4l-0.8-2.4H404l-0.8,2.4h-2.4L404.9,293.1z M404.6,300.3h3l-1-3.3
		c-0.2-0.6-0.5-1.8-0.5-1.8h0c0,0-0.3,1.2-0.5,1.8L404.6,300.3z"/>
	<path class="st12" d="M415,293.1h5c1.3,0,2.3,0.4,3,1.1c0.6,0.7,1,1.6,1,2.6c0,2.2-1.4,3.6-3.8,3.6h-2.8v4.1H415V293.1z
		 M417.4,298.5h2.4c1.2,0,1.9-0.7,1.9-1.7c0-1.1-0.7-1.7-1.8-1.7h-2.4V298.5z"/>
	<path class="st12" d="M424.4,300.4c0-2.4,1.7-4.3,4.3-4.3s4.3,1.9,4.3,4.3s-1.7,4.3-4.3,4.3S424.4,302.9,424.4,300.4z M430.7,300.4
		c0-1.6-0.8-2.7-2.1-2.7c-1.3,0-2.1,1.1-2.1,2.7s0.7,2.7,2.1,2.7C430,303.1,430.7,302,430.7,300.4z"/>
	<path class="st12" d="M436.1,297.6L436.1,297.6c0.5-0.9,1.1-1.4,2.1-1.4c0.2,0,0.4,0,0.5,0.1v1.9h0c-1.4-0.1-2.4,0.6-2.4,2.3v4H434
		v-8.2h2.1V297.6z"/>
	<path class="st12" d="M439.2,296.3h1.1v-2.6h2.1v2.6h1.4v1.4h-1.4v4.4c0,0.6,0.3,0.8,0.8,0.8c0.3,0,0.6,0,0.6,0v1.6
		c0,0-0.5,0-1.4,0c-1.1,0-2.2-0.4-2.2-2v-4.8h-1.1V296.3z"/>
</g>
<g class="st4">
	<path class="st12" d="M210.3,359.1h5.1c1.2,0,2.2,0.3,2.8,0.8c0.6,0.6,0.9,1.2,0.9,2.1c0,1.2-0.7,1.9-1.8,2.3v0
		c1.3,0.4,2.1,1.4,2.1,2.8c0,1.1-0.3,1.8-1,2.4c-0.7,0.6-1.7,0.9-2.9,0.9h-5.3V359.1z M215.1,363.7c1,0,1.7-0.5,1.7-1.4
		c0-0.8-0.6-1.3-1.6-1.3h-2.6v2.7H215.1z M212.6,368.6h2.7c1.1,0,1.8-0.6,1.8-1.6c0-1.1-0.8-1.6-1.9-1.6h-2.6V368.6z"/>
	<path class="st12" d="M222.9,367h2.3c0.2,1.4,0.9,1.9,2.6,1.9c1.2,0,2.2-0.4,2.2-1.5c0-1.1-1.1-1.3-2.8-1.7c-2-0.5-3.9-1-3.9-3.4
		c0-2.3,1.8-3.4,4.4-3.4c2.6,0,4.2,1.3,4.4,3.6h-2.2c-0.1-1.2-1-1.7-2.2-1.7c-1.2,0-2.1,0.5-2.1,1.3c0,0.9,0.8,1.2,2.5,1.6
		c2.4,0.5,4.3,1.1,4.3,3.5c0,2.3-1.9,3.6-4.5,3.6C224.8,370.8,223,369.4,222.9,367z"/>
	<path class="st12" d="M235.7,363.4L235.7,363.4c0.6-0.9,1.3-1.3,2.4-1.3c1.7,0,2.8,1.3,2.8,3.1v5.4h-2.2v-5c0-0.9-0.5-1.5-1.4-1.5
		c-1,0-1.7,0.8-1.7,1.9v4.7h-2.2v-11.4h2.2V363.4z"/>
	<path class="st12" d="M241.9,366.4c0-2.4,1.7-4.3,4.3-4.3s4.3,1.9,4.3,4.3s-1.7,4.3-4.3,4.3S241.9,368.9,241.9,366.4z M248.3,366.4
		c0-1.6-0.8-2.7-2.1-2.7c-1.3,0-2.1,1.1-2.1,2.7s0.7,2.7,2.1,2.7C247.5,369.1,248.3,368,248.3,366.4z"/>
	<path class="st12" d="M253.6,363.6L253.6,363.6c0.5-0.9,1.1-1.4,2.1-1.4c0.2,0,0.4,0,0.5,0.1v1.9h0c-1.4-0.1-2.4,0.6-2.4,2.3v4
		h-2.2v-8.2h2.1V363.6z"/>
	<path class="st12" d="M256.7,362.3h1.1v-2.6h2.1v2.6h1.4v1.4H260v4.4c0,0.6,0.3,0.8,0.8,0.8c0.3,0,0.6,0,0.6,0v1.6c0,0-0.5,0-1.4,0
		c-1.1,0-2.2-0.4-2.2-2v-4.8h-1.1V362.3z"/>
</g>
<g class="st4">
	<path class="st12" d="M149.8,298.1h2.3v4.5h4.5v-4.5h2.3v11.4h-2.3v-5h-4.5v5h-2.3V298.1z"/>
	<path class="st12" d="M160.1,305.4c0-2.4,1.7-4.3,4.3-4.3s4.3,1.9,4.3,4.3s-1.7,4.3-4.3,4.3S160.1,307.9,160.1,305.4z M166.5,305.4
		c0-1.6-0.8-2.7-2.1-2.7c-1.3,0-2.1,1.1-2.1,2.7s0.7,2.7,2.1,2.7C165.8,308.1,166.5,307,166.5,305.4z"/>
	<path class="st12" d="M169.3,305.4c0-2.4,1.7-4.3,4.3-4.3s4.3,1.9,4.3,4.3s-1.7,4.3-4.3,4.3S169.3,307.9,169.3,305.4z M175.7,305.4
		c0-1.6-0.8-2.7-2.1-2.7c-1.3,0-2.1,1.1-2.1,2.7s0.7,2.7,2.1,2.7C174.9,308.1,175.7,307,175.7,305.4z"/>
	<path class="st12" d="M182,305.8l-0.9,1v2.8h-2.2v-11.4h2.2v6.3l2.9-3.1h2.6l-3,3.1l3.4,5.1h-2.6L182,305.8z"/>
	<path class="st12" d="M192.3,308.6L192.3,308.6c-0.4,0.6-1,1.1-2.4,1.1c-1.7,0-2.9-0.9-2.9-2.5c0-1.8,1.5-2.4,3.3-2.6
		c1.4-0.2,2-0.3,2-0.9c0-0.6-0.5-1-1.4-1c-1,0-1.5,0.4-1.6,1.2h-1.9c0.1-1.4,1.1-2.7,3.5-2.7c2.5,0,3.5,1.1,3.5,3v4.2
		c0,0.6,0.1,1,0.3,1.1v0.1h-2.1C192.4,309.3,192.4,309,192.3,308.6z M192.3,306.6v-1.2c-0.4,0.2-1,0.4-1.5,0.5
		c-1.1,0.3-1.7,0.5-1.7,1.3s0.5,1,1.3,1C191.6,308.2,192.3,307.4,192.3,306.6z"/>
	<path class="st12" d="M197.9,302.4L197.9,302.4c0.6-0.9,1.3-1.3,2.4-1.3c1.7,0,2.8,1.3,2.8,3.1v5.4H201v-5c0-0.9-0.5-1.5-1.4-1.5
		c-1,0-1.7,0.8-1.7,1.9v4.7h-2.2v-11.4h2.2V302.4z"/>
</g>
<g class="st4">
	<path class="st12" d="M55.6,359.1h5.1c1.2,0,2.2,0.3,2.8,0.8c0.6,0.6,0.9,1.2,0.9,2.1c0,1.2-0.7,1.9-1.8,2.3v0
		c1.3,0.4,2.1,1.4,2.1,2.8c0,1.1-0.3,1.8-1,2.4c-0.7,0.6-1.7,0.9-2.9,0.9h-5.3V359.1z M60.5,363.7c1,0,1.7-0.5,1.7-1.4
		c0-0.8-0.6-1.3-1.6-1.3H58v2.7H60.5z M58,368.6h2.7c1.1,0,1.8-0.6,1.8-1.6c0-1.1-0.8-1.6-1.9-1.6H58V368.6z"/>
	<path class="st12" d="M68.8,359.1h2.3v9.5h5.4v1.9h-7.7V359.1z"/>
	<path class="st12" d="M77,366.4c0-2.4,1.7-4.3,4.3-4.3s4.3,1.9,4.3,4.3s-1.7,4.3-4.3,4.3S77,368.9,77,366.4z M83.4,366.4
		c0-1.6-0.8-2.7-2.1-2.7c-1.3,0-2.1,1.1-2.1,2.7s0.7,2.7,2.1,2.7C82.6,369.1,83.4,368,83.4,366.4z"/>
	<path class="st12" d="M88.7,363.4L88.7,363.4c0.6-0.9,1.4-1.3,2.5-1.3c1.7,0,2.8,1.3,2.8,3.1v5.4h-2.2v-5c0-0.9-0.5-1.5-1.4-1.5
		c-1,0-1.7,0.8-1.7,1.9v4.7h-2.2v-8.2h2.1V363.4z"/>
	<path class="st12" d="M95.2,370.7h2.2c0.2,0.5,0.6,0.9,1.6,0.9c1.2,0,1.8-0.6,1.8-1.7V369h0c-0.5,0.5-1.1,1-2.1,1
		c-1.8,0-3.6-1.4-3.6-3.9c0-2.4,1.5-4,3.6-4c1,0,1.8,0.4,2.3,1.1h0v-0.9h2.1v7.6c0,1.2-0.4,1.9-1,2.5c-0.7,0.6-1.7,0.9-3,0.9
		C96.8,373.3,95.4,372.3,95.2,370.7z M100.9,366c0-1.2-0.6-2.2-2-2.2c-1.1,0-1.8,0.9-1.8,2.2c0,1.4,0.7,2.2,1.9,2.2
		C100.4,368.3,100.9,367.3,100.9,366z"/>
</g>
<g class="st4">
	<path class="st12" d="M20.6,293.1h5.1c1.2,0,2.2,0.3,2.8,0.8c0.6,0.6,0.9,1.2,0.9,2.1c0,1.2-0.7,1.9-1.8,2.3v0
		c1.3,0.4,2.1,1.4,2.1,2.8c0,1.1-0.3,1.8-1,2.4c-0.7,0.6-1.7,0.9-2.9,0.9h-5.3V293.1z M25.5,297.7c1,0,1.7-0.5,1.7-1.4
		c0-0.8-0.6-1.3-1.6-1.3H23v2.7H25.5z M23,302.6h2.7c1.1,0,1.8-0.6,1.8-1.6c0-1.1-0.8-1.6-1.9-1.6H23V302.6z"/>
	<path class="st12" d="M33.8,293.1h5c1.3,0,2.3,0.4,3,1.1c0.6,0.7,1,1.6,1,2.6c0,2.2-1.4,3.6-3.8,3.6h-2.8v4.1h-2.4V293.1z
		 M36.2,298.5h2.4c1.2,0,1.9-0.7,1.9-1.7c0-1.1-0.7-1.7-1.8-1.7h-2.4V298.5z"/>
	<path class="st12" d="M43.2,300.4c0-2.4,1.7-4.3,4.3-4.3s4.3,1.9,4.3,4.3s-1.7,4.3-4.3,4.3S43.2,302.9,43.2,300.4z M49.6,300.4
		c0-1.6-0.8-2.7-2.1-2.7c-1.3,0-2.1,1.1-2.1,2.7s0.7,2.7,2.1,2.7C48.8,303.1,49.6,302,49.6,300.4z"/>
	<path class="st12" d="M54.9,297.6L54.9,297.6c0.5-0.9,1.1-1.4,2.1-1.4c0.2,0,0.4,0,0.5,0.1v1.9h0c-1.4-0.1-2.4,0.6-2.4,2.3v4h-2.2
		v-8.2h2.1V297.6z"/>
	<path class="st12" d="M58,296.3h1.1v-2.6h2.1v2.6h1.4v1.4h-1.4v4.4c0,0.6,0.3,0.8,0.8,0.8c0.3,0,0.6,0,0.6,0v1.6c0,0-0.5,0-1.4,0
		c-1.1,0-2.2-0.4-2.2-2v-4.8H58V296.3z"/>
</g>
<g class="st4">
	<path class="st12" d="M87.3,423.1h8.2v2h-5.9v2.8h5v2h-5v4.7h-2.3V423.1z"/>
	<path class="st12" d="M95.5,430.4c0-2.4,1.7-4.3,4.3-4.3s4.3,1.9,4.3,4.3s-1.7,4.3-4.3,4.3S95.5,432.9,95.5,430.4z M101.9,430.4
		c0-1.6-0.8-2.7-2.1-2.7c-1.3,0-2.1,1.1-2.1,2.7s0.7,2.7,2.1,2.7C101.1,433.1,101.9,432,101.9,430.4z"/>
	<path class="st12" d="M110.3,434.5v-1h0c-0.6,0.8-1.2,1.2-2.4,1.2c-1.8,0-2.8-1.2-2.8-3v-5.5h2.2v5.1c0,1,0.4,1.5,1.4,1.5
		c1,0,1.6-0.8,1.6-1.9v-4.7h2.2v8.2H110.3z"/>
	<path class="st12" d="M115.9,427.4L115.9,427.4c0.6-0.9,1.4-1.3,2.5-1.3c1.7,0,2.8,1.3,2.8,3.1v5.4H119v-5c0-0.9-0.5-1.5-1.4-1.5
		c-1,0-1.7,0.8-1.7,1.9v4.7h-2.2v-8.2h2.1V427.4z"/>
	<path class="st12" d="M121.9,426.3h1.1v-2.6h2.1v2.6h1.4v1.4h-1.4v4.4c0,0.6,0.3,0.8,0.8,0.8c0.3,0,0.6,0,0.6,0v1.6
		c0,0-0.5,0-1.4,0c-1.1,0-2.2-0.4-2.2-2v-4.8h-1.1V426.3z"/>
	<path class="st12" d="M132.7,433.6L132.7,433.6c-0.4,0.6-1,1.1-2.4,1.1c-1.7,0-2.9-0.9-2.9-2.5c0-1.8,1.5-2.4,3.3-2.6
		c1.4-0.2,2-0.3,2-0.9c0-0.6-0.5-1-1.4-1c-1,0-1.5,0.4-1.6,1.2h-1.9c0.1-1.4,1.1-2.7,3.5-2.7c2.5,0,3.5,1.1,3.5,3v4.2
		c0,0.6,0.1,1,0.3,1.1v0.1H133C132.8,434.3,132.7,434,132.7,433.6z M132.7,431.6v-1.2c-0.4,0.2-1,0.4-1.5,0.5
		c-1.1,0.3-1.7,0.5-1.7,1.3s0.5,1,1.3,1C132,433.2,132.7,432.4,132.7,431.6z"/>
	<path class="st12" d="M136.1,423.1h2.2v2h-2.2V423.1z M136.1,426.3h2.2v8.2h-2.2V426.3z"/>
	<path class="st12" d="M141.8,427.4L141.8,427.4c0.6-0.9,1.4-1.3,2.5-1.3c1.7,0,2.8,1.3,2.8,3.1v5.4H145v-5c0-0.9-0.5-1.5-1.4-1.5
		c-1,0-1.7,0.8-1.7,1.9v4.7h-2.2v-8.2h2.1V427.4z"/>
</g>
<g class="st4">
	<path class="st12" d="M373,544.8c0-3.4,2.1-6,5.5-6c2.8,0,4.5,1.7,4.7,3.9h-2.3c-0.2-1.2-1.1-1.9-2.4-1.9c-2.1,0-3.1,1.8-3.1,4
		c0,2.3,1.2,4,3.1,4c1.4,0,2.3-0.8,2.5-2h2.3c-0.1,1-0.5,2-1.3,2.7c-0.8,0.7-1.9,1.2-3.5,1.2C375.2,550.7,373,548.2,373,544.8z"/>
	<path class="st12" d="M389.1,549.5L389.1,549.5c-0.4,0.6-1,1.1-2.4,1.1c-1.7,0-2.9-0.9-2.9-2.5c0-1.8,1.5-2.4,3.3-2.6
		c1.4-0.2,2-0.3,2-0.9c0-0.6-0.5-1-1.4-1c-1,0-1.5,0.4-1.6,1.2h-1.9c0.1-1.4,1.1-2.7,3.5-2.7c2.5,0,3.5,1.1,3.5,3v4.2
		c0,0.6,0.1,1,0.3,1.1v0.1h-2.1C389.3,550.3,389.2,549.9,389.1,549.5z M389.2,547.5v-1.2c-0.4,0.2-1,0.4-1.5,0.5
		c-1.1,0.3-1.7,0.5-1.7,1.3s0.5,1,1.3,1C388.5,549.1,389.2,548.3,389.2,547.5z"/>
	<path class="st12" d="M391.8,542.2h2.2l1.3,4.3c0.2,0.8,0.4,1.3,0.4,1.3h0c0,0,0.1-0.5,0.4-1.3l1.3-4.3h2.2l-2.9,8.2h-2.1
		L391.8,542.2z"/>
	<path class="st12" d="M399.7,546.3c0-2.4,1.6-4.3,4-4.3c2.6,0,4,2,4,4.9h-6c0.2,1.3,0.9,2,2.1,2c0.8,0,1.3-0.4,1.6-1h2.1
		c-0.3,1.5-1.6,2.7-3.7,2.7C401.2,550.7,399.7,548.8,399.7,546.3z M401.9,545.5h3.6c-0.1-1-0.8-1.8-1.7-1.8
		C402.6,543.7,402.1,544.4,401.9,545.5z"/>
</g>
<g class="st4">
	<path class="st12" d="M548,411.4h2.4l4,11.4H552l-0.8-2.4h-4.1l-0.8,2.4H544L548,411.4z M547.6,418.6h3l-1-3.3
		c-0.2-0.6-0.5-1.8-0.5-1.8h0c0,0-0.3,1.2-0.5,1.8L547.6,418.6z"/>
	<path class="st12" d="M558.1,411.4h2.3v9.5h5.4v1.9h-7.7V411.4z"/>
	<path class="st12" d="M566.3,418.7c0-2.4,1.7-4.3,4.3-4.3s4.3,1.9,4.3,4.3s-1.7,4.3-4.3,4.3S566.3,421.2,566.3,418.7z M572.6,418.7
		c0-1.6-0.8-2.7-2.1-2.7c-1.3,0-2.1,1.1-2.1,2.7s0.7,2.7,2.1,2.7C571.9,421.4,572.6,420.3,572.6,418.7z"/>
	<path class="st12" d="M578,415.7L578,415.7c0.6-0.9,1.4-1.3,2.5-1.3c1.7,0,2.8,1.3,2.8,3.1v5.4h-2.2v-5c0-0.9-0.5-1.5-1.4-1.5
		c-1,0-1.7,0.8-1.7,1.9v4.7h-2.2v-8.2h2.1V415.7z"/>
	<path class="st12" d="M584.4,423h2.2c0.2,0.5,0.6,0.9,1.6,0.9c1.2,0,1.8-0.6,1.8-1.7v-0.9h0c-0.5,0.5-1.1,1-2.1,1
		c-1.8,0-3.6-1.4-3.6-3.9c0-2.4,1.5-4,3.6-4c1,0,1.8,0.4,2.3,1.1h0v-0.9h2.1v7.6c0,1.2-0.4,1.9-1,2.5c-0.7,0.6-1.7,0.9-3,0.9
		C586,425.6,584.6,424.6,584.4,423z M590.2,418.3c0-1.2-0.6-2.2-2-2.2c-1.1,0-1.8,0.9-1.8,2.2c0,1.4,0.7,2.2,1.9,2.2
		C589.6,420.6,590.2,419.6,590.2,418.3z"/>
</g>
<g class="st4">
	<path class="st12" d="M285,399.1h3.3l1.6,5.7c0.4,1.4,0.7,3.1,0.7,3.1h0c0,0,0.3-1.6,0.7-3.1l1.6-5.7h3.3v11.4h-2.2v-6.6
		c0-0.9,0.1-2.4,0.1-2.4h0c0,0-0.3,1.3-0.5,2.2l-2,6.8h-2.2l-1.9-6.8c-0.2-0.8-0.5-2.2-0.5-2.2h0c0,0,0.1,1.4,0.1,2.4v6.6H285V399.1
		z"/>
	<path class="st12" d="M302.8,409.6L302.8,409.6c-0.4,0.6-1,1.1-2.4,1.1c-1.7,0-2.9-0.9-2.9-2.5c0-1.8,1.5-2.4,3.3-2.6
		c1.4-0.2,2-0.3,2-0.9c0-0.6-0.5-1-1.4-1c-1,0-1.5,0.4-1.6,1.2h-1.9c0.1-1.4,1.1-2.7,3.5-2.7c2.5,0,3.5,1.1,3.5,3v4.2
		c0,0.6,0.1,1,0.3,1.1v0.1H303C302.9,410.3,302.8,410,302.8,409.6z M302.8,407.6v-1.2c-0.4,0.2-1,0.4-1.5,0.5
		c-1.1,0.3-1.7,0.5-1.7,1.3s0.5,1,1.3,1C302.1,409.2,302.8,408.4,302.8,407.6z"/>
	<path class="st12" d="M308.3,403.6L308.3,403.6c0.5-0.9,1.1-1.4,2.1-1.4c0.2,0,0.4,0,0.5,0.1v1.9h0c-1.4-0.1-2.4,0.6-2.4,2.3v4
		h-2.2v-8.2h2.1V403.6z"/>
	<path class="st12" d="M314.9,406.8l-0.9,1v2.8h-2.2v-11.4h2.2v6.3l2.9-3.1h2.6l-3,3.1l3.4,5.1h-2.6L314.9,406.8z"/>
	<path class="st12" d="M319.6,406.4c0-2.4,1.6-4.3,4-4.3c2.6,0,4,2,4,4.9h-6c0.2,1.3,0.9,2,2.1,2c0.8,0,1.3-0.4,1.6-1h2.1
		c-0.3,1.5-1.6,2.7-3.7,2.7C321.1,410.7,319.6,408.8,319.6,406.4z M321.8,405.5h3.6c-0.1-1-0.8-1.8-1.7-1.8
		C322.5,403.7,322,404.4,321.8,405.5z"/>
	<path class="st12" d="M328.1,402.3h1.1v-2.6h2.1v2.6h1.4v1.4h-1.4v4.4c0,0.6,0.3,0.8,0.8,0.8c0.3,0,0.6,0,0.6,0v1.6
		c0,0-0.5,0-1.4,0c-1.1,0-2.2-0.4-2.2-2v-4.8h-1.1V402.3z"/>
</g>
<g class="st4">
	<path class="st12" d="M387.3,336.1h2.4l4,11.4h-2.4l-0.8-2.4h-4.1l-0.8,2.4h-2.4L387.3,336.1z M387,343.3h3l-1-3.3
		c-0.2-0.6-0.5-1.8-0.5-1.8h0c0,0-0.3,1.2-0.5,1.8L387,343.3z"/>
	<path class="st12" d="M396.9,344h2.3c0.2,1.4,0.9,1.9,2.6,1.9c1.2,0,2.2-0.4,2.2-1.5c0-1.1-1.1-1.3-2.8-1.7c-2-0.5-3.9-1-3.9-3.4
		c0-2.3,1.8-3.4,4.4-3.4c2.6,0,4.2,1.3,4.4,3.6h-2.2c-0.1-1.2-1-1.7-2.2-1.7c-1.2,0-2.1,0.5-2.1,1.3c0,0.9,0.8,1.2,2.5,1.6
		c2.4,0.5,4.3,1.1,4.3,3.5c0,2.3-1.9,3.6-4.5,3.6C398.7,347.8,397,346.4,396.9,344z"/>
	<path class="st12" d="M409.7,340.4L409.7,340.4c0.6-0.9,1.3-1.3,2.4-1.3c1.7,0,2.8,1.3,2.8,3.1v5.4h-2.2v-5c0-0.9-0.5-1.5-1.4-1.5
		c-1,0-1.7,0.8-1.7,1.9v4.7h-2.2v-11.4h2.2V340.4z"/>
	<path class="st12" d="M415.9,343.4c0-2.4,1.7-4.3,4.3-4.3s4.3,1.9,4.3,4.3s-1.7,4.3-4.3,4.3S415.9,345.9,415.9,343.4z M422.3,343.4
		c0-1.6-0.8-2.7-2.1-2.7c-1.3,0-2.1,1.1-2.1,2.7s0.7,2.7,2.1,2.7C421.5,346.1,422.3,345,422.3,343.4z"/>
	<path class="st12" d="M427.6,340.6L427.6,340.6c0.5-0.9,1.1-1.4,2.1-1.4c0.2,0,0.4,0,0.5,0.1v1.9h0c-1.4-0.1-2.4,0.6-2.4,2.3v4
		h-2.2v-8.2h2.1V340.6z"/>
	<path class="st12" d="M430.7,339.3h1.1v-2.6h2.1v2.6h1.4v1.4H434v4.4c0,0.6,0.3,0.8,0.8,0.8c0.3,0,0.6,0,0.6,0v1.6c0,0-0.5,0-1.4,0
		c-1.1,0-2.2-0.4-2.2-2v-4.8h-1.1V339.3z"/>
</g>
<g class="st4">
	<path class="st12" d="M532.7,309h2.3c0.2,1.4,0.9,1.9,2.6,1.9c1.2,0,2.2-0.4,2.2-1.5c0-1.1-1.1-1.3-2.8-1.7c-2-0.5-3.9-1-3.9-3.4
		c0-2.3,1.8-3.4,4.4-3.4c2.6,0,4.2,1.3,4.4,3.6h-2.2c-0.1-1.2-1-1.7-2.2-1.7c-1.2,0-2.1,0.5-2.1,1.3c0,0.9,0.8,1.2,2.5,1.6
		c2.4,0.5,4.3,1.1,4.3,3.5c0,2.3-1.9,3.6-4.5,3.6C534.6,312.8,532.8,311.4,532.7,309z"/>
	<path class="st12" d="M545.5,305.4L545.5,305.4c0.6-0.9,1.3-1.3,2.4-1.3c1.7,0,2.8,1.3,2.8,3.1v5.4h-2.2v-5c0-0.9-0.5-1.5-1.4-1.5
		c-1,0-1.7,0.8-1.7,1.9v4.7h-2.2v-11.4h2.2V305.4z"/>
	<path class="st12" d="M551.7,308.4c0-2.4,1.7-4.3,4.3-4.3s4.3,1.9,4.3,4.3s-1.7,4.3-4.3,4.3S551.7,310.9,551.7,308.4z M558.1,308.4
		c0-1.6-0.8-2.7-2.1-2.7c-1.3,0-2.1,1.1-2.1,2.7s0.7,2.7,2.1,2.7C557.4,311.1,558.1,310,558.1,308.4z"/>
	<path class="st12" d="M560.4,304.3h2.2l1,3.8c0.2,0.7,0.4,1.5,0.4,1.5h0c0,0,0.2-0.9,0.4-1.6l1-3.8h1.9l1.1,3.8
		c0.2,0.7,0.4,1.6,0.4,1.6h0c0,0,0.2-0.9,0.4-1.5l1-3.8h2.1l-2.4,8.2h-2l-1.1-4c-0.2-0.7-0.4-1.4-0.4-1.4h0c0,0-0.2,0.8-0.4,1.4
		l-1.1,4h-2L560.4,304.3z"/>
	<path class="st12" d="M572.4,308.4c0-2.4,1.6-4.3,4-4.3c2.6,0,4,2,4,4.9h-6c0.2,1.3,0.9,2,2.1,2c0.8,0,1.3-0.4,1.6-1h2.1
		c-0.3,1.5-1.6,2.7-3.7,2.7C573.9,312.7,572.4,310.8,572.4,308.4z M574.5,307.5h3.6c-0.1-1-0.8-1.8-1.7-1.8
		C575.3,305.7,574.7,306.4,574.5,307.5z"/>
	<path class="st12" d="M583.6,305.6L583.6,305.6c0.5-0.9,1.1-1.4,2.1-1.4c0.2,0,0.4,0,0.5,0.1v1.9h0c-1.4-0.1-2.4,0.6-2.4,2.3v4
		h-2.2v-8.2h2.1V305.6z"/>
	<path class="st12" d="M586.6,309.8h2c0.1,0.9,0.8,1.4,1.8,1.4c1,0,1.5-0.4,1.5-0.9c0-0.8-1-0.9-2.2-1.1c-1.5-0.3-2.9-0.7-2.9-2.5
		c0-1.8,1.5-2.6,3.3-2.6c2.2,0,3.4,1.1,3.5,2.7h-2c-0.1-0.9-0.7-1.2-1.6-1.2c-0.8,0-1.4,0.3-1.4,0.9c0,0.7,1.1,0.8,2.3,1
		c1.4,0.3,2.9,0.7,2.9,2.6c0,1.6-1.4,2.6-3.5,2.6C588,312.7,586.7,311.6,586.6,309.8z"/>
</g>
<g class="st4">
	<path class="st12" d="M416.1,137.1h2.4l4,11.4h-2.4l-0.8-2.4h-4.1l-0.8,2.4h-2.4L416.1,137.1z M415.8,144.3h3l-1-3.3
		c-0.2-0.6-0.5-1.8-0.5-1.8h0c0,0-0.3,1.2-0.5,1.8L415.8,144.3z"/>
	<path class="st12" d="M426.2,137.1h5.3c2.2,0,3.7,1.3,3.7,3.2c0,1.3-0.6,2.4-2.1,2.8v0c1.1,0.3,1.6,0.9,1.7,2.3
		c0.2,1.6,0.1,2.8,0.5,3v0.1H433c-0.3-0.1-0.3-1.4-0.4-2.6c-0.1-1.2-0.8-2-2.2-2h-1.9v4.6h-2.3V137.1z M428.5,142.1h2.5
		c1.3,0,1.9-0.7,1.9-1.6c0-0.9-0.6-1.6-1.8-1.6h-2.5V142.1z"/>
	<path class="st12" d="M441.3,147.6L441.3,147.6c-0.4,0.6-1,1.1-2.4,1.1c-1.7,0-2.9-0.9-2.9-2.5c0-1.8,1.5-2.4,3.3-2.6
		c1.4-0.2,2-0.3,2-0.9c0-0.6-0.5-1-1.4-1c-1,0-1.5,0.4-1.6,1.2h-1.9c0.1-1.4,1.1-2.7,3.5-2.7c2.5,0,3.5,1.1,3.5,3v4.2
		c0,0.6,0.1,1,0.3,1.1v0.1h-2.1C441.4,148.3,441.4,148,441.3,147.6z M441.3,145.6v-1.2c-0.4,0.2-1,0.4-1.5,0.5
		c-1.1,0.3-1.7,0.5-1.7,1.3s0.5,1,1.3,1C440.6,147.2,441.3,146.4,441.3,145.6z"/>
	<path class="st12" d="M444.8,140.3h2.1v1.1h0c0.4-0.8,1.2-1.3,2.4-1.3c1,0,1.9,0.6,2.3,1.4h0c0.6-0.9,1.4-1.4,2.5-1.4
		c1.7,0,2.7,1.1,2.7,2.9v5.5h-2.2v-5.2c0-0.9-0.5-1.4-1.3-1.4c-0.9,0-1.5,0.7-1.5,1.8v4.8h-2.2v-5.2c0-0.9-0.5-1.4-1.3-1.4
		c-0.9,0-1.5,0.7-1.5,1.8v4.8h-2.2V140.3z"/>
	<path class="st12" d="M458.1,140.3h2.1v1h0c0.5-0.7,1.3-1.2,2.4-1.2c2.2,0,3.6,1.8,3.6,4.3c0,2.7-1.4,4.3-3.6,4.3
		c-1.2,0-1.9-0.5-2.4-1.2h0v3.6h-2.2V140.3z M464,144.5c0-1.6-0.5-2.6-1.9-2.6c-1.4,0-1.9,1.2-1.9,2.6c0,1.5,0.7,2.5,2,2.5
		C463.3,146.9,464,146,464,144.5z"/>
</g>
<g class="st4">
	<path class="st12" d="M49.9,228.6h8.4v2h-6.1v2.6h5.3v1.9h-5.3v3.1h6.1v1.9h-8.5V228.6z"/>
	<path class="st12" d="M59.7,228.6h2.2V240h-2.2V228.6z"/>
	<path class="st12" d="M65.4,239L65.4,239l0,1h-2.1v-11.4h2.2v4.2h0c0.4-0.7,1.2-1.2,2.3-1.2c2.1,0,3.5,1.8,3.5,4.3
		c0,2.7-1.4,4.3-3.5,4.3C66.7,240.2,65.9,239.7,65.4,239z M69.1,235.9c0-1.5-0.6-2.6-1.8-2.6c-1.4,0-1.9,1.1-1.9,2.6
		c0,1.5,0.8,2.5,2,2.5C68.5,238.4,69.1,237.5,69.1,235.9z"/>
	<path class="st12" d="M71.9,235.9c0-2.4,1.7-4.3,4.3-4.3s4.3,1.9,4.3,4.3s-1.7,4.3-4.3,4.3S71.9,238.4,71.9,235.9z M78.3,235.9
		c0-1.6-0.8-2.7-2.1-2.7c-1.3,0-2.1,1.1-2.1,2.7s0.7,2.7,2.1,2.7C77.5,238.6,78.3,237.5,78.3,235.9z"/>
	<path class="st12" d="M80.6,231.8h2.2l1,3.8c0.2,0.7,0.4,1.5,0.4,1.5h0c0,0,0.2-0.9,0.4-1.6l1-3.8h1.9l1.1,3.8
		c0.2,0.7,0.4,1.6,0.4,1.6h0c0,0,0.2-0.9,0.4-1.5l1-3.8h2.1L90,240h-2l-1.1-4c-0.2-0.7-0.4-1.4-0.4-1.4h0c0,0-0.2,0.8-0.4,1.4
		l-1.1,4h-2L80.6,231.8z"/>
</g>
<g class="st4">
	<path class="st12" d="M112.4,138.1h5.1c1.2,0,2.2,0.3,2.8,0.8c0.6,0.6,0.9,1.2,0.9,2.1c0,1.2-0.7,1.9-1.8,2.3v0
		c1.3,0.4,2.1,1.4,2.1,2.8c0,1.1-0.3,1.8-1,2.4c-0.7,0.6-1.7,0.9-2.9,0.9h-5.3V138.1z M117.2,142.7c1,0,1.7-0.5,1.7-1.4
		c0-0.8-0.6-1.3-1.6-1.3h-2.6v2.7H117.2z M114.7,147.6h2.7c1.1,0,1.8-0.6,1.8-1.6c0-1.1-0.8-1.6-1.9-1.6h-2.6V147.6z"/>
	<path class="st12" d="M125.6,138.1h2.3v4.5h4.5v-4.5h2.3v11.4h-2.3v-5h-4.5v5h-2.3V138.1z"/>
	<path class="st12" d="M141.2,148.6L141.2,148.6c-0.4,0.6-1,1.1-2.4,1.1c-1.7,0-2.9-0.9-2.9-2.5c0-1.8,1.5-2.4,3.3-2.6
		c1.4-0.2,2-0.3,2-0.9c0-0.6-0.5-1-1.4-1c-1,0-1.5,0.4-1.6,1.2h-1.9c0.1-1.4,1.1-2.7,3.5-2.7c2.5,0,3.5,1.1,3.5,3v4.2
		c0,0.6,0.1,1,0.3,1.1v0.1h-2.1C141.3,149.3,141.2,149,141.2,148.6z M141.2,146.6v-1.2c-0.4,0.2-1,0.4-1.5,0.5
		c-1.1,0.3-1.7,0.5-1.7,1.3s0.5,1,1.3,1C140.5,148.2,141.2,147.4,141.2,146.6z"/>
	<path class="st12" d="M144.7,138.1h2.2v11.4h-2.2V138.1z"/>
	<path class="st12" d="M148.3,138.1h2.2v11.4h-2.2V138.1z"/>
</g>
<g class="st4">
	<path class="st11" d="M135.4,181.1h5.1c1.2,0,2.2,0.3,2.8,0.8c0.6,0.6,0.9,1.2,0.9,2.1c0,1.2-0.7,1.9-1.8,2.3v0
		c1.3,0.4,2.1,1.4,2.1,2.8c0,1.1-0.3,1.8-1,2.4c-0.7,0.6-1.7,0.9-2.9,0.9h-5.3V181.1z M140.2,185.7c1,0,1.7-0.5,1.7-1.4
		c0-0.8-0.6-1.3-1.6-1.3h-2.6v2.7H140.2z M137.7,190.6h2.7c1.1,0,1.8-0.6,1.8-1.6c0-1.1-0.8-1.6-1.9-1.6h-2.6V190.6z"/>
	<path class="st11" d="M148.1,189h2.3c0.2,1.4,0.9,1.9,2.6,1.9c1.2,0,2.2-0.4,2.2-1.5c0-1.1-1.1-1.3-2.8-1.7c-2-0.5-3.9-1-3.9-3.4
		c0-2.3,1.8-3.4,4.4-3.4c2.6,0,4.2,1.3,4.4,3.6H155c-0.1-1.2-1-1.7-2.2-1.7c-1.2,0-2.1,0.5-2.1,1.3c0,0.9,0.8,1.2,2.5,1.6
		c2.4,0.5,4.3,1.1,4.3,3.5c0,2.3-1.9,3.6-4.5,3.6C149.9,192.8,148.1,191.4,148.1,189z"/>
	<path class="st11" d="M158.7,181.1h2.2v2h-2.2V181.1z M158.7,184.3h2.2v8.2h-2.2V184.3z"/>
	<path class="st11" d="M161.8,184.3h1.1v-2.6h2.1v2.6h1.4v1.4H165v4.4c0,0.6,0.3,0.8,0.8,0.8c0.3,0,0.6,0,0.6,0v1.6c0,0-0.5,0-1.4,0
		c-1.1,0-2.2-0.4-2.2-2v-4.8h-1.1V184.3z"/>
	<path class="st11" d="M167.1,188.4c0-2.4,1.6-4.3,4-4.3c2.6,0,4,2,4,4.9h-6c0.2,1.3,0.9,2,2.1,2c0.8,0,1.3-0.4,1.6-1h2.1
		c-0.3,1.5-1.6,2.7-3.7,2.7C168.6,192.7,167.1,190.8,167.1,188.4z M169.3,187.5h3.6c-0.1-1-0.8-1.8-1.7-1.8
		C170,185.7,169.4,186.4,169.3,187.5z"/>
</g>
<g>
	<g>
		<circle class="st13" cx="76.3" cy="315.5" r="6"/>
	</g>
</g>
<g>
	<g>
		<circle class="st13" cx="568" cy="327.5" r="6"/>
	</g>
</g>
</svg>
