<?xml version="1.0" encoding="utf-8"?>
<!-- Generator: Adobe Illustrator 24.1.2, SVG Export Plug-In . SVG Version: 6.00 Build 0)  -->
<svg version="1.1" id="Layer_1" xmlns="http://www.w3.org/2000/svg" xmlns:xlink="http://www.w3.org/1999/xlink" x="0px" y="0px"
	 viewBox="0 0 642.5 713" style="enable-background:new 0 0 642.5 713;" xml:space="preserve">
<style type="text/css">
	.st0{fill:#25294A;}
	.st1{fill:#2B3056;}
	.st2{fill:#2D325A;}
	.st3{opacity:0.5;enable-background:new    ;}
	.st4{fill:#3F51B5;}
	.st5{enable-background:new    ;}
	.st6{fill:#EF5652;}
	.st7{fill:#67BC6B;}
	.st8{fill:#FFFFFF;}
	.st9{fill:#737AAE;}
	.st10{fill:#22C0FF;}
	.st11{fill:#EF5350;}
	.st12{fill:#66BB6A;}
</style>
<g id="Full_1_">
	<g id="Full">
		<g>
			<path class="st0" d="M438.9,55.9l-4.4-1.6V25.5l-7.1-8.4l1.3-1.8L420,6.6l-3.3,0.7l-17.8-6.7L382.7,15h-6.4l-10.9,14.4v26.2
				l-2.3,3.6v20.5H283v58.6h-85.7v46.3h-81.6V212H0.5v81h17.3v68.8h29.6v60.9h4v43.9H22.9V547h91.8v-23.4h7.2v35.6h-17.4v28.5h116.3
				v98.7l37.7,26.1H334l46.9-29.5v-52.9h-39.7v-47.7h104v-85.5h-23.4v-5.1h21.6v-37.6h7.9v29.5h51v-17.3h19.4l66.3-39.7h53V381
				h-23.5v-51.9H642V225.3h-24.5v-5.1h12.3v-21.3h-12.3v-11.2h-10.2v-15.3h-17.4v-35.1h-110V79.8h-41L438.9,55.9L438.9,55.9z
				 M479.9,166.3h87.7v53.9h-12.2v-42.7h-34.6v14.2c0,0-40.9-0.4-40.9,0V166.3L479.9,166.3z M219.8,166.3h127.5v-51.9h63.2v51.9
				h35.7v87.5h-52V265h-13.3v-26.5l-18.4-19.3h-16.3v-34.6h-44.9v34.6H287l-20.3,20.3v3.1h-12.3v-12.2h-34.6L219.8,166.3
				L219.8,166.3z M254.4,391v-82.4H238v-4.1h16.4v-24.4h-58.1v-5l0,0h58.1v-11.2h12.3V333h40.8v8.3h-40.8v32.5h23.4v47.8h-35.7
				v-23.4h-16.9v-2.4l-12.8,8.8l-2.4-3.3l15-10.3H254.4z M133.1,293h17.3v-80.9H180v63h5.1v5.1H180v24.4h28.6v4.1h-17.4V324h-58.1
				V293L133.1,293z M209.8,391l11.8-6.8v4.7l-13.1,6.8v2.5h-17.3v119h58.1v8.1h-28.5v23.4l0,0h-46.9v-63.1h-52v16.3h-7.2v-16.3H74.9
				v-31.5h27.6v-38.7H74.9v-53.9h58.2v-18.3h58.1V391H209.8z M321.7,630.1h-79.5v-53.9h79.5V630.1z M269.3,484.6h-9.8v-12.2h36.7
				v5.1H284v23.4h69.3v23.4h5.1v4.1h0.1l0,0h-17.3v20.3h-47v-23.4h-22.4v-34.6h-2.5L269.3,484.6L269.3,484.6z M346.5,341.2h-17.4
				V333h51.8v-45.7h13.3v11.2h85.7v-85.4l0,0h40.9v23.4h-28.6v81.3h28.5V329h-46.9v-11.2h-22.3v16.3h-7.2v-16.3h-56.1v44.8h11.2v57
				h9.2v5.1h-26.5v67.1h22.4v5.1h-6.1l-16.3,16.3v15.3h-12.2v-4.1h5.1v-46.9h-34.7v-5.1H375v-51.9h-28.5V341.2z M531.9,350.4v23.4
				h45.9V329h12.3v50.9l-68.3,41.7H479v-17.3h-27.5v28.5h-8.1v-8.2c0,0-25.5-0.5-25.5,0v-5.1h8.1v-56.9h18.4v-17.3h7.1v9.1h21.4v-4
				L531.9,350.4L531.9,350.4z"/>
			<path class="st1" d="M334.1,713h-75.8l-38-26.3v-98.5H104v-29.5h17.4v-34.6h-6.2v23.4H22.4v-81.4h28.5v-42.9h-4v-60.9H17.3v-68.8
				H0v-82h115.2v-27.4h81.6v-46.3h85.7V79.2h80.1V59.1l2.3-3.6V29.2l11.2-14.7h6.5L398.8,0l17.9,6.8l3.4-0.7l9.2,9.2l-1.3,1.8l7,8.2
				v28.6l4.4,1.6v23.8h41v57.5h110v35.1h17.4v15.3H618v11.2h12.3v22.3H618v4.1h24.5v104.8H618v50.9h23.5v46.7h-53.4l-66.3,39.7h-19
				v17.3h-52v-29.5h-6.9v37.6h-21.6v4.1h23.4v86.5h-104v46.7h39.7v53.7l-0.2,0.1L334.1,713z M258.7,712h75.2l46.5-29.3v-52.1h-39.7
				v-48.7h104v-84.5h-23.4v-6.1h21.6v-37.6h8.9v29.5h50v-17.3h19.8l66.3-39.7h52.6v-44.7H617v-52.9h24.5V225.8H617v-6.1h12.3v-20.3
				H617v-11.2h-10.2v-15.3h-17.4v-35.1h-110V80.3h-41v-24l-4.4-1.6v-29l-7.2-8.6l1.3-1.8l-8.2-8.2l-3.2,0.7L399,1.2l-16.1,14.3h-6.3
				l-10.6,14.1v26.2l-2.3,3.6v20.9h-80.1v58.6h-85.7v46.3h-81.6v27.4H1v80h17.3v68.8h29.6v60.9h4v44.9H23.4v79.4h90.8v-23.4h8.2
				v36.6H105v27.5h116.3v98.9L258.7,712z M322.2,630.6h-80.5v-54.9h80.5V630.6z M242.7,629.6h78.5v-52.9h-78.5V629.6z M341.7,549.2
				h-48v-23.4h-22.4v-34.6h-2.5v-6.1H259v-13.2h37.7v6.1h-12.2v22.4h69.3v23.4h5.1v4.6h-0.4v0.5h-16.8V549.2z M294.7,548.2h46v-20.3
				h17.2v-3.1h-5.1v-23.4h-69.3V477h12.2v-4.1H260v11.2h9.8v6.1h2.5v34.6h22.4V548.2z M221.3,549.2h-47.9v-63.1h-51v16.3h-8.2v-16.3
				H74.4v-32.5H102v-37.7H74.4V361h58.2v-18.3h59.1v47.8h18l12.4-7.2v5.9L209,396v2.7h-17.3v118h58.1v9.1h-28.5V549.2z M174.4,548.2
				h45.9v-23.4h28.5v-7.1h-58.1v-120H208v-2.3l13.1-6.8v-3.5l-11.2,6.4h-19.2v-47.8h-57.1V362H75.4v52.9H103v39.7H75.4v30.5h39.8
				v16.3h6.2v-16.3h53V548.2z M382.6,529h-13.2v-5.1h5.1V478h-34.7v-6.1h34.7V421H346v-79.3h-17.4v-9.2h51.8v-45.7h14.3V298h84.7
				v-85.4h41.9V237h-28.6v80.3h28.5v12.2h-47.9v-11.2H452v16.3h-8.2v-16.3h-55.1v43.8h11.2v57h9.2v6.1h-26.5v66.1H405v6.1h-6.4
				l-16,16V529z M370.4,528h11.2v-15l16.6-16.6h5.8v-4.1h-22.4v-68.1h26.5v-4.1h-9.2v-57h-11.2v-45.8h57.1v16.3h6.2v-16.3h23.3v11.2
				h45.9v-10.2h-28.5V236h28.6v-22.4h-39.9V299h-86.7v-11.2h-12.3v45.7h-51.8v7.2H347V420h28.5v52.9h-34.7v4.1h34.7v47.9h-5.1V528z
				 M452,433.3h-9.1v-8.2c-9.6-0.2-23.8-0.3-24.8-0.1l-0.1-0.4h-0.6V419h8.1v-56.9h18.4v-17.3h8.1v9.1h20.4v-4h60v23.4h44.9v-44.8
				h13.3v51.7l-0.2,0.1l-68.4,41.8h-43.4v-17.3H452V433.3z M443.9,432.3h7.1v-28.5h28.5v17.3h42.2l67.9-41.5v-50.1h-11.3v44.8h-46.9
				v-23.4h-58v4H451v-9.1h-6.1v17.3h-18.4V420h-8.1v4c1.7-0.2,7.2-0.3,25,0.1l0.5,0V432.3z M290.6,422.1h-36.7v-23.4H237v-2
				l-12.4,8.5l-3-4.1l15.6-10.7h16.8v-81.4h-16.4V304h16.4v-23.4h-58.1v-6h58.1v-11.2h13.3v69.1H308v9.3h-40.8v31.5h23.4V422.1z
				 M254.9,421.1h34.7v-46.8h-23.4v-33.5H307v-7.3h-40.8v-69.1h-11.3v11.2h-58.1v4h58.1V305h-16.4v3.1h16.4v83.4h-17.4l-14.4,9.9
				l1.8,2.5l13.2-9.1v2.9h16.9V421.1z M191.7,324.5h-59.1v-32h17.3v-80.9h30.6v63h5.1v6.1h-5.1v23.4h28.6v5.1h-17.4V324.5z
				 M133.6,323.5h57.1v-15.3h17.4v-3.1h-28.6v-25.4h5.1v-4.1h-5.1v-63h-28.6v80.9h-17.3V323.5z M394.7,265.5h-14.3v-26.8l-18.1-19
				h-16.6v-34.6h-43.9v34.6h-14.6l-20,20v3.4h-13.3v-12.2h-34.6v-65.1h127.5v-51.9H411v51.9h35.7v88.5h-52V265.5z M381.4,264.5h12.3
				v-11.2h52v-86.5H410v-51.9h-62.2v51.9H220.3v63.1h34.6v12.2h11.3v-2.8l20.6-20.6h14v-34.6h45.9v34.6h16l0.1,0.2l18.5,19.4V264.5z
				 M568.1,220.7h-13.2V178h-33.6v14.2l-0.5,0c-15.7-0.2-39.6-0.3-40.7,0l-0.1-0.5h-0.6v-25.9h88.7V220.7z M555.9,219.7h11.2v-52.9
				h-86.7v24.4c2.1-0.2,10-0.3,39.9,0V177h35.6V219.7z"/>
		</g>
	</g>
</g>
<g id="Environment_1_">
	<g>
		<rect x="341.2" y="571.6" class="st2" width="10.4" height="10.7"/>
	</g>
	<g>
		<rect x="433.8" y="482" class="st2" width="9.6" height="9.8"/>
	</g>
	<g>
		<rect x="388.2" y="317.8" class="st2" width="11.1" height="9.6"/>
	</g>
	<g>
		<rect x="567.1" y="329" class="st2" width="10.7" height="10.7"/>
	</g>
	<g>
		<rect x="446.2" y="226.8" class="st2" width="10.9" height="11.6"/>
	</g>
	<g>
		<rect x="335.4" y="408.8" class="st2" width="11.1" height="11.6"/>
	</g>
	<g>
		<rect x="382.1" y="455.2" class="st2" width="15.9" height="10.8"/>
	</g>
	<g>
		<path class="st2" d="M389.4,579.8h-1v-3h1V579.8z M389.4,573.8h-1v-1.9h2.1v1h-1.1V573.8z M432.5,572.9h-3v-1h3V572.9z
			 M426.5,572.9h-3v-1h3V572.9z M420.5,572.9h-3v-1h3V572.9z M414.5,572.9h-3v-1h3V572.9z M408.5,572.9h-3v-1h3V572.9z M402.5,572.9
			h-3v-1h3V572.9z M396.5,572.9h-3v-1h3V572.9z M435.4,571.8h-1v-3h1V571.8z M435.4,565.8h-1v-3h1V565.8z M435.4,559.8h-1v-3h1
			V559.8z M435.4,553.8h-1v-3h1V553.8z M435.4,547.8h-1v-3h1V547.8z M435.4,541.8h-1v-3h1V541.8z M435.4,535.8h-1v-3h1V535.8z
			 M435.4,529.8h-1v-3h1V529.8z M435.4,523.8h-1v-3h1V523.8z M435.4,517.8h-1v-3h1V517.8z M435.4,511.8h-1v-3h1V511.8z M435.4,505.8
			h-1v-3h1V505.8z M435.4,499.8h-1v-3h1V499.8z"/>
	</g>
	<g>
		<rect x="173.9" y="548.7" class="st2" width="10.7" height="10.2"/>
	</g>
	<g>
		<rect x="121.9" y="485.6" class="st2" width="10.7" height="10"/>
	</g>
	<g>
		<rect x="220.8" y="525.3" class="st2" width="10.1" height="10.4"/>
	</g>
	<g>
		<rect x="191.2" y="443.9" class="st2" width="11.4" height="11.4"/>
	</g>
	<g>
		<rect x="139" y="259" class="st2" width="11.4" height="34"/>
	</g>
	<g>
		<rect x="115.7" y="184.7" class="st2" width="11.2" height="11"/>
	</g>
	<g>
		<rect x="243.8" y="354.7" class="st2" width="10.6" height="11.4"/>
	</g>
	<g>
		<rect x="370.7" y="323.2" class="st2" width="10.2" height="9.8"/>
	</g>
	<g>
		<rect x="266.7" y="282.6" class="st2" width="11" height="50.3"/>
	</g>
	<g>
		<rect x="87.7" y="351.6" class="st2" width="10.5" height="9.9"/>
	</g>
	<g>
		<rect x="104.6" y="282.1" class="st2" width="11.1" height="10.9"/>
	</g>
	<g>
		<rect x="52.3" y="212.1" class="st2" width="11.5" height="11.3"/>
	</g>
	<g>
		<rect x="0.5" y="257.9" class="st2" width="35.1" height="35.1"/>
	</g>
	<g>
		<rect x="249.4" y="472.4" class="st2" width="10.1" height="12.2"/>
	</g>
	<g>
		<rect x="231" y="525.3" class="st2" width="5.6" height="3.9"/>
	</g>
	<g>
		<rect x="132.6" y="485.5" class="st2" width="5.6" height="4.4"/>
	</g>
	<g>
		<rect x="249.4" y="484.6" class="st2" width="20" height="6.1"/>
	</g>
	<g>
		<rect x="202.6" y="450" class="st2" width="5.3" height="5.3"/>
	</g>
	<g>
		<rect x="70.2" y="270.4" class="st2" width="45.5" height="11.7"/>
	</g>
	<g>
		<rect x="0.5" y="247.4" class="st2" width="3.9" height="10.5"/>
	</g>
	<g>
		<rect x="494.4" y="466.4" class="st2" width="7.9" height="17.3"/>
	</g>
	<g>
		<rect x="491.3" y="473.3" class="st2" width="3.1" height="10.3"/>
	</g>
	<g>
		<polygon class="st2" points="588,426.7 581.1,417.6 572.9,424 579,432 		"/>
	</g>
	<g>
		<rect x="399.3" y="317.7" class="st2" width="6.2" height="4.4"/>
	</g>
	<g>
		<rect x="376.6" y="318" class="st2" width="4.3" height="5.1"/>
	</g>
	<g>
		<rect x="311.7" y="215.4" class="st2" width="24.3" height="3.8"/>
	</g>
	<g>
		<polygon class="st2" points="295.9,258.8 295.9,287.6 312.8,287.6 312.8,298.8 335,298.8 335,287.6 352,287.6 352,258.8 		"/>
	</g>
	<g>
		<rect x="446.2" y="221.8" class="st2" width="4.1" height="5.1"/>
	</g>
	<g>
		<rect x="567.1" y="317.8" class="st2" width="10.7" height="11.2"/>
	</g>
	<g>
		<rect x="543.9" y="177.5" class="st2" width="11.5" height="10.7"/>
	</g>
	<g>
		<rect x="629.1" y="225.3" class="st2" width="12.9" height="11.8"/>
	</g>
	<g>
		<rect x="520.7" y="317.8" class="st2" width="11.2" height="11.2"/>
	</g>
	<g>
		<rect x="577.8" y="317.7" class="st2" width="12.3" height="11.2"/>
	</g>
	<g>
		<rect x="629.1" y="237.1" class="st2" width="12.9" height="3.2"/>
	</g>
	<g>
		
			<rect x="549.3" y="263.1" transform="matrix(0.9679 -0.2514 0.2514 0.9679 -49.7072 153.0087)" class="st2" width="49.4" height="15.9"/>
	</g>
	<g>
		<path class="st2" d="M617.5,220.7h-1.9v-1h1.9V220.7z M612.6,220.7h-3v-1h3V220.7z M606.6,220.7h-3v-1h3V220.7z M600.6,220.7h-3
			v-1h3V220.7z M594.6,220.7h-3v-1h3V220.7z M588.6,220.7h-3v-1h3V220.7z M582.6,220.7h-3v-1h3V220.7z M576.6,220.7h-3v-1h3V220.7z
			 M570.6,220.7h-3v-1h3V220.7z"/>
	</g>
	<g>
		<path class="st2" d="M208.6,309.2l0-1l3,0l0,1L208.6,309.2z M214.6,309.2l0-1l3,0l0,1L214.6,309.2z M220.6,309.2l0-1l3,0l0,1
			L220.6,309.2z M226.6,309.1l0-1l3,0l0,1L226.6,309.1z M232.6,309.1l0-1l3,0l0,1L232.6,309.1z"/>
	</g>
	<g>
		<path class="st2" d="M340.3,472.9h-2.1v-1h2.1V472.9z M335.2,472.9h-3v-1h3V472.9z M329.2,472.9h-3v-1h3V472.9z M323.2,472.9h-3
			v-1h3V472.9z M317.2,472.9h-3v-1h3V472.9z M311.2,472.9h-3v-1h3V472.9z M305.2,472.9h-3v-1h3V472.9z M299.2,472.9h-3v-1h3V472.9z"
			/>
	</g>
</g>
<g class="st3">
	<rect x="283.9" y="241.2" class="st4" width="80" height="69.9"/>
</g>
<g class="st3">
	<rect x="553" y="225.3" class="st4" width="89" height="72"/>
</g>
<g class="st3">
	<polygon class="st4" points="115.7,293 35.6,293 35.6,257.9 18.1,257.9 18.1,212.1 115.7,212.1 	"/>
</g>
<g class="st5">
	<path class="st6" d="M280.7,662.5h2.4l4,11.4h-2.4l-0.8-2.4h-4.1l-0.8,2.4h-2.4L280.7,662.5z M280.4,669.8h3l-1-3.3
		c-0.2-0.6-0.5-1.8-0.5-1.8h0c0,0-0.3,1.2-0.5,1.8L280.4,669.8z"/>
	<path class="st6" d="M287,665.8h1.1v-2.6h2.1v2.6h1.4v1.4h-1.4v4.4c0,0.6,0.3,0.8,0.8,0.8c0.3,0,0.6,0,0.6,0v1.6c0,0-0.5,0-1.4,0
		c-1.1,0-2.2-0.4-2.2-2v-4.8H287V665.8z"/>
	<path class="st6" d="M292.1,665.8h1.1v-2.6h2.1v2.6h1.4v1.4h-1.4v4.4c0,0.6,0.3,0.8,0.8,0.8c0.3,0,0.6,0,0.6,0v1.6c0,0-0.5,0-1.4,0
		c-1.1,0-2.2-0.4-2.2-2v-4.8h-1.1V665.8z"/>
	<path class="st6" d="M302.9,673.1L302.9,673.1c-0.4,0.6-1,1.1-2.4,1.1c-1.7,0-2.9-0.9-2.9-2.5c0-1.8,1.5-2.4,3.3-2.6
		c1.4-0.2,2-0.3,2-0.9c0-0.6-0.5-1-1.4-1c-1,0-1.5,0.4-1.6,1.2H298c0.1-1.4,1.1-2.7,3.5-2.7c2.5,0,3.5,1.1,3.5,3v4.2
		c0,0.6,0.1,1,0.3,1.1v0.1h-2.1C303.1,673.8,303,673.4,302.9,673.1z M302.9,671.1v-1.2c-0.4,0.2-1,0.4-1.5,0.5
		c-1.1,0.3-1.7,0.5-1.7,1.3s0.5,1,1.3,1C302.3,672.6,302.9,671.9,302.9,671.1z"/>
	<path class="st6" d="M306,669.9c0-2.4,1.6-4.3,4.1-4.3c2.1,0,3.4,1.2,3.7,3h-2.1c-0.1-0.7-0.7-1.3-1.5-1.3c-1.3,0-2,1-2,2.6
		c0,1.6,0.6,2.6,2,2.6c0.9,0,1.5-0.5,1.6-1.4h2.1c-0.1,1.7-1.5,3.1-3.7,3.1C307.6,674.2,306,672.3,306,669.9z"/>
	<path class="st6" d="M317.9,670.2l-0.9,1v2.8h-2.2v-11.4h2.2v6.3l2.9-3.1h2.6l-3,3.1l3.4,5.1h-2.6L317.9,670.2z"/>
</g>
<g class="st5">
	<path class="st7" d="M371.6,44.2h4.5c3.1,0,5,2.5,5,5.8c0,1.9-0.6,3.5-1.8,4.5c-0.8,0.7-2,1.1-3.4,1.1h-4.3V44.2z M375.7,53.6
		c2.2,0,3-1.3,3-3.6c0-2.3-1-3.9-3-3.9h-1.9v7.5H375.7z"/>
	<path class="st7" d="M381.8,51.5c0-2.4,1.6-4.3,4-4.3c2.6,0,4,2,4,4.9h-6c0.2,1.3,0.9,2,2.1,2c0.8,0,1.3-0.4,1.6-1h2.1
		c-0.3,1.5-1.6,2.7-3.7,2.7C383.3,55.9,381.8,53.9,381.8,51.5z M383.9,50.6h3.6c-0.1-1-0.8-1.8-1.7-1.8
		C384.7,48.9,384.1,49.5,383.9,50.6z"/>
	<path class="st7" d="M390.2,47.4h1.1v-0.7c0-2,1.6-2.7,3.6-2.5v1.7c-1,0-1.5,0.1-1.5,0.9v0.6h1.5v1.5h-1.5v6.7h-2.2v-6.7h-1.1V47.4
		z"/>
	<path class="st7" d="M395.3,51.5c0-2.4,1.6-4.3,4-4.3c2.6,0,4,2,4,4.9h-6c0.2,1.3,0.9,2,2.1,2c0.8,0,1.3-0.4,1.6-1h2.1
		c-0.3,1.5-1.6,2.7-3.7,2.7C396.9,55.9,395.3,53.9,395.3,51.5z M397.5,50.6h3.6c-0.1-1-0.8-1.8-1.7-1.8
		C398.3,48.9,397.7,49.5,397.5,50.6z"/>
	<path class="st7" d="M406.6,48.5L406.6,48.5c0.6-0.9,1.4-1.3,2.5-1.3c1.7,0,2.8,1.3,2.8,3.1v5.4h-2.2v-5c0-0.9-0.5-1.5-1.4-1.5
		c-1,0-1.7,0.8-1.7,1.9v4.7h-2.2v-8.2h2.1V48.5z"/>
	<path class="st7" d="M412.7,53h2c0.1,0.9,0.8,1.4,1.8,1.4c1,0,1.5-0.4,1.5-0.9c0-0.8-1-0.9-2.2-1.1c-1.5-0.3-2.9-0.7-2.9-2.5
		c0-1.8,1.5-2.6,3.3-2.6c2.2,0,3.4,1.1,3.5,2.7h-2c-0.1-0.9-0.7-1.2-1.6-1.2c-0.8,0-1.4,0.3-1.4,0.9c0,0.7,1.1,0.8,2.3,1
		c1.4,0.3,2.9,0.7,2.9,2.6c0,1.6-1.4,2.6-3.5,2.6C414.2,55.9,412.8,54.7,412.7,53z"/>
	<path class="st7" d="M420.7,51.5c0-2.4,1.6-4.3,4-4.3c2.6,0,4,2,4,4.9h-6c0.2,1.3,0.9,2,2.1,2c0.8,0,1.3-0.4,1.6-1h2.1
		c-0.3,1.5-1.6,2.7-3.7,2.7C422.2,55.9,420.7,53.9,420.7,51.5z M422.8,50.6h3.6c-0.1-1-0.8-1.8-1.7-1.8
		C423.6,48.9,423,49.5,422.8,50.6z"/>
</g>
<g class="st5">
	<path class="st8" d="M574.6,238h2.4l4,11.4h-2.4l-0.8-2.4h-4.1l-0.8,2.4h-2.4L574.6,238z M574.3,245.2h3l-1-3.3
		c-0.2-0.6-0.5-1.8-0.5-1.8h0c0,0-0.3,1.2-0.5,1.8L574.3,245.2z"/>
	<path class="st8" d="M584.2,245.9h2.3c0.2,1.4,0.9,1.9,2.6,1.9c1.2,0,2.2-0.4,2.2-1.5c0-1.1-1.1-1.3-2.8-1.7c-2-0.5-3.9-1-3.9-3.4
		c0-2.3,1.8-3.4,4.4-3.4c2.6,0,4.2,1.3,4.4,3.6h-2.2c-0.1-1.2-1-1.7-2.2-1.7c-1.2,0-2.1,0.5-2.1,1.3c0,0.9,0.8,1.2,2.5,1.6
		c2.4,0.5,4.3,1.1,4.3,3.5c0,2.3-1.9,3.6-4.4,3.6C586,249.7,584.3,248.3,584.2,245.9z"/>
	<path class="st8" d="M594.8,238h2.2v2h-2.2V238z M594.8,241.2h2.2v8.2h-2.2V241.2z"/>
	<path class="st8" d="M597.9,241.2h1.1v-2.6h2.1v2.6h1.4v1.4h-1.4v4.4c0,0.6,0.3,0.8,0.8,0.8c0.3,0,0.6,0,0.6,0v1.6c0,0-0.5,0-1.4,0
		c-1.1,0-2.2-0.4-2.2-2v-4.8h-1.1V241.2z"/>
	<path class="st8" d="M603.2,245.3c0-2.4,1.6-4.3,4-4.3c2.6,0,4.1,2,4.1,4.9h-6c0.2,1.3,0.9,2,2.1,2c0.8,0,1.3-0.4,1.6-1h2.1
		c-0.3,1.5-1.6,2.7-3.7,2.7C604.8,249.6,603.2,247.7,603.2,245.3z M605.4,244.4h3.6c-0.1-1-0.8-1.8-1.7-1.8
		C606.2,242.6,605.6,243.3,605.4,244.4z"/>
</g>
<g class="st5">
	<path class="st8" d="M48.7,249c0-3.4,2.1-6,5.5-6c2.8,0,4.5,1.7,4.7,3.9h-2.3c-0.2-1.2-1.1-1.9-2.4-1.9c-2.1,0-3.1,1.8-3.1,4
		c0,2.3,1.2,4,3.1,4c1.4,0,2.3-0.8,2.5-2h2.3c-0.1,1-0.5,2-1.3,2.7c-0.8,0.7-1.9,1.2-3.5,1.2C51,254.9,48.7,252.4,48.7,249z"/>
	<path class="st8" d="M62.3,251.1h2.3c0.2,1.4,0.9,1.9,2.6,1.9c1.2,0,2.2-0.4,2.2-1.5c0-1.1-1.1-1.3-2.8-1.7c-2-0.5-3.9-1-3.9-3.4
		c0-2.3,1.8-3.4,4.4-3.4c2.6,0,4.2,1.3,4.4,3.6h-2.2c-0.1-1.2-1-1.7-2.2-1.7c-1.2,0-2.1,0.5-2.1,1.3c0,0.9,0.8,1.2,2.5,1.6
		c2.4,0.5,4.3,1.1,4.3,3.5c0,2.3-1.9,3.6-4.5,3.6C64.1,254.9,62.4,253.5,62.3,251.1z"/>
	<path class="st8" d="M72.9,243.2h2.2v2h-2.2V243.2z M72.9,246.4h2.2v8.2h-2.2V246.4z"/>
	<path class="st8" d="M76,246.4h1.1v-2.6h2.1v2.6h1.4v1.4h-1.4v4.4c0,0.6,0.3,0.8,0.8,0.8c0.3,0,0.6,0,0.6,0v1.6c0,0-0.5,0-1.4,0
		c-1.1,0-2.2-0.4-2.2-2v-4.8H76V246.4z"/>
	<path class="st8" d="M81.3,250.5c0-2.4,1.6-4.3,4-4.3c2.6,0,4,2,4,4.9h-6c0.2,1.3,0.9,2,2.1,2c0.8,0,1.3-0.4,1.6-1h2.1
		c-0.3,1.5-1.6,2.7-3.7,2.7C82.9,254.9,81.3,253,81.3,250.5z M83.5,249.7h3.6c-0.1-1-0.8-1.8-1.7-1.8
		C84.3,247.9,83.7,248.6,83.5,249.7z"/>
</g>
<g class="st5">
	<path class="st8" d="M305.2,267.4h5.1c1.2,0,2.2,0.3,2.8,0.8c0.6,0.6,0.9,1.2,0.9,2.1c0,1.2-0.7,1.9-1.8,2.3v0
		c1.3,0.4,2.1,1.4,2.1,2.8c0,1.1-0.3,1.8-1,2.4c-0.7,0.6-1.7,0.9-2.9,0.9h-5.3V267.4z M310.1,272c1,0,1.7-0.5,1.7-1.4
		c0-0.8-0.6-1.3-1.6-1.3h-2.6v2.7H310.1z M307.5,276.9h2.7c1.1,0,1.8-0.6,1.8-1.6c0-1.1-0.8-1.6-1.9-1.6h-2.6V276.9z"/>
	<path class="st8" d="M317.9,275.3h2.3c0.2,1.4,0.9,1.9,2.6,1.9c1.2,0,2.2-0.4,2.2-1.5c0-1.1-1.1-1.3-2.8-1.7c-2-0.5-3.9-1-3.9-3.4
		c0-2.3,1.8-3.4,4.4-3.4c2.6,0,4.2,1.3,4.4,3.6h-2.2c-0.1-1.2-1-1.7-2.2-1.7c-1.2,0-2.1,0.5-2.1,1.3c0,0.9,0.8,1.2,2.5,1.6
		c2.4,0.5,4.3,1.1,4.3,3.5c0,2.3-1.9,3.6-4.5,3.6C319.7,279.1,318,277.7,317.9,275.3z"/>
	<path class="st8" d="M328.5,267.4h2.2v2h-2.2V267.4z M328.5,270.6h2.2v8.2h-2.2V270.6z"/>
	<path class="st8" d="M331.6,270.6h1.1V268h2.1v2.6h1.4v1.4h-1.4v4.4c0,0.6,0.3,0.8,0.8,0.8c0.3,0,0.6,0,0.6,0v1.6c0,0-0.5,0-1.4,0
		c-1.1,0-2.2-0.4-2.2-2V272h-1.1V270.6z"/>
	<path class="st8" d="M336.9,274.7c0-2.4,1.6-4.3,4-4.3c2.6,0,4,2,4,4.9h-6c0.2,1.3,0.9,2,2.1,2c0.8,0,1.3-0.4,1.6-1h2.1
		c-0.3,1.5-1.6,2.7-3.7,2.7C338.4,279,336.9,277.1,336.9,274.7z M339.1,273.8h3.6c-0.1-1-0.8-1.8-1.7-1.8
		C339.8,272,339.3,272.7,339.1,273.8z"/>
</g>
<g class="st5">
	<path class="st9" d="M428,269.7h2.4l4,11.4H432l-0.8-2.4h-4.1l-0.8,2.4H424L428,269.7z M427.6,276.9h3l-1-3.3
		c-0.2-0.6-0.5-1.8-0.5-1.8h0c0,0-0.3,1.2-0.5,1.8L427.6,276.9z"/>
	<path class="st9" d="M438.1,269.7h2.3v9.5h5.4v1.9h-7.7V269.7z"/>
	<path class="st9" d="M446.9,269.7h2.2v2h-2.2V269.7z M446.9,272.9h2.2v8.2h-2.2V272.9z"/>
	<path class="st9" d="M452.6,274L452.6,274c0.6-0.9,1.4-1.3,2.5-1.3c1.7,0,2.8,1.3,2.8,3.1v5.4h-2.2v-5c0-0.9-0.5-1.5-1.4-1.5
		c-1,0-1.7,0.8-1.7,1.9v4.7h-2.2v-8.2h2.1V274z"/>
	<path class="st9" d="M462.4,277.4l-0.9,1v2.8h-2.2v-11.4h2.2v6.3l2.9-3.1h2.6l-3,3.1l3.4,5.1h-2.6L462.4,277.4z"/>
</g>
<g class="st5">
	<path class="st9" d="M194.7,253.1c0-3.4,2.1-6,5.5-6c2.8,0,4.5,1.7,4.7,3.9h-2.3c-0.2-1.2-1.1-1.9-2.4-1.9c-2.1,0-3.1,1.8-3.1,4
		c0,2.3,1.2,4,3.1,4c1.4,0,2.3-0.8,2.5-2h2.3c-0.1,1-0.5,2-1.3,2.7c-0.8,0.7-1.9,1.2-3.5,1.2C197,259,194.7,256.6,194.7,253.1z"/>
	<path class="st9" d="M208.8,247.4h2.3v9.5h5.4v1.9h-7.7V247.4z"/>
	<path class="st9" d="M217.7,247.4h2.2v2h-2.2V247.4z M217.7,250.6h2.2v8.2h-2.2V250.6z"/>
	<path class="st9" d="M223.4,251.7L223.4,251.7c0.6-0.9,1.4-1.3,2.5-1.3c1.7,0,2.8,1.3,2.8,3.1v5.4h-2.2v-5c0-0.9-0.5-1.5-1.4-1.5
		c-1,0-1.7,0.8-1.7,1.9v4.7h-2.2v-8.2h2.1V251.7z"/>
	<path class="st9" d="M233.1,255.1l-0.9,1v2.8H230v-11.4h2.2v6.3l2.9-3.1h2.6l-3,3.1l3.4,5.1h-2.6L233.1,255.1z"/>
</g>
<g class="st5">
	<path class="st9" d="M182.7,293.1c0-3.4,2.1-6,5.5-6c2.8,0,4.5,1.7,4.7,3.9h-2.3c-0.2-1.2-1.1-1.9-2.4-1.9c-2.1,0-3.1,1.8-3.1,4
		c0,2.3,1.2,4,3.1,4c1.4,0,2.3-0.8,2.5-2h2.3c-0.1,1-0.5,2-1.3,2.7c-0.8,0.7-1.9,1.2-3.5,1.2C185,299,182.7,296.6,182.7,293.1z"/>
	<path class="st9" d="M196,287.4h2.4l1.5,5.7c0.2,1,0.5,2.5,0.5,2.5h0c0,0,0.3-1.4,0.5-2.4l1.2-5.7h2.2l1.2,5.7
		c0.2,1,0.5,2.4,0.5,2.4h0c0,0,0.3-1.5,0.6-2.5l1.4-5.7h2.3l-3.3,11.4h-2.2l-1.4-6.1c-0.2-0.8-0.4-2-0.4-2h0c0,0-0.2,1.2-0.4,2
		l-1.4,6.1h-2.1L196,287.4z"/>
	<path class="st9" d="M211.3,287.4h2.2v2h-2.2V287.4z M211.3,290.6h2.2v8.2h-2.2V290.6z"/>
	<path class="st9" d="M217,291.7L217,291.7c0.6-0.9,1.4-1.3,2.5-1.3c1.7,0,2.8,1.3,2.8,3.1v5.4h-2.2v-5c0-0.9-0.5-1.5-1.4-1.5
		c-1,0-1.7,0.8-1.7,1.9v4.7h-2.2v-8.2h2.1V291.7z"/>
	<path class="st9" d="M223.3,294.7c0-2.6,1.5-4.3,3.5-4.3c1.2,0,1.9,0.5,2.3,1.2h0v-4.2h2.2v11.4h-2.1v-1.1h0
		c-0.5,0.8-1.3,1.3-2.4,1.3C224.7,299,223.3,297.4,223.3,294.7z M229.2,294.8c0-1.6-0.5-2.6-1.9-2.6c-1.2,0-1.8,1.1-1.8,2.6
		c0,1.6,0.6,2.5,1.7,2.5C228.5,297.2,229.2,296.3,229.2,294.8z"/>
	<path class="st9" d="M232.3,294.7c0-2.4,1.7-4.3,4.3-4.3s4.3,1.9,4.3,4.3s-1.7,4.3-4.3,4.3S232.3,297.2,232.3,294.7z M238.7,294.7
		c0-1.6-0.8-2.7-2.1-2.7c-1.3,0-2.1,1.1-2.1,2.7s0.7,2.7,2.1,2.7C237.9,297.4,238.7,296.3,238.7,294.7z"/>
	<path class="st9" d="M241,290.6h2.2l1,3.8c0.2,0.7,0.4,1.5,0.4,1.5h0c0,0,0.2-0.9,0.4-1.6l1-3.8h1.9l1.1,3.8
		c0.2,0.7,0.4,1.6,0.4,1.6h0c0,0,0.2-0.9,0.4-1.5l1-3.8h2.1l-2.4,8.2h-2l-1.1-4c-0.2-0.7-0.4-1.4-0.4-1.4h0c0,0-0.2,0.8-0.4,1.4
		l-1.1,4h-2L241,290.6z"/>
</g>
<g class="st5">
	<path class="st9" d="M206.5,356.2L206.5,356.2c-0.8,1.3-1.9,1.8-3.2,1.8c-1.7,0-3.1-0.6-4-1.7c-0.9-1.1-1.5-2.5-1.5-4.3
		c0-1.9,0.7-3.6,1.9-4.7c0.9-0.8,2.1-1.3,3.7-1.3c2.9,0,4.5,1.6,4.9,3.8h-2.3c-0.3-1.1-1.1-1.9-2.6-1.9c-2.2,0-3.2,1.8-3.2,4.1
		c0,2.3,1.2,4,3.2,4c1.8,0,2.9-1.3,2.9-2.6v-0.1h-2.8v-1.8h4.8v6.1h-1.7L206.5,356.2z"/>
	<path class="st9" d="M214.7,356.8L214.7,356.8c-0.4,0.6-1,1.1-2.4,1.1c-1.7,0-2.9-0.9-2.9-2.5c0-1.8,1.5-2.4,3.3-2.6
		c1.4-0.2,2-0.3,2-0.9c0-0.6-0.5-1-1.4-1c-1,0-1.5,0.4-1.6,1.2h-1.9c0.1-1.4,1.1-2.7,3.5-2.7c2.5,0,3.5,1.1,3.5,3v4.2
		c0,0.6,0.1,1,0.3,1.1v0.1h-2.1C214.8,357.5,214.7,357.2,214.7,356.8z M214.7,354.8v-1.2c-0.4,0.2-1,0.4-1.5,0.5
		c-1.1,0.3-1.7,0.5-1.7,1.3s0.5,1,1.3,1C214,356.4,214.7,355.6,214.7,354.8z"/>
	<path class="st9" d="M220.2,350.8L220.2,350.8c0.5-0.9,1.1-1.4,2.1-1.4c0.2,0,0.4,0,0.5,0.1v1.9h0c-1.4-0.1-2.4,0.6-2.4,2.3v4h-2.2
		v-8.2h2.1V350.8z"/>
	<path class="st9" d="M228.4,356.8L228.4,356.8c-0.4,0.6-1,1.1-2.4,1.1c-1.7,0-2.9-0.9-2.9-2.5c0-1.8,1.5-2.4,3.3-2.6
		c1.4-0.2,2-0.3,2-0.9c0-0.6-0.5-1-1.4-1c-1,0-1.5,0.4-1.6,1.2h-1.9c0.1-1.4,1.1-2.7,3.5-2.7c2.5,0,3.5,1.1,3.5,3v4.2
		c0,0.6,0.1,1,0.3,1.1v0.1h-2.1C228.5,357.5,228.4,357.2,228.4,356.8z M228.4,354.8v-1.2c-0.4,0.2-1,0.4-1.5,0.5
		c-1.1,0.3-1.7,0.5-1.7,1.3s0.5,1,1.3,1C227.7,356.4,228.4,355.6,228.4,354.8z"/>
	<path class="st9" d="M231.6,357.9h2.2c0.2,0.5,0.6,0.9,1.6,0.9c1.2,0,1.8-0.6,1.8-1.7v-0.9h0c-0.5,0.5-1.1,1-2.1,1
		c-1.8,0-3.6-1.4-3.6-3.9c0-2.4,1.5-4,3.6-4c1,0,1.8,0.4,2.3,1.1h0v-0.9h2.1v7.6c0,1.2-0.4,1.9-1,2.5c-0.7,0.6-1.7,0.9-3,0.9
		C233.2,360.5,231.8,359.5,231.6,357.9z M237.4,353.2c0-1.2-0.6-2.2-2-2.2c-1.1,0-1.8,0.9-1.8,2.2c0,1.4,0.7,2.2,1.9,2.2
		C236.8,355.5,237.4,354.5,237.4,353.2z"/>
	<path class="st9" d="M240.4,353.6c0-2.4,1.6-4.3,4-4.3c2.6,0,4,2,4,4.9h-6c0.2,1.3,0.9,2,2.1,2c0.8,0,1.3-0.4,1.6-1h2.1
		c-0.3,1.5-1.6,2.7-3.7,2.7C241.9,357.9,240.4,356,240.4,353.6z M242.6,352.7h3.6c-0.1-1-0.8-1.8-1.7-1.8
		C243.3,350.9,242.8,351.6,242.6,352.7z"/>
</g>
<g class="st5">
	<path class="st9" d="M133.5,269.7h2.3v9.5h5.4v1.9h-7.7V269.7z"/>
	<path class="st9" d="M141.7,277c0-2.4,1.7-4.3,4.3-4.3s4.3,1.9,4.3,4.3s-1.7,4.3-4.3,4.3S141.7,279.5,141.7,277z M148.1,277
		c0-1.6-0.8-2.7-2.1-2.7c-1.3,0-2.1,1.1-2.1,2.7s0.7,2.7,2.1,2.7C147.3,279.7,148.1,278.6,148.1,277z"/>
	<path class="st9" d="M151,281.3h2.2c0.2,0.5,0.6,0.9,1.6,0.9c1.2,0,1.8-0.6,1.8-1.7v-0.9h0c-0.5,0.5-1.1,1-2.1,1
		c-1.8,0-3.6-1.4-3.6-3.9c0-2.4,1.5-4,3.6-4c1,0,1.8,0.4,2.3,1.1h0v-0.9h2.1v7.6c0,1.2-0.4,1.9-1,2.5c-0.7,0.6-1.7,0.9-3,0.9
		C152.6,283.9,151.3,282.9,151,281.3z M156.8,276.6c0-1.2-0.6-2.2-2-2.2c-1.1,0-1.8,0.9-1.8,2.2c0,1.4,0.7,2.2,1.9,2.2
		C156.2,278.9,156.8,277.9,156.8,276.6z"/>
	<path class="st9" d="M159.7,278.4h2c0.1,0.9,0.8,1.4,1.8,1.4c1,0,1.5-0.4,1.5-0.9c0-0.8-1-0.9-2.2-1.1c-1.5-0.3-2.9-0.7-2.9-2.5
		c0-1.8,1.5-2.6,3.3-2.6c2.2,0,3.4,1.1,3.5,2.7h-2c-0.1-0.9-0.7-1.2-1.6-1.2c-0.8,0-1.4,0.3-1.4,0.9c0,0.7,1.1,0.8,2.3,1
		c1.4,0.3,2.9,0.7,2.9,2.6c0,1.6-1.4,2.6-3.5,2.6C161.2,281.3,159.8,280.2,159.7,278.4z"/>
</g>
<g class="st5">
	<path class="st9" d="M4.3,269.7h5c1.3,0,2.3,0.4,3,1.1c0.6,0.7,1,1.6,1,2.6c0,2.2-1.4,3.6-3.8,3.6H6.7v4.1H4.3V269.7z M6.7,275.1
		h2.4c1.2,0,1.9-0.7,1.9-1.7c0-1.1-0.7-1.7-1.8-1.7H6.7V275.1z"/>
	<path class="st9" d="M14.4,269.7h2.2v11.4h-2.2V269.7z"/>
	<path class="st9" d="M22.9,280.2L22.9,280.2c-0.4,0.6-1,1.1-2.4,1.1c-1.7,0-2.9-0.9-2.9-2.5c0-1.8,1.5-2.4,3.3-2.6
		c1.4-0.2,2-0.3,2-0.9c0-0.6-0.5-1-1.4-1c-1,0-1.5,0.4-1.6,1.2H18c0.1-1.4,1.1-2.7,3.5-2.7c2.5,0,3.5,1.1,3.5,3v4.2
		c0,0.6,0.1,1,0.3,1.1v0.1h-2.1C23,280.9,23,280.6,22.9,280.2z M22.9,278.2V277c-0.4,0.2-1,0.4-1.5,0.5c-1.1,0.3-1.7,0.5-1.7,1.3
		s0.5,1,1.3,1C22.2,279.8,22.9,279,22.9,278.2z"/>
	<path class="st9" d="M25.7,272.9h1.1v-2.6H29v2.6h1.4v1.4H29v4.4c0,0.6,0.3,0.8,0.8,0.8c0.3,0,0.6,0,0.6,0v1.6c0,0-0.5,0-1.4,0
		c-1.1,0-2.2-0.4-2.2-2v-4.8h-1.1V272.9z"/>
</g>
<g class="st5">
	<path class="st9" d="M300.1,194.4h5.1c1.2,0,2.2,0.3,2.8,0.8c0.6,0.6,0.9,1.2,0.9,2.1c0,1.2-0.7,1.9-1.8,2.3v0
		c1.3,0.4,2.1,1.4,2.1,2.8c0,1.1-0.3,1.8-1,2.4c-0.7,0.6-1.7,0.9-2.9,0.9h-5.3V194.4z M304.9,199c1,0,1.7-0.5,1.7-1.4
		c0-0.8-0.6-1.3-1.6-1.3h-2.6v2.7H304.9z M302.4,203.9h2.7c1.1,0,1.8-0.6,1.8-1.6c0-1.1-0.8-1.6-1.9-1.6h-2.6V203.9z"/>
	<path class="st9" d="M315.3,204.9L315.3,204.9c-0.4,0.6-1,1.1-2.4,1.1c-1.7,0-2.9-0.9-2.9-2.5c0-1.8,1.5-2.4,3.3-2.6
		c1.4-0.2,2-0.3,2-0.9c0-0.6-0.5-1-1.4-1c-1,0-1.5,0.4-1.6,1.2h-1.9c0.1-1.4,1.1-2.7,3.5-2.7c2.5,0,3.5,1.1,3.5,3v4.2
		c0,0.6,0.1,1,0.3,1.1v0.1h-2.1C315.4,205.7,315.4,205.3,315.3,204.9z M315.3,202.9v-1.2c-0.4,0.2-1,0.4-1.5,0.5
		c-1.1,0.3-1.7,0.5-1.7,1.3s0.5,1,1.3,1C314.6,204.5,315.3,203.7,315.3,202.9z"/>
	<path class="st9" d="M318.4,201.7c0-2.4,1.6-4.3,4.1-4.3c2.1,0,3.4,1.2,3.7,3H324c-0.1-0.7-0.7-1.3-1.5-1.3c-1.3,0-2,1-2,2.6
		c0,1.6,0.6,2.6,2,2.6c0.9,0,1.5-0.5,1.6-1.4h2.1c-0.1,1.7-1.5,3.1-3.7,3.1C320,206.1,318.4,204.2,318.4,201.7z"/>
	<path class="st9" d="M330.3,202.1l-0.9,1v2.8h-2.2v-11.4h2.2v6.3l2.9-3.1h2.6l-3,3.1l3.4,5.1h-2.6L330.3,202.1z"/>
	<path class="st9" d="M338.8,194.4h5.1c1.2,0,2.2,0.3,2.8,0.8c0.6,0.6,0.9,1.2,0.9,2.1c0,1.2-0.7,1.9-1.8,2.3v0
		c1.3,0.4,2.1,1.4,2.1,2.8c0,1.1-0.3,1.8-1,2.4c-0.7,0.6-1.7,0.9-2.9,0.9h-5.3V194.4z M343.6,199c1,0,1.7-0.5,1.7-1.4
		c0-0.8-0.6-1.3-1.6-1.3h-2.6v2.7H343.6z M341.1,203.9h2.7c1.1,0,1.8-0.6,1.8-1.6c0-1.1-0.8-1.6-1.9-1.6h-2.6V203.9z"/>
</g>
<g class="st5">
	<path class="st9" d="M289.1,347.1h5.1c1.2,0,2.2,0.3,2.8,0.8c0.6,0.6,0.9,1.2,0.9,2.1c0,1.2-0.7,1.9-1.8,2.3v0
		c1.3,0.4,2.1,1.4,2.1,2.8c0,1.1-0.3,1.8-1,2.4c-0.7,0.6-1.7,0.9-2.9,0.9h-5.3V347.1z M293.9,351.7c1,0,1.7-0.5,1.7-1.4
		c0-0.8-0.6-1.3-1.6-1.3h-2.6v2.7H293.9z M291.4,356.6h2.7c1.1,0,1.8-0.6,1.8-1.6c0-1.1-0.8-1.6-1.9-1.6h-2.6V356.6z"/>
	<path class="st9" d="M302.3,347.1h4.5c3.1,0,5,2.5,5,5.8c0,1.9-0.6,3.5-1.8,4.5c-0.8,0.7-2,1.1-3.4,1.1h-4.3V347.1z M306.4,356.5
		c2.2,0,3-1.3,3-3.6c0-2.3-1-3.9-3-3.9h-1.9v7.5H306.4z"/>
	<path class="st9" d="M312.4,354.5c0-2.4,1.7-4.3,4.3-4.3s4.3,1.9,4.3,4.3s-1.7,4.3-4.3,4.3S312.4,356.9,312.4,354.5z M318.8,354.5
		c0-1.6-0.8-2.7-2.1-2.7c-1.3,0-2.1,1.1-2.1,2.7s0.7,2.7,2.1,2.7C318.1,357.1,318.8,356.1,318.8,354.5z"/>
	<path class="st9" d="M321.6,354.5c0-2.4,1.7-4.3,4.3-4.3s4.3,1.9,4.3,4.3s-1.7,4.3-4.3,4.3S321.6,356.9,321.6,354.5z M328,354.5
		c0-1.6-0.8-2.7-2.1-2.7c-1.3,0-2.1,1.1-2.1,2.7s0.7,2.7,2.1,2.7C327.2,357.1,328,356.1,328,354.5z"/>
	<path class="st9" d="M333.3,351.7L333.3,351.7c0.5-0.9,1.1-1.4,2.1-1.4c0.2,0,0.4,0,0.5,0.1v1.9h0c-1.4-0.1-2.4,0.6-2.4,2.3v4h-2.2
		v-8.2h2.1V351.7z"/>
	<path class="st9" d="M336.3,355.9h2c0.1,0.9,0.8,1.4,1.8,1.4c1,0,1.5-0.4,1.5-0.9c0-0.8-1-0.9-2.2-1.1c-1.5-0.3-2.9-0.7-2.9-2.5
		c0-1.8,1.5-2.6,3.3-2.6c2.2,0,3.4,1.1,3.5,2.7h-2c-0.1-0.9-0.7-1.2-1.6-1.2c-0.8,0-1.4,0.3-1.4,0.9c0,0.7,1.1,0.8,2.3,1
		c1.4,0.3,2.9,0.7,2.9,2.6c0,1.6-1.4,2.6-3.5,2.6C337.8,358.8,336.4,357.6,336.3,355.9z"/>
</g>
<g class="st5">
	<path class="st9" d="M278.2,441.2h3.3l1.6,5.7c0.4,1.4,0.7,3.1,0.7,3.1h0c0,0,0.3-1.6,0.7-3.1l1.6-5.7h3.3v11.4h-2.2v-6.6
		c0-0.9,0.1-2.4,0.1-2.4h0c0,0-0.3,1.3-0.5,2.2l-2,6.8h-2.2l-1.9-6.8c-0.2-0.8-0.5-2.2-0.5-2.2h0c0,0,0.1,1.4,0.1,2.4v6.6h-2.1
		V441.2z"/>
	<path class="st9" d="M291.1,441.2h2.2v2h-2.2V441.2z M291.1,444.4h2.2v8.2h-2.2V444.4z"/>
	<path class="st9" d="M294.3,448.6c0-2.6,1.5-4.3,3.5-4.3c1.2,0,1.9,0.5,2.3,1.2h0v-4.2h2.2v11.4h-2.1v-1.1h0
		c-0.5,0.8-1.3,1.3-2.4,1.3C295.7,452.9,294.3,451.2,294.3,448.6z M300.2,448.6c0-1.6-0.5-2.6-1.9-2.6c-1.2,0-1.8,1.1-1.8,2.6
		c0,1.6,0.6,2.5,1.7,2.5C299.5,451.1,300.2,450.1,300.2,448.6z"/>
</g>
<g class="st5">
	<path class="st9" d="M38.4,403.1c0-3.4,2.1-6,5.5-6c2.8,0,4.5,1.7,4.7,3.9h-2.3c-0.2-1.2-1.1-1.9-2.4-1.9c-2.1,0-3.1,1.8-3.1,4
		c0,2.3,1.2,4,3.1,4c1.4,0,2.3-0.8,2.5-2h2.3c-0.1,1-0.5,2-1.3,2.7c-0.8,0.7-1.9,1.2-3.5,1.2C40.7,409,38.4,406.6,38.4,403.1z"/>
	<path class="st9" d="M52.6,397.4h2.3v9.5h5.4v1.9h-7.7V397.4z"/>
	<path class="st9" d="M60.8,404.7c0-2.4,1.7-4.3,4.3-4.3s4.3,1.9,4.3,4.3s-1.7,4.3-4.3,4.3S60.8,407.2,60.8,404.7z M67.1,404.7
		c0-1.6-0.8-2.7-2.1-2.7c-1.3,0-2.1,1.1-2.1,2.7s0.7,2.7,2.1,2.7C66.4,407.4,67.1,406.3,67.1,404.7z"/>
	<path class="st9" d="M72.5,401.7L72.5,401.7c0.6-0.9,1.4-1.3,2.5-1.3c1.7,0,2.8,1.3,2.8,3.1v5.4h-2.2v-5c0-0.9-0.5-1.5-1.4-1.5
		c-1,0-1.7,0.8-1.7,1.9v4.7h-2.2v-8.2h2.1V401.7z"/>
	<path class="st9" d="M78.9,409h2.2c0.2,0.5,0.6,0.9,1.6,0.9c1.2,0,1.8-0.6,1.8-1.7v-0.9h0c-0.5,0.5-1.1,1-2.1,1
		c-1.8,0-3.6-1.4-3.6-3.9c0-2.4,1.5-4,3.6-4c1,0,1.8,0.4,2.3,1.1h0v-0.9h2.1v7.6c0,1.2-0.4,1.9-1,2.5c-0.7,0.6-1.7,0.9-3,0.9
		C80.5,411.6,79.1,410.6,78.9,409z M84.7,404.3c0-1.2-0.6-2.2-2-2.2c-1.1,0-1.8,0.9-1.8,2.2c0,1.4,0.7,2.2,1.9,2.2
		C84.1,406.6,84.7,405.6,84.7,404.3z"/>
</g>
<g class="st5">
	<path class="st9" d="M381.1,552.3L381.1,552.3c-0.8,1.3-1.9,1.8-3.2,1.8c-1.7,0-3.1-0.6-4-1.7c-0.9-1.1-1.5-2.5-1.5-4.3
		c0-1.9,0.7-3.6,1.9-4.7c0.9-0.8,2.1-1.3,3.7-1.3c2.9,0,4.5,1.6,4.9,3.8h-2.3c-0.3-1.1-1.1-1.9-2.6-1.9c-2.2,0-3.2,1.8-3.2,4.1
		c0,2.3,1.2,4,3.2,4c1.8,0,2.9-1.3,2.9-2.6v-0.1h-2.8v-1.8h4.8v6.1h-1.7L381.1,552.3z"/>
	<path class="st9" d="M389.2,552.9L389.2,552.9c-0.4,0.6-1,1.1-2.4,1.1c-1.7,0-2.9-0.9-2.9-2.5c0-1.8,1.5-2.4,3.3-2.6
		c1.4-0.2,2-0.3,2-0.9c0-0.6-0.5-1-1.4-1c-1,0-1.5,0.4-1.6,1.2h-1.9c0.1-1.4,1.1-2.7,3.5-2.7c2.5,0,3.5,1.1,3.5,3v4.2
		c0,0.6,0.1,1,0.3,1.1v0.1h-2.1C389.4,553.6,389.3,553.3,389.2,552.9z M389.3,550.9v-1.2c-0.4,0.2-1,0.4-1.5,0.5
		c-1.1,0.3-1.7,0.5-1.7,1.3s0.5,1,1.3,1C388.6,552.5,389.3,551.7,389.3,550.9z"/>
	<path class="st9" d="M394.8,546.9L394.8,546.9c0.5-0.9,1.1-1.4,2.1-1.4c0.2,0,0.4,0,0.5,0.1v1.9h0c-1.4-0.1-2.4,0.6-2.4,2.3v4h-2.2
		v-8.2h2.1V546.9z"/>
	<path class="st9" d="M397.6,549.7c0-2.6,1.5-4.3,3.5-4.3c1.2,0,1.9,0.5,2.3,1.2h0v-4.2h2.2v11.4h-2.1v-1.1h0
		c-0.5,0.8-1.3,1.3-2.4,1.3C399.1,554,397.6,552.4,397.6,549.7z M403.6,549.8c0-1.6-0.5-2.6-1.9-2.6c-1.2,0-1.8,1.1-1.8,2.6
		c0,1.6,0.6,2.5,1.7,2.5C402.9,552.2,403.6,551.3,403.6,549.8z"/>
	<path class="st9" d="M406.7,549.7c0-2.4,1.6-4.3,4-4.3c2.6,0,4,2,4,4.9h-6c0.2,1.3,0.9,2,2.1,2c0.8,0,1.3-0.4,1.6-1h2.1
		c-0.3,1.5-1.6,2.7-3.7,2.7C408.2,554,406.7,552.1,406.7,549.7z M408.9,548.8h3.6c-0.1-1-0.8-1.8-1.7-1.8
		C409.6,547,409.1,547.7,408.9,548.8z"/>
	<path class="st9" d="M417.9,546.7L417.9,546.7c0.6-0.9,1.4-1.3,2.5-1.3c1.7,0,2.8,1.3,2.8,3.1v5.4h-2.2v-5c0-0.9-0.5-1.5-1.4-1.5
		c-1,0-1.7,0.8-1.7,1.9v4.7h-2.2v-8.2h2.1V546.7z"/>
</g>
<g class="st5">
	<path class="st9" d="M529.1,403.2h2.4l4,11.4h-2.4l-0.8-2.4h-4.1l-0.8,2.4h-2.4L529.1,403.2z M528.8,410.4h3l-1-3.3
		c-0.2-0.6-0.5-1.8-0.5-1.8h0c0,0-0.3,1.2-0.5,1.8L528.8,410.4z"/>
	<path class="st9" d="M539.2,403.2h2.3v9.5h5.4v1.9h-7.7V403.2z"/>
	<path class="st9" d="M547.4,410.5c0-2.4,1.7-4.3,4.3-4.3s4.3,1.9,4.3,4.3s-1.7,4.3-4.3,4.3S547.4,413,547.4,410.5z M553.8,410.5
		c0-1.6-0.8-2.7-2.1-2.7c-1.3,0-2.1,1.1-2.1,2.7s0.7,2.7,2.1,2.7C553,413.2,553.8,412.1,553.8,410.5z"/>
	<path class="st9" d="M559.1,407.5L559.1,407.5c0.6-0.9,1.4-1.3,2.5-1.3c1.7,0,2.8,1.3,2.8,3.1v5.4h-2.2v-5c0-0.9-0.5-1.5-1.4-1.5
		c-1,0-1.7,0.8-1.7,1.9v4.7H557v-8.2h2.1V407.5z"/>
	<path class="st9" d="M565.6,414.8h2.2c0.2,0.5,0.6,0.9,1.6,0.9c1.2,0,1.8-0.6,1.8-1.7v-0.9h0c-0.5,0.5-1.1,1-2.1,1
		c-1.8,0-3.6-1.4-3.6-3.9c0-2.4,1.5-4,3.6-4c1,0,1.8,0.4,2.3,1.1h0v-0.9h2.1v7.6c0,1.2-0.4,1.9-1,2.5c-0.7,0.6-1.7,0.9-3,0.9
		C567.2,417.4,565.8,416.4,565.6,414.8z M571.3,410.1c0-1.2-0.6-2.2-2-2.2c-1.1,0-1.8,0.9-1.8,2.2c0,1.4,0.7,2.2,1.9,2.2
		C570.7,412.4,571.3,411.4,571.3,410.1z"/>
</g>
<g class="st5">
	<path class="st9" d="M388.2,436.6h2.4l4,11.4h-2.4l-0.8-2.4h-4.1l-0.8,2.4h-2.4L388.2,436.6z M387.9,443.8h3l-1-3.3
		c-0.2-0.6-0.5-1.8-0.5-1.8h0c0,0-0.3,1.2-0.5,1.8L387.9,443.8z"/>
	<path class="st9" d="M398.3,436.6h2.3v9.5h5.4v1.9h-7.7V436.6z"/>
	<path class="st9" d="M406.5,443.9c0-2.4,1.7-4.3,4.3-4.3s4.3,1.9,4.3,4.3s-1.7,4.3-4.3,4.3S406.5,446.4,406.5,443.9z M412.9,443.9
		c0-1.6-0.8-2.7-2.1-2.7c-1.3,0-2.1,1.1-2.1,2.7s0.7,2.7,2.1,2.7C412.1,446.6,412.9,445.5,412.9,443.9z"/>
	<path class="st9" d="M418.2,447L418.2,447l0,1h-2.1v-11.4h2.2v4.2h0c0.4-0.7,1.2-1.2,2.3-1.2c2.1,0,3.5,1.8,3.5,4.3
		c0,2.7-1.4,4.3-3.5,4.3C419.5,448.2,418.7,447.7,418.2,447z M421.9,443.9c0-1.5-0.6-2.6-1.8-2.6c-1.4,0-1.9,1.1-1.9,2.6
		c0,1.5,0.8,2.5,2,2.5C421.3,446.4,421.9,445.5,421.9,443.9z"/>
	<path class="st9" d="M427.3,447L427.3,447l0,1h-2.1v-11.4h2.2v4.2h0c0.4-0.7,1.2-1.2,2.3-1.2c2.1,0,3.5,1.8,3.5,4.3
		c0,2.7-1.4,4.3-3.5,4.3C428.6,448.2,427.8,447.7,427.3,447z M431,443.9c0-1.5-0.6-2.6-1.8-2.6c-1.4,0-1.9,1.1-1.9,2.6
		c0,1.5,0.8,2.5,2,2.5C430.4,446.4,431,445.5,431,443.9z"/>
	<path class="st9" d="M434.1,449h0.8c0.9,0,1.2-0.4,1.2-1.1c0-0.4-0.2-1-0.6-2.2l-2.2-5.8h2.3l1.2,3.7c0.3,0.8,0.5,1.8,0.5,1.8h0
		c0,0,0.2-1,0.5-1.8l1.2-3.7h2.2l-2.9,8.4c-0.6,1.8-1.2,2.5-2.9,2.5h-1.3V449z"/>
</g>
<g class="st5">
	<path class="st9" d="M589.6,349.1h2.4l4,11.4h-2.4l-0.8-2.4h-4.1l-0.8,2.4h-2.4L589.6,349.1z M589.3,356.3h3l-1-3.3
		c-0.2-0.6-0.5-1.8-0.5-1.8h0c0,0-0.3,1.2-0.5,1.8L589.3,356.3z"/>
	<path class="st9" d="M599.7,349.1h5.3c2.2,0,3.7,1.3,3.7,3.2c0,1.3-0.6,2.4-2.1,2.8v0c1.1,0.3,1.6,0.9,1.7,2.3
		c0.2,1.6,0.1,2.8,0.5,3v0.1h-2.2c-0.3-0.1-0.3-1.4-0.4-2.6c-0.1-1.2-0.8-2-2.2-2H602v4.6h-2.3V349.1z M602,354.1h2.5
		c1.3,0,1.9-0.7,1.9-1.6c0-0.9-0.6-1.6-1.8-1.6H602V354.1z"/>
	<path class="st9" d="M614.8,359.6L614.8,359.6c-0.4,0.6-1,1.1-2.4,1.1c-1.7,0-2.9-0.9-2.9-2.5c0-1.8,1.5-2.4,3.3-2.6
		c1.4-0.2,2-0.3,2-0.9c0-0.6-0.5-1-1.4-1c-1,0-1.5,0.4-1.6,1.2h-1.9c0.1-1.4,1.1-2.7,3.5-2.7c2.5,0,3.5,1.1,3.5,3v4.2
		c0,0.6,0.1,1,0.3,1.1v0.1h-2.1C615,360.3,614.9,360,614.8,359.6z M614.9,357.6v-1.2c-0.4,0.2-1,0.4-1.5,0.5
		c-1.1,0.3-1.7,0.5-1.7,1.3s0.5,1,1.3,1C614.2,359.2,614.9,358.4,614.9,357.6z"/>
	<path class="st9" d="M618.3,352.3h2.1v1.1h0c0.4-0.8,1.2-1.3,2.4-1.3c1,0,1.9,0.6,2.3,1.4h0c0.6-0.9,1.4-1.4,2.5-1.4
		c1.7,0,2.7,1.1,2.7,2.9v5.5h-2.2v-5.2c0-0.9-0.5-1.4-1.3-1.4c-0.9,0-1.5,0.7-1.5,1.8v4.8h-2.2v-5.2c0-0.9-0.5-1.4-1.3-1.4
		c-0.9,0-1.5,0.7-1.5,1.8v4.8h-2.2V352.3z"/>
	<path class="st9" d="M631.6,352.3h2.1v1h0c0.5-0.7,1.3-1.2,2.4-1.2c2.2,0,3.6,1.8,3.6,4.3c0,2.7-1.4,4.3-3.6,4.3
		c-1.2,0-1.9-0.5-2.4-1.2h0v3.6h-2.2V352.3z M637.5,356.5c0-1.6-0.5-2.6-1.9-2.6c-1.4,0-1.9,1.2-1.9,2.6c0,1.5,0.7,2.5,2,2.5
		C636.8,358.9,637.5,358,637.5,356.5z"/>
</g>
<g class="st5">
	<path class="st9" d="M462.9,334.3h2.4l4,11.4h-2.4l-0.8-2.4H462l-0.8,2.4h-2.4L462.9,334.3z M462.5,341.5h3l-1-3.3
		c-0.2-0.6-0.5-1.8-0.5-1.8h0c0,0-0.3,1.2-0.5,1.8L462.5,341.5z"/>
	<path class="st9" d="M472.4,342.2h2.3c0.2,1.4,0.9,1.9,2.6,1.9c1.2,0,2.2-0.4,2.2-1.5c0-1.1-1.1-1.3-2.8-1.7c-2-0.5-3.9-1-3.9-3.4
		c0-2.3,1.8-3.4,4.4-3.4c2.6,0,4.2,1.3,4.4,3.6h-2.2c-0.1-1.2-1-1.7-2.2-1.7c-1.2,0-2.1,0.5-2.1,1.3c0,0.9,0.8,1.2,2.5,1.6
		c2.4,0.5,4.3,1.1,4.3,3.5c0,2.3-1.9,3.6-4.5,3.6C474.3,346,472.5,344.6,472.4,342.2z"/>
	<path class="st9" d="M485.2,338.6L485.2,338.6c0.6-0.9,1.3-1.3,2.4-1.3c1.7,0,2.8,1.3,2.8,3.1v5.4h-2.2v-5c0-0.9-0.5-1.5-1.4-1.5
		c-1,0-1.7,0.8-1.7,1.9v4.7H483v-11.4h2.2V338.6z"/>
	<path class="st9" d="M491.4,341.7c0-2.4,1.7-4.3,4.3-4.3s4.3,1.9,4.3,4.3s-1.7,4.3-4.3,4.3S491.4,344.1,491.4,341.7z M497.8,341.7
		c0-1.6-0.8-2.7-2.1-2.7c-1.3,0-2.1,1.1-2.1,2.7s0.7,2.7,2.1,2.7C497,344.3,497.8,343.3,497.8,341.7z"/>
	<path class="st9" d="M503.1,338.9L503.1,338.9c0.5-0.9,1.1-1.4,2.1-1.4c0.2,0,0.4,0,0.5,0.1v1.9h0c-1.4-0.1-2.4,0.6-2.4,2.3v4H501
		v-8.2h2.1V338.9z"/>
	<path class="st9" d="M506.2,337.5h1.1V335h2.1v2.6h1.4v1.4h-1.4v4.4c0,0.6,0.3,0.8,0.8,0.8c0.3,0,0.6,0,0.6,0v1.6c0,0-0.5,0-1.4,0
		c-1.1,0-2.2-0.4-2.2-2V339h-1.1V337.5z"/>
</g>
<g class="st5">
	<path class="st9" d="M459.3,197.4h2.4l4,11.4h-2.4l-0.8-2.4h-4.1l-0.8,2.4h-2.4L459.3,197.4z M459,204.6h3l-1-3.3
		c-0.2-0.6-0.5-1.8-0.5-1.8h0c0,0-0.3,1.2-0.5,1.8L459,204.6z"/>
	<path class="st9" d="M468.9,203.2c0-3.4,2.1-6,5.5-6c2.8,0,4.5,1.7,4.7,3.9h-2.3c-0.2-1.2-1.1-1.9-2.4-1.9c-2.1,0-3.1,1.8-3.1,4
		c0,2.3,1.2,4,3.1,4c1.4,0,2.3-0.8,2.5-2h2.3c-0.1,1-0.5,2-1.3,2.7c-0.8,0.7-1.9,1.2-3.5,1.2C471.2,209.1,468.9,206.6,468.9,203.2z"
		/>
	<path class="st9" d="M479.8,204.7c0-2.4,1.7-4.3,4.3-4.3s4.3,1.9,4.3,4.3s-1.7,4.3-4.3,4.3S479.8,207.2,479.8,204.7z M486.2,204.7
		c0-1.6-0.8-2.7-2.1-2.7c-1.3,0-2.1,1.1-2.1,2.7s0.7,2.7,2.1,2.7C485.4,207.4,486.2,206.3,486.2,204.7z"/>
	<path class="st9" d="M491.5,201.7L491.5,201.7c0.6-0.9,1.4-1.3,2.5-1.3c1.7,0,2.8,1.3,2.8,3.1v5.4h-2.2v-5c0-0.9-0.5-1.5-1.4-1.5
		c-1,0-1.7,0.8-1.7,1.9v4.7h-2.2v-8.2h2.1V201.7z"/>
	<path class="st9" d="M500.3,201.7L500.3,201.7c0.6-0.9,1.4-1.3,2.5-1.3c1.7,0,2.8,1.3,2.8,3.1v5.4h-2.2v-5c0-0.9-0.5-1.5-1.4-1.5
		c-1,0-1.7,0.8-1.7,1.9v4.7h-2.2v-8.2h2.1V201.7z"/>
	<path class="st9" d="M506.6,204.7c0-2.4,1.6-4.3,4-4.3c2.6,0,4,2,4,4.9h-6c0.2,1.3,0.9,2,2.1,2c0.8,0,1.3-0.4,1.6-1h2.1
		c-0.3,1.5-1.6,2.7-3.7,2.7C508.1,209.1,506.6,207.2,506.6,204.7z M508.7,203.8h3.6c-0.1-1-0.8-1.8-1.7-1.8
		C509.5,202.1,508.9,202.8,508.7,203.8z"/>
	<path class="st9" d="M515.3,204.7c0-2.4,1.6-4.3,4.1-4.3c2.1,0,3.4,1.2,3.7,3H521c-0.1-0.7-0.7-1.3-1.5-1.3c-1.3,0-2,1-2,2.6
		c0,1.6,0.6,2.6,2,2.6c0.9,0,1.5-0.5,1.6-1.4h2.1c-0.1,1.7-1.5,3.1-3.7,3.1C516.9,209.1,515.3,207.2,515.3,204.7z"/>
	<path class="st9" d="M523.6,200.6h1.1v-2.6h2.1v2.6h1.4v1.4h-1.4v4.4c0,0.6,0.3,0.8,0.8,0.8c0.3,0,0.6,0,0.6,0v1.6c0,0-0.5,0-1.4,0
		c-1.1,0-2.2-0.4-2.2-2v-4.8h-1.1V200.6z"/>
	<path class="st9" d="M528.9,204.7c0-2.4,1.7-4.3,4.3-4.3s4.3,1.9,4.3,4.3s-1.7,4.3-4.3,4.3S528.9,207.2,528.9,204.7z M535.3,204.7
		c0-1.6-0.8-2.7-2.1-2.7c-1.3,0-2.1,1.1-2.1,2.7s0.7,2.7,2.1,2.7C534.6,207.4,535.3,206.3,535.3,204.7z"/>
	<path class="st9" d="M540.6,201.9L540.6,201.9c0.5-0.9,1.1-1.4,2.1-1.4c0.2,0,0.4,0,0.5,0.1v1.9h0c-1.4-0.1-2.4,0.6-2.4,2.3v4h-2.2
		v-8.2h2.1V201.9z"/>
</g>
<g class="st5">
	<path class="st9" d="M569.7,201.7h2.4l4,11.4h-2.4l-0.8-2.4h-4.1l-0.8,2.4h-2.4L569.7,201.7z M569.3,208.9h3l-1-3.3
		c-0.2-0.6-0.5-1.8-0.5-1.8h0c0,0-0.3,1.2-0.5,1.8L569.3,208.9z"/>
	<path class="st9" d="M579.8,201.7h2.3v4.5h4.5v-4.5h2.3v11.4h-2.3v-5h-4.5v5h-2.3V201.7z"/>
	<path class="st9" d="M590.1,209c0-2.4,1.6-4.3,4-4.3c2.6,0,4,2,4,4.9h-6c0.2,1.3,0.9,2,2.1,2c0.8,0,1.3-0.4,1.6-1h2.1
		c-0.3,1.5-1.6,2.7-3.7,2.7C591.6,213.3,590.1,211.4,590.1,209z M592.3,208.1h3.6c-0.1-1-0.8-1.8-1.7-1.8
		C593,206.3,592.5,207,592.3,208.1z"/>
	<path class="st9" d="M604.1,212.2L604.1,212.2c-0.4,0.6-1,1.1-2.4,1.1c-1.7,0-2.9-0.9-2.9-2.5c0-1.8,1.5-2.4,3.3-2.6
		c1.4-0.2,2-0.3,2-0.9c0-0.6-0.5-1-1.4-1c-1,0-1.5,0.4-1.6,1.2h-1.9c0.1-1.4,1.1-2.7,3.5-2.7c2.5,0,3.5,1.1,3.5,3v4.2
		c0,0.6,0.1,1,0.3,1.1v0.1h-2.1C604.2,212.9,604.1,212.6,604.1,212.2z M604.1,210.2V209c-0.4,0.2-1,0.4-1.5,0.5
		c-1.1,0.3-1.7,0.5-1.7,1.3s0.5,1,1.3,1C603.4,211.8,604.1,211,604.1,210.2z"/>
	<path class="st9" d="M606.8,204.9h2.2l1.3,4.3c0.2,0.8,0.4,1.3,0.4,1.3h0c0,0,0.1-0.5,0.4-1.3l1.3-4.3h2.2l-2.9,8.2h-2.1
		L606.8,204.9z"/>
	<path class="st9" d="M614.7,209c0-2.4,1.6-4.3,4-4.3c2.6,0,4,2,4,4.9h-6c0.2,1.3,0.9,2,2.1,2c0.8,0,1.3-0.4,1.6-1h2.1
		c-0.3,1.5-1.6,2.7-3.7,2.7C616.2,213.3,614.7,211.4,614.7,209z M616.9,208.1h3.6c-0.1-1-0.8-1.8-1.7-1.8
		C617.6,206.3,617,207,616.9,208.1z"/>
	<path class="st9" d="M625.9,206L625.9,206c0.6-0.9,1.4-1.3,2.5-1.3c1.7,0,2.8,1.3,2.8,3.1v5.4H629v-5c0-0.9-0.5-1.5-1.4-1.5
		c-1,0-1.7,0.8-1.7,1.9v4.7h-2.2v-8.2h2.1V206z"/>
</g>
<g class="st5">
	<path class="st9" d="M505.3,145.9h2.4l4,11.4h-2.4l-0.8-2.4h-4.1l-0.8,2.4h-2.4L505.3,145.9z M504.9,153.1h3l-1-3.3
		c-0.2-0.6-0.5-1.8-0.5-1.8h0c0,0-0.3,1.2-0.5,1.8L504.9,153.1z"/>
	<path class="st9" d="M514.8,153.8h2.3c0.2,1.4,0.9,1.9,2.6,1.9c1.2,0,2.2-0.4,2.2-1.5c0-1.1-1.1-1.3-2.8-1.7c-2-0.5-3.9-1-3.9-3.4
		c0-2.3,1.8-3.4,4.4-3.4c2.6,0,4.2,1.3,4.4,3.6h-2.2c-0.1-1.2-1-1.7-2.2-1.7c-1.2,0-2.1,0.5-2.1,1.3c0,0.9,0.8,1.2,2.5,1.6
		c2.4,0.5,4.3,1.1,4.3,3.5c0,2.3-1.9,3.6-4.5,3.6C516.7,157.6,514.9,156.2,514.8,153.8z"/>
	<path class="st9" d="M524.9,149.1h1.1v-2.6h2.1v2.6h1.4v1.4h-1.4v4.4c0,0.6,0.3,0.8,0.8,0.8c0.3,0,0.6,0,0.6,0v1.6c0,0-0.5,0-1.4,0
		c-1.1,0-2.2-0.4-2.2-2v-4.8h-1.1V149.1z"/>
	<path class="st9" d="M535.7,156.4L535.7,156.4c-0.4,0.6-1,1.1-2.4,1.1c-1.7,0-2.9-0.9-2.9-2.5c0-1.8,1.5-2.4,3.3-2.6
		c1.4-0.2,2-0.3,2-0.9c0-0.6-0.5-1-1.4-1c-1,0-1.5,0.4-1.6,1.2h-1.9c0.1-1.4,1.1-2.7,3.5-2.7c2.5,0,3.5,1.1,3.5,3v4.2
		c0,0.6,0.1,1,0.3,1.1v0.1h-2.1C535.8,157.1,535.7,156.8,535.7,156.4z M535.7,154.4v-1.2c-0.4,0.2-1,0.4-1.5,0.5
		c-1.1,0.3-1.7,0.5-1.7,1.3s0.5,1,1.3,1C535,156,535.7,155.2,535.7,154.4z"/>
	<path class="st9" d="M539.1,145.9h2.2v2h-2.2V145.9z M539.1,149.1h2.2v8.2h-2.2V149.1z"/>
	<path class="st9" d="M544.8,150.4L544.8,150.4c0.5-0.9,1.1-1.4,2.1-1.4c0.2,0,0.4,0,0.5,0.1v1.9h0c-1.4-0.1-2.4,0.6-2.4,2.3v4h-2.2
		v-8.2h2.1V150.4z"/>
	<path class="st9" d="M547.8,154.6h2c0.1,0.9,0.8,1.4,1.8,1.4c1,0,1.5-0.4,1.5-0.9c0-0.8-1-0.9-2.2-1.1c-1.5-0.3-2.9-0.7-2.9-2.5
		c0-1.8,1.5-2.6,3.3-2.6c2.2,0,3.4,1.1,3.5,2.7h-2c-0.1-0.9-0.7-1.2-1.6-1.2c-0.8,0-1.4,0.3-1.4,0.9c0,0.7,1.1,0.8,2.3,1
		c1.4,0.3,2.9,0.7,2.9,2.6c0,1.6-1.4,2.6-3.5,2.6C549.3,157.5,547.9,156.4,547.8,154.6z"/>
</g>
<g class="st5">
	<path class="st9" d="M76.1,434.2c0-3.4,2.1-6,5.5-6c2.8,0,4.5,1.7,4.7,3.9H84c-0.2-1.2-1.1-1.9-2.4-1.9c-2.1,0-3.1,1.8-3.1,4
		c0,2.3,1.2,4,3.1,4c1.4,0,2.3-0.8,2.5-2h2.3c-0.1,1-0.5,2-1.3,2.7c-0.8,0.7-1.9,1.2-3.5,1.2C78.4,440.1,76.1,437.7,76.1,434.2z"/>
	<path class="st9" d="M92.6,439.9v-1h0c-0.6,0.8-1.2,1.2-2.4,1.2c-1.8,0-2.8-1.2-2.8-3v-5.5h2.2v5.1c0,1,0.4,1.5,1.4,1.5
		c1,0,1.6-0.8,1.6-1.9v-4.7h2.2v8.2H92.6z"/>
	<path class="st9" d="M98.2,438.9L98.2,438.9l0,1h-2.1v-11.4h2.2v4.2h0c0.4-0.7,1.2-1.2,2.3-1.2c2.1,0,3.5,1.8,3.5,4.3
		c0,2.7-1.4,4.3-3.5,4.3C99.5,440.1,98.7,439.6,98.2,438.9z M101.9,435.8c0-1.5-0.6-2.6-1.8-2.6c-1.4,0-1.9,1.1-1.9,2.6
		c0,1.5,0.8,2.5,2,2.5C101.3,438.3,101.9,437.4,101.9,435.8z"/>
	<path class="st9" d="M107.3,438.9L107.3,438.9l0,1h-2.1v-11.4h2.2v4.2h0c0.4-0.7,1.2-1.2,2.3-1.2c2.1,0,3.5,1.8,3.5,4.3
		c0,2.7-1.4,4.3-3.5,4.3C108.6,440.1,107.8,439.6,107.3,438.9z M111,435.8c0-1.5-0.6-2.6-1.8-2.6c-1.4,0-1.9,1.1-1.9,2.6
		c0,1.5,0.8,2.5,2,2.5C110.4,438.3,111,437.4,111,435.8z"/>
	<path class="st9" d="M114.1,440.9h0.8c0.9,0,1.2-0.4,1.2-1.1c0-0.4-0.2-1-0.6-2.2l-2.2-5.8h2.3l1.2,3.7c0.3,0.8,0.5,1.8,0.5,1.8h0
		c0,0,0.2-1,0.5-1.8l1.2-3.7h2.2l-2.9,8.4c-0.6,1.8-1.2,2.5-2.9,2.5h-1.3V440.9z"/>
</g>
<g class="st5">
	<path class="st9" d="M189.3,411.4h3.3l1.6,5.7c0.4,1.4,0.7,3.1,0.7,3.1h0c0,0,0.3-1.6,0.7-3.1l1.6-5.7h3.3v11.4h-2.2v-6.6
		c0-0.9,0.1-2.4,0.1-2.4h0c0,0-0.3,1.3-0.5,2.2l-2,6.8h-2.2l-1.9-6.8c-0.2-0.8-0.5-2.2-0.5-2.2h0c0,0,0.1,1.4,0.1,2.4v6.6h-2.1
		V411.4z"/>
	<path class="st9" d="M202.1,411.4h2.2v2h-2.2V411.4z M202.1,414.6h2.2v8.2h-2.2V414.6z"/>
	<path class="st9" d="M205.3,418.7c0-2.6,1.5-4.3,3.5-4.3c1.2,0,1.9,0.5,2.3,1.2h0v-4.2h2.2v11.4h-2.1v-1.1h0
		c-0.5,0.8-1.3,1.3-2.4,1.3C206.7,423,205.3,421.4,205.3,418.7z M211.2,418.8c0-1.6-0.5-2.6-1.9-2.6c-1.2,0-1.8,1.1-1.8,2.6
		c0,1.6,0.6,2.5,1.7,2.5C210.5,421.2,211.2,420.3,211.2,418.8z"/>
	<path class="st9" d="M217.6,411.4h4.5c3.1,0,5,2.5,5,5.8c0,1.9-0.6,3.5-1.8,4.5c-0.8,0.7-2,1.1-3.4,1.1h-4.3V411.4z M221.7,420.8
		c2.2,0,3-1.3,3-3.6c0-2.3-1-3.9-3-3.9h-1.9v7.5H221.7z"/>
	<path class="st9" d="M227.8,418.7c0-2.4,1.7-4.3,4.3-4.3s4.3,1.9,4.3,4.3s-1.7,4.3-4.3,4.3S227.8,421.2,227.8,418.7z M234.2,418.7
		c0-1.6-0.8-2.7-2.1-2.7c-1.3,0-2.1,1.1-2.1,2.7s0.7,2.7,2.1,2.7C233.4,421.4,234.2,420.3,234.2,418.7z"/>
	<path class="st9" d="M237,418.7c0-2.4,1.7-4.3,4.3-4.3s4.3,1.9,4.3,4.3s-1.7,4.3-4.3,4.3S237,421.2,237,418.7z M243.3,418.7
		c0-1.6-0.8-2.7-2.1-2.7c-1.3,0-2.1,1.1-2.1,2.7s0.7,2.7,2.1,2.7C242.6,421.4,243.3,420.3,243.3,418.7z"/>
	<path class="st9" d="M248.6,415.9L248.6,415.9c0.5-0.9,1.1-1.4,2.1-1.4c0.2,0,0.4,0,0.5,0.1v1.9h0c-1.4-0.1-2.4,0.6-2.4,2.3v4h-2.2
		v-8.2h2.1V415.9z"/>
	<path class="st9" d="M251.7,420.1h2c0.1,0.9,0.8,1.4,1.8,1.4c1,0,1.5-0.4,1.5-0.9c0-0.8-1-0.9-2.2-1.1c-1.5-0.3-2.9-0.7-2.9-2.5
		c0-1.8,1.5-2.6,3.3-2.6c2.2,0,3.4,1.1,3.5,2.7h-2c-0.1-0.9-0.7-1.2-1.6-1.2c-0.8,0-1.4,0.3-1.4,0.9c0,0.7,1.1,0.8,2.3,1
		c1.4,0.3,2.9,0.7,2.9,2.6c0,1.6-1.4,2.6-3.5,2.6C253.1,423,251.8,421.9,251.7,420.1z"/>
</g>
<g class="st5">
	<path class="st9" d="M118.2,333c0-3.4,2.1-6,5.5-6c2.8,0,4.5,1.7,4.7,3.9h-2.3c-0.2-1.2-1.1-1.9-2.4-1.9c-2.1,0-3.1,1.8-3.1,4
		c0,2.3,1.2,4,3.1,4c1.4,0,2.3-0.8,2.5-2h2.3c-0.1,1-0.5,2-1.3,2.7c-0.8,0.7-1.9,1.2-3.5,1.2C120.5,338.9,118.2,336.5,118.2,333z"/>
	<path class="st9" d="M131.8,333c0-3.4,2.1-6,5.5-6c2.8,0,4.5,1.7,4.7,3.9h-2.3c-0.2-1.2-1.1-1.9-2.4-1.9c-2.1,0-3.1,1.8-3.1,4
		c0,2.3,1.2,4,3.1,4c1.4,0,2.3-0.8,2.5-2h2.3c-0.1,1-0.5,2-1.3,2.7c-0.8,0.7-1.9,1.2-3.5,1.2C134.1,338.9,131.8,336.5,131.8,333z"/>
	<path class="st9" d="M142.8,334.6c0-2.4,1.7-4.3,4.3-4.3s4.3,1.9,4.3,4.3s-1.7,4.3-4.3,4.3S142.8,337.1,142.8,334.6z M149.1,334.6
		c0-1.6-0.8-2.7-2.1-2.7c-1.3,0-2.1,1.1-2.1,2.7s0.7,2.7,2.1,2.7C148.4,337.3,149.1,336.2,149.1,334.6z"/>
	<path class="st9" d="M154.5,331.6L154.5,331.6c0.6-0.9,1.4-1.3,2.5-1.3c1.7,0,2.8,1.3,2.8,3.1v5.4h-2.2v-5c0-0.9-0.5-1.5-1.4-1.5
		c-1,0-1.7,0.8-1.7,1.9v4.7h-2.2v-8.2h2.1V331.6z"/>
	<path class="st9" d="M163.3,331.6L163.3,331.6c0.6-0.9,1.4-1.3,2.5-1.3c1.7,0,2.8,1.3,2.8,3.1v5.4h-2.2v-5c0-0.9-0.5-1.5-1.4-1.5
		c-1,0-1.7,0.8-1.7,1.9v4.7h-2.2v-8.2h2.1V331.6z"/>
	<path class="st9" d="M169.5,334.6c0-2.4,1.6-4.3,4-4.3c2.6,0,4,2,4,4.9h-6c0.2,1.3,0.9,2,2.1,2c0.8,0,1.3-0.4,1.6-1h2.1
		c-0.3,1.5-1.6,2.7-3.7,2.7C171.1,338.9,169.5,337,169.5,334.6z M171.7,333.7h3.6c-0.1-1-0.8-1.8-1.7-1.8
		C172.4,331.9,171.9,332.6,171.7,333.7z"/>
	<path class="st9" d="M178.2,334.6c0-2.4,1.6-4.3,4.1-4.3c2.1,0,3.4,1.2,3.7,3h-2.1c-0.1-0.7-0.7-1.3-1.5-1.3c-1.3,0-2,1-2,2.6
		c0,1.6,0.6,2.6,2,2.6c0.9,0,1.5-0.5,1.6-1.4h2.1c-0.1,1.7-1.5,3.1-3.7,3.1C179.8,338.9,178.2,337.1,178.2,334.6z"/>
	<path class="st9" d="M186.6,330.5h1.1v-2.6h2.1v2.6h1.4v1.4h-1.4v4.4c0,0.6,0.3,0.8,0.8,0.8c0.3,0,0.6,0,0.6,0v1.6c0,0-0.5,0-1.4,0
		c-1.1,0-2.2-0.4-2.2-2v-4.8h-1.1V330.5z"/>
	<path class="st9" d="M191.9,334.6c0-2.4,1.7-4.3,4.3-4.3s4.3,1.9,4.3,4.3s-1.7,4.3-4.3,4.3S191.9,337.1,191.9,334.6z M198.3,334.6
		c0-1.6-0.8-2.7-2.1-2.7c-1.3,0-2.1,1.1-2.1,2.7s0.7,2.7,2.1,2.7C197.5,337.3,198.3,336.2,198.3,334.6z"/>
	<path class="st9" d="M203.6,331.8L203.6,331.8c0.5-0.9,1.1-1.4,2.1-1.4c0.2,0,0.4,0,0.5,0.1v1.9h0c-1.4-0.1-2.4,0.6-2.4,2.3v4h-2.2
		v-8.2h2.1V331.8z"/>
</g>
<g>
	<g>
		<circle class="st10" cx="617.5" cy="402.8" r="6"/>
	</g>
</g>
<g>
	<g>
		<circle class="st10" cx="58.3" cy="510.5" r="6"/>
	</g>
</g>
<g>
	<rect x="383.1" y="512.7" class="st11" width="60.9" height="5"/>
</g>
<g>
	<rect x="250.8" y="518.6" class="st11" width="19.2" height="5"/>
</g>
<g>
	<rect x="48.8" y="361.7" class="st12" width="24.2" height="5"/>
</g>
<g>
	<rect x="192.7" y="357.8" class="st12" width="49" height="5"/>
</g>
<g>
	<rect x="309.7" y="334.7" class="st12" width="17.2" height="5"/>
</g>
<g>
	<rect x="591.7" y="362.5" class="st12" width="24.3" height="5"/>
</g>
<g>
	<rect x="513.4" y="330.5" class="st12" width="5" height="18.2"/>
</g>
<g>
	<rect x="339.7" y="479" class="st11" width="5" height="20.2"/>
</g>
<g>
	<rect x="115.8" y="503.4" class="st11" width="5" height="18.3"/>
</g>
<g class="st5">
	<path class="st9" d="M287.2,484.2h3.3l1.6,5.7c0.4,1.4,0.7,3.1,0.7,3.1h0c0,0,0.3-1.6,0.7-3.1l1.6-5.7h3.3v11.4h-2.2V489
		c0-0.9,0.1-2.4,0.1-2.4h0c0,0-0.3,1.3-0.5,2.2l-2,6.8h-2.2l-1.9-6.8c-0.2-0.8-0.5-2.2-0.5-2.2h0c0,0,0.1,1.4,0.1,2.4v6.6h-2.1
		V484.2z"/>
	<path class="st9" d="M300.1,484.2h2.2v2h-2.2V484.2z M300.1,487.4h2.2v8.2h-2.2V487.4z"/>
	<path class="st9" d="M303.2,491.5c0-2.6,1.5-4.3,3.5-4.3c1.2,0,1.9,0.5,2.3,1.2h0v-4.2h2.2v11.4h-2.1v-1.1h0
		c-0.5,0.8-1.3,1.3-2.4,1.3C304.7,495.8,303.2,494.2,303.2,491.5z M309.2,491.5c0-1.6-0.5-2.6-1.9-2.6c-1.2,0-1.8,1.1-1.8,2.6
		c0,1.6,0.6,2.5,1.7,2.5C308.5,494,309.2,493.1,309.2,491.5z"/>
	<path class="st9" d="M314.8,484.2h2.4l1.5,5.7c0.2,1,0.5,2.5,0.5,2.5h0c0,0,0.3-1.4,0.5-2.4l1.2-5.7h2.2l1.2,5.7
		c0.2,1,0.5,2.4,0.5,2.4h0c0,0,0.3-1.5,0.6-2.5l1.4-5.7h2.3l-3.3,11.4h-2.2l-1.4-6.1c-0.2-0.8-0.4-2-0.4-2h0c0,0-0.2,1.2-0.4,2
		l-1.4,6.1h-2.1L314.8,484.2z"/>
	<path class="st9" d="M330,484.2h2.2v2H330V484.2z M330,487.4h2.2v8.2H330V487.4z"/>
	<path class="st9" d="M335.8,488.5L335.8,488.5c0.6-0.9,1.4-1.3,2.5-1.3c1.7,0,2.8,1.3,2.8,3.1v5.4h-2.2v-5c0-0.9-0.5-1.5-1.4-1.5
		c-1,0-1.7,0.8-1.7,1.9v4.7h-2.2v-8.2h2.1V488.5z"/>
	<path class="st9" d="M342,491.5c0-2.6,1.5-4.3,3.5-4.3c1.2,0,1.9,0.5,2.3,1.2h0v-4.2h2.2v11.4H348v-1.1h0c-0.5,0.8-1.3,1.3-2.4,1.3
		C343.4,495.8,342,494.2,342,491.5z M347.9,491.5c0-1.6-0.5-2.6-1.9-2.6c-1.2,0-1.8,1.1-1.8,2.6c0,1.6,0.6,2.5,1.7,2.5
		C347.3,494,347.9,493.1,347.9,491.5z"/>
	<path class="st9" d="M351.1,491.5c0-2.4,1.7-4.3,4.3-4.3s4.3,1.9,4.3,4.3s-1.7,4.3-4.3,4.3S351.1,494,351.1,491.5z M357.4,491.5
		c0-1.6-0.8-2.7-2.1-2.7c-1.3,0-2.1,1.1-2.1,2.7s0.7,2.7,2.1,2.7C356.7,494.2,357.4,493.1,357.4,491.5z"/>
	<path class="st9" d="M359.8,487.4h2.2l1,3.8c0.2,0.7,0.4,1.5,0.4,1.5h0c0,0,0.2-0.9,0.4-1.6l1-3.8h1.9l1.1,3.8
		c0.2,0.7,0.4,1.6,0.4,1.6h0c0,0,0.2-0.9,0.4-1.5l1-3.8h2.1l-2.4,8.2h-2l-1.1-4c-0.2-0.7-0.4-1.4-0.4-1.4h0c0,0-0.2,0.8-0.4,1.4
		l-1.1,4h-2L359.8,487.4z"/>
</g>
</svg>
