<?xml version="1.0" encoding="utf-8"?>
<!-- Generator: Adobe Illustrator 24.1.2, SVG Export Plug-In . SVG Version: 6.00 Build 0)  -->
<svg version="1.1" id="Layer_1" xmlns="http://www.w3.org/2000/svg" xmlns:xlink="http://www.w3.org/1999/xlink" x="0px" y="0px"
	 viewBox="0 0 814 764" style="enable-background:new 0 0 814 764;" xml:space="preserve">
<style type="text/css">
	.st0{fill:#25294A;}
	.st1{fill:#2B3056;}
	.st2{fill:#2D325A;}
	.st3{fill:#67BC6B;}
	.st4{fill:#EF5552;}
	.st5{opacity:0.5;enable-background:new    ;}
	.st6{fill:#3F51B5;}
	.st7{fill:#22C0FF;}
	.st8{enable-background:new    ;}
	.st9{fill:#EF5652;}
	.st10{fill:#737AAE;}
	.st11{fill:#FFFFFF;}
</style>
<g id="Full">
	<path class="st0" d="M813.5,195.8v-30.3h-52v-29h-78v-13h-4v-7h35v-48h-164V116h-126V0.5h-68v164h-113v-66h-37v21h-100v41h29v44
		h-81v-50h-54v189H41V396H29v91h61v-28h48v14.5h-21.5v171h72v22h120v-6H324v11.3h-2.5v91.7h110v-100h146v-66h164v-91h40v-48h-40
		v-108h-39v28h-22v-90h61l40.5,38h31.5v-27.6H810V195.8H813.5z M512.5,144h92V97.5h7v19h45v7h-6v13h-25V199H602v10h-3.5v-50.5h-86
		V144z M567.5,290.5v-46h31V230h3.7l10.8,21v64.5h39.5v34h-27v23H571v-35.8l11.5-19.7v-26.5H567.5z M327.5,199.5h29V211H403v-45.6
		l21.5-21.4h66v71.5h31v48h-61v50h-14v-26h-75v48h20v4h-42v21h-6v-28h-47v28h-14v-101h45V199.5z M158.5,160.5h21.3V147h26.7v52.5h96
		v43h-48v41h-57v-79h-39V160.5z M68,264h68v33H68V264z M68,396v-52.5h104.5v17h54v-30h4v88h52v-30h67v44h-17V500h-5v-28.5h-47V500
		h-26v-23.5h-41V545h-14v-71.5H165V459h5v-63H68z M694.5,514.5h-13v40h-169v72h-80v-19h-19v23H248.3l-5.8-6.8v-33.2H200V570h54.5
		v-42h26v29.5h47V528h5v21.5h82v-49h74v41h175v-40h27v-6h4V514.5z M695,417.5h12.5v41h-13v20h-4v-6h-55v41h-126v-67h-21v26h-74v-40
		h-25v-32h29v-61h-9v-4h83v-49h59v4h-37v117.6l21.5,21.4h54.5v-28h35v44H667L695,417.5z M684.5,157.5h58v47h-58V157.5z"/>
	<path class="st1" d="M432,764H321v-92.7h2.5V661H309v6H188v-22h-72V473h21.5v-13.5h-47v28h-62v-92h12V344H0V154h55v50h80v-43h-29
		v-42h100V98h38v66h112V0h69v115.5h125V68h165v49h-35v6h4v13h78v29h52v31.3h-3.5v102.1h3.5V327h-32.2l-0.1-0.1L741.3,289H681v89h21
		v-28h40v108h40v49h-40v91H578v66H432V764z M322,763h109V663h146v-66h164v-91h40v-47h-40V351h-38v28h-23v-91h61.7l0.1,0.1l40.4,37.9
		H813v-26.6h-3.5V195.3h3.5V166h-52v-29h-78v-13h-4v-8h35V69H551v47.5H424V1h-67v164H243V99h-36v21H107v40h29v45H54v-50H1v188h40.5
		v53.5h-12v90h60v-28h49V474H117v170h72v22h119v-6h16.5v12.3H322V763z M414,631H248.1l-6.1-7.1V591h-42.5v-21.5H254v-42h27V557h46
		v-29.5h6V549h81v-49h75v41h174v-40h27v-6h5v20h-13v40H513v72h-81v-19h-18V631z M248.5,630H413v-23h20v19h79v-72h169v-40h13v-18h-3
		v6h-27v40H488v-41h-73v49h-83v-21.5h-4V558h-48v-29.5h-25v42h-54.5V590H243v33.5L248.5,630z M214,545.5h-15V474h-34.5v-15.5h5v-62
		h-102V343H173v17h53v-30h5v88h51v-30h68v45h-17v67.5h-6V472h-46v28.5h-27V477h-40V545.5z M200,544.5h13V476h42v23.5h25V471h48v28.5
		h4V432h17v-43h-66v30h-53v-88h-3v30h-55v-17H68.5v51.5h102v64h-5V473H200V544.5z M636,514H509v-67h-20v26h-75v-40h-25v-33h29v-60
		h-9v-5h83v-49h60v5h-37v116.9l21.2,21.1H590v-28h36v44h40.8l28-28H708v42h-13v20h-5v-6h-54V514z M510,513h125v-41h56v6h3v-20h13
		v-40h-11.8l-28,28H625v-44h-34v28h-55.2L514,408.3V290h37v-3h-58v49h-83v3h9v62h-29v31h25v40h73v-26h22V513z M626,373h-55.5v-36.4
		l11.5-19.7V291h-15v-47h31v-14.5h4.5l11,21.4V315H653v35h-27V373z M571.5,372H625v-23h27v-33h-39.5v-64.9l-10.6-20.6H599V245h-31
		v45h15v27.1l-11.5,19.7V372z M350,361h-7v-28h-46v28h-15V259h45v-60h30v11.5h45.5v-45.3l21.8-21.7H491V215h31v49h-61v50h-15v-26
		h-74v47h20v5h-42V361z M344,360h5v-21h42v-3h-20v-49h76v26h13v-50h61v-47h-31v-71.5h-65.3l-21.2,21.1v45.9H356V200h-28v60h-45v100
		h13v-28h48V360z M136.5,297.5h-69v-34h69V297.5z M68.5,296.5h67v-32h-67V296.5z M255,284h-58v-79h-39v-45h21.3v-13.5H207V199h96v44
		h-48V284z M198,283h56v-41h48v-42h-96v-52.5h-25.7V161H159v43h39V283z M602.5,209.5H598V159h-86v-15.5h92V97h8v19h45v8h-6v13h-25
		v62.5h-23.5V209.5z M599,208.5h2.5v-10H625V136h25v-13h6v-6h-45V98h-6v46.5h-92V158h86V208.5z M743,205h-59v-48h59V205z M685,204
		h57v-46h-57V204z"/>
</g>
<g>
	<rect x="0.5" y="329" class="st2" width="28.5" height="14.5"/>
</g>
<g>
	<rect x="0.5" y="238" class="st2" width="36.5" height="16"/>
</g>
<g>
	<polygon class="st2" points="41,154.5 41,168 46,168 46,175 54.5,175 54.5,168 54.5,161 54.5,154.5 	"/>
</g>
<g>
	<polygon class="st2" points="43,484 43,473 33,473 33,469 29,469 29,473 29,484 29,487 33,487 43,487 62,487 62,484 	"/>
</g>
<g>
	<rect x="117" y="396" class="st2" width="16" height="16"/>
</g>
<g>
	<rect x="184" y="570" class="st2" width="16" height="20.5"/>
</g>
<g>
	<rect x="313" y="471.5" class="st2" width="14.5" height="15.5"/>
</g>
<g>
	<rect x="213.5" y="476.5" class="st2" width="7.5" height="68.5"/>
</g>
<g>
	<polygon class="st2" points="138,513 138,473.5 138,473.5 138,473.5 116.5,473.5 116.5,513 116.5,521 139,521 145,521 145,513 	"/>
</g>
<g>
	<polygon class="st2" points="188.5,631 188.5,644.5 188.5,644.5 188.5,644.5 116.5,644.5 116.5,631 	"/>
</g>
<g>
	<rect x="529" y="554.5" class="st2" width="29" height="15.5"/>
</g>
<g>
	<rect x="728" y="588" class="st2" width="13.5" height="9.5"/>
</g>
<g>
	<rect x="735" y="543" class="st2" width="6.5" height="32"/>
</g>
<g>
	<polygon class="st2" points="741.5,506.5 741.5,506.5 741.5,506.5 741.5,529 728,529 728,506.5 	"/>
</g>
<g>
	<polygon class="st2" points="414.5,472.5 414.5,472.5 389,472.5 389,461 414.5,461 	"/>
</g>
<g>
	<polygon class="st2" points="742.5,204.5 742.5,219 729,219 729,204.5 	"/>
</g>
<g>
	<rect x="625.5" y="247" class="st2" width="13.5" height="14"/>
</g>
<g>
	<rect x="762.5" y="230" class="st2" width="13.5" height="23"/>
</g>
<g>
	<polygon class="st2" points="536,215.5 521.5,215.5 521.5,215.5 521.5,215.5 521.5,222.2 521.5,224.1 521.5,228.5 536,228.5 
		536,224.1 536,224.1 	"/>
</g>
<g>
	<polygon class="st2" points="536,228.5 521.5,228.5 521.5,228.5 521.5,228.5 521.5,231.6 521.5,232.5 521.5,234.5 536,234.5 
		536,232.5 536,232.5 	"/>
</g>
<g>
	<rect x="206.5" y="185" class="st2" width="14.5" height="14.5"/>
</g>
<g>
	<rect x="173" y="234" class="st2" width="13" height="13"/>
</g>
<g>
	<rect x="97" y="248" class="st2" width="14" height="16"/>
</g>
<g>
	<rect x="269" y="320" class="st2" width="13.5" height="15"/>
</g>
<g>
	<rect x="482" y="325.5" class="st2" width="10.5" height="10"/>
</g>
<g>
	<rect x="482" y="315.5" class="st2" width="10.5" height="10"/>
</g>
<g>
	<polygon class="st2" points="523,339 523,329 514.5,329 514.5,339 514.5,344 514.5,349 532,349 532,339 	"/>
</g>
<g>
	<circle class="st2" cx="340" cy="542" r="7"/>
</g>
<g>
	<circle class="st2" cx="351" cy="545" r="4"/>
</g>
<g>
	<circle class="st2" cx="138" cy="400" r="4"/>
</g>
<g>
	<circle class="st2" cx="278" cy="315" r="4"/>
</g>
<g>
	<rect x="515.9" y="337" class="st3" width="53.1" height="5"/>
</g>
<g>
	<rect x="42.9" y="343" class="st3" width="23.1" height="5"/>
</g>
<g>
	<rect x="351.5" y="400" class="st3" width="36.5" height="5"/>
</g>
<g>
	<rect x="653.9" y="315" class="st3" width="25.1" height="5"/>
</g>
<g>
	<rect x="118.7" y="520.9" class="st4" width="78.3" height="5"/>
</g>
<g>
	<rect x="266.7" y="501.9" class="st4" width="5" height="24.3"/>
</g>
<g>
	<rect x="483.7" y="474.9" class="st4" width="5" height="23.3"/>
</g>
<g>
	
		<rect x="722" y="455.4" transform="matrix(0.8209 -0.5711 0.5711 0.8209 -145.8779 500.198)" class="st4" width="5" height="54.5"/>
</g>
<g>
	<path class="st2" d="M227,330h-1v-2.5h1V330z M227,324.5h-1v-3h1V324.5z M227,318.5h-1v-3h1V318.5z M227,312.5h-1v-3h1V312.5z
		 M198,309.5h-3v-1h3V309.5z M192,309.5h-3v-1h3V309.5z M186.5,309h-1v-3h1V309z M227,306.5h-1v-3h1V306.5z M198,305.5h-1v-3h1
		V305.5z M186.5,303h-1v-3h1V303z M227,300.5h-1v-3h1V300.5z M198,299.5h-1v-2h2v1h-1V299.5z M223,298.5h-3v-1h3V298.5z M217,298.5
		h-3v-1h3V298.5z M211,298.5h-3v-1h3V298.5z M205,298.5h-3v-1h3V298.5z M186.5,297h-1v-3h1V297z M186.5,291h-1v-3h1V291z M186.5,285
		h-1v-3h1V285z M186.5,279h-1v-3h1V279z M186.5,273h-1v-3h1V273z M186.5,267h-1v-3h1V267z M186.5,261h-1v-3h1V261z M186.5,255h-1v-3
		h1V255z M186.5,249h-1v-3h1V249z M186.5,243h-1v-3h1V243z M186.5,237h-1v-3h1V237z M186.5,231h-1v-3h1V231z M186.5,225h-1v-3h1V225
		z M186.5,219h-1v-3h1V219z M186.5,213h-1v-3h1V213z M186.5,207h-1v-3h1V207z"/>
</g>
<g>
	<path class="st2" d="M626,315.5h-1V313h1V315.5z M626,310h-1v-3h1V310z M626,304h-1v-3h1V304z M626,298h-1v-3h1V298z M626,292h-1
		v-3h1V292z M626,286h-1v-3h1V286z M626,280h-1v-3h1V280z M626,274h-1v-3h1V274z M626,268h-1v-3h1V268z M626,262h-1v-3h1V262z
		 M626,256h-1v-3h1V256z M626,250h-1v-3h1V250z M626,244h-1v-3h1V244z M626,238h-1v-3h1V238z M626,232h-1v-3h1V232z M626,226h-1v-3
		h1V226z M626,220h-1v-3h1V220z M626,214h-1v-3h1V214z M626,208h-1v-3h1V208z M626,202h-1v-3h1V202z"/>
</g>
<g>
	<path class="st2" d="M198,344h-1.5v-1h0.5v-1.5h1V344z M193.5,344h-3v-1h3V344z M187.5,344h-3v-1h3V344z M181.5,344h-3v-1h3V344z
		 M175.5,344h-3v-1h3V344z M198,338.5h-1v-3h1V338.5z M198,332.5h-1v-3h1V332.5z M198,326.5h-1v-3h1V326.5z M198,320.5h-1v-3h1
		V320.5z M198,314.5h-1v-3h1V314.5z"/>
</g>
<g>
	<path class="st2" d="M461,334.5h-1v-3h1V334.5z M461,328.5h-1v-3h1V328.5z M461,322.5h-1v-3h1V322.5z M461,316.5h-1v-3h1V316.5z"/>
</g>
<g>
	<path class="st2" d="M493,286.5h-1v-3h1V286.5z M493,280.5h-1v-3h1V280.5z M493,274.5h-1v-3h1V274.5z M493,268.5h-1v-3h1V268.5z"/>
</g>
<g>
	<path class="st2" d="M664,499.5h-1v-3h1V499.5z M664,493.5h-1v-3h1V493.5z M664,487.5h-1v-3h1V487.5z M664,481.5h-1v-3h1V481.5z
		 M664,475.5h-1v-3h1V475.5z"/>
</g>
<g>
	<path class="st2" d="M207,146.5h-1v-3h1V146.5z M207,140.5h-1v-3h1V140.5z M207,134.5h-1v-3h1V134.5z M207,128.5h-1v-3h1V128.5z
		 M207,122.5h-1v-3h1V122.5z"/>
</g>
<g>
	<path class="st2" d="M180.3,147h-1v-3h1V147z M180.3,141h-1v-3h1V141z M180.3,135h-1v-3h1V135z M180.3,129h-1v-3h1V129z M180.3,123
		h-1v-3h1V123z"/>
</g>
<g class="st5">
	<polygon class="st6" points="742.5,165.5 742.5,204.5 714.5,204.5 714.5,288.5 741.5,288.5 782,326.5 813.5,326.5 813.5,298.9 
		810,298.9 810,195.8 813.5,195.8 813.5,165.5 	"/>
</g>
<g>
	<circle class="st7" cx="373.5" cy="487.5" r="6"/>
</g>
<g>
	<circle class="st7" cx="663.5" cy="386.5" r="6"/>
</g>
<g class="st8">
	<path class="st9" d="M356.1,708.9h2.4l4,11.4h-2.4l-0.8-2.4h-4.1l-0.8,2.4h-2.4L356.1,708.9z M355.7,716.2h3l-1-3.3
		c-0.2-0.6-0.5-1.8-0.5-1.8h0c0,0-0.3,1.2-0.5,1.8L355.7,716.2z"/>
	<path class="st9" d="M362.3,712.2h1.1v-2.6h2.1v2.6h1.4v1.4h-1.4v4.4c0,0.6,0.3,0.8,0.8,0.8c0.3,0,0.6,0,0.6,0v1.6c0,0-0.5,0-1.4,0
		c-1.1,0-2.2-0.4-2.2-2v-4.8h-1.1V712.2z"/>
	<path class="st9" d="M367.5,712.2h1.1v-2.6h2.1v2.6h1.4v1.4h-1.4v4.4c0,0.6,0.3,0.8,0.8,0.8c0.3,0,0.6,0,0.6,0v1.6c0,0-0.5,0-1.4,0
		c-1.1,0-2.2-0.4-2.2-2v-4.8h-1.1V712.2z"/>
	<path class="st9" d="M378.2,719.4L378.2,719.4c-0.4,0.6-1,1.1-2.4,1.1c-1.7,0-2.9-0.9-2.9-2.5c0-1.8,1.5-2.4,3.3-2.6
		c1.4-0.2,2-0.3,2-0.9c0-0.6-0.5-1-1.4-1c-1,0-1.5,0.4-1.6,1.2h-1.9c0.1-1.4,1.1-2.7,3.5-2.7c2.5,0,3.5,1.1,3.5,3v4.2
		c0,0.6,0.1,1,0.3,1.1v0.1h-2.1C378.4,720.2,378.3,719.8,378.2,719.4z M378.3,717.5v-1.2c-0.4,0.2-1,0.4-1.5,0.5
		c-1.1,0.3-1.7,0.5-1.7,1.3s0.5,1,1.3,1C377.6,719,378.3,718.3,378.3,717.5z"/>
	<path class="st9" d="M381.3,716.3c0-2.4,1.6-4.3,4.1-4.3c2.1,0,3.4,1.2,3.7,3H387c-0.1-0.7-0.7-1.3-1.5-1.3c-1.3,0-2,1-2,2.6
		c0,1.6,0.6,2.6,2,2.6c0.9,0,1.5-0.5,1.6-1.4h2.1c-0.1,1.7-1.5,3.1-3.7,3.1C382.9,720.6,381.3,718.7,381.3,716.3z"/>
	<path class="st9" d="M393.2,716.6l-0.9,1v2.8h-2.2v-11.4h2.2v6.3l2.9-3.1h2.6l-3,3.1l3.4,5.1h-2.6L393.2,716.6z"/>
</g>
<g class="st8">
	<path class="st10" d="M129.6,546.6h5.1c1.2,0,2.2,0.3,2.8,0.8c0.6,0.6,0.9,1.2,0.9,2.1c0,1.2-0.7,1.9-1.8,2.3v0
		c1.3,0.4,2.1,1.4,2.1,2.8c0,1.1-0.3,1.8-1,2.4c-0.7,0.6-1.7,0.9-2.9,0.9h-5.3V546.6z M134.5,551.2c1,0,1.7-0.5,1.7-1.4
		c0-0.8-0.6-1.3-1.6-1.3H132v2.7H134.5z M132,556.1h2.7c1.1,0,1.8-0.6,1.8-1.6c0-1.1-0.8-1.6-1.9-1.6H132V556.1z"/>
	<path class="st10" d="M142.8,546.6h2.3v9.5h5.4v1.9h-7.7V546.6z"/>
	<path class="st10" d="M151,553.9c0-2.4,1.7-4.3,4.3-4.3s4.3,1.9,4.3,4.3s-1.7,4.3-4.3,4.3S151,556.4,151,553.9z M157.4,553.9
		c0-1.6-0.8-2.7-2.1-2.7c-1.3,0-2.1,1.1-2.1,2.7s0.7,2.7,2.1,2.7C156.6,556.6,157.4,555.5,157.4,553.9z"/>
	<path class="st10" d="M162.7,557L162.7,557l0,1h-2.1v-11.4h2.2v4.2h0c0.4-0.7,1.2-1.2,2.3-1.2c2.1,0,3.5,1.8,3.5,4.3
		c0,2.7-1.4,4.3-3.5,4.3C164,558.2,163.2,557.7,162.7,557z M166.4,553.9c0-1.5-0.6-2.6-1.8-2.6c-1.4,0-1.9,1.1-1.9,2.6
		c0,1.5,0.8,2.5,2,2.5C165.8,556.4,166.4,555.5,166.4,553.9z"/>
	<path class="st10" d="M171.8,557L171.8,557l0,1h-2.1v-11.4h2.2v4.2h0c0.4-0.7,1.2-1.2,2.3-1.2c2.1,0,3.5,1.8,3.5,4.3
		c0,2.7-1.4,4.3-3.5,4.3C173.1,558.2,172.3,557.7,171.8,557z M175.5,553.9c0-1.5-0.6-2.6-1.8-2.6c-1.4,0-1.9,1.1-1.9,2.6
		c0,1.5,0.8,2.5,2,2.5C174.9,556.4,175.5,555.5,175.5,553.9z"/>
	<path class="st10" d="M178.7,559h0.8c0.9,0,1.2-0.4,1.2-1.1c0-0.4-0.2-1-0.6-2.2l-2.2-5.8h2.3l1.2,3.7c0.3,0.8,0.5,1.8,0.5,1.8h0
		c0,0,0.2-1,0.5-1.8l1.2-3.7h2.2l-2.9,8.4c-0.6,1.8-1.2,2.5-2.9,2.5h-1.3V559z"/>
</g>
<g class="st8">
	<path class="st10" d="M61,426.3h5.1c1.2,0,2.2,0.3,2.8,0.8c0.6,0.6,0.9,1.2,0.9,2.1c0,1.2-0.7,1.9-1.8,2.3v0
		c1.3,0.4,2.1,1.4,2.1,2.8c0,1.1-0.3,1.8-1,2.4c-0.7,0.6-1.7,0.9-2.9,0.9H61V426.3z M65.9,430.9c1,0,1.7-0.5,1.7-1.4
		c0-0.8-0.6-1.3-1.6-1.3h-2.6v2.7H65.9z M63.3,435.8H66c1.1,0,1.8-0.6,1.8-1.6c0-1.1-0.8-1.6-1.9-1.6h-2.6V435.8z"/>
	<path class="st10" d="M74.2,426.3h3.3l1.6,5.7c0.4,1.4,0.7,3.1,0.7,3.1h0c0,0,0.3-1.6,0.7-3.1l1.6-5.7h3.3v11.4h-2.2v-6.6
		c0-0.9,0.1-2.4,0.1-2.4h0c0,0-0.3,1.3-0.5,2.2l-2,6.8h-2.2l-1.9-6.8c-0.2-0.8-0.5-2.2-0.5-2.2h0c0,0,0.1,1.4,0.1,2.4v6.6h-2.1
		V426.3z"/>
	<path class="st10" d="M92,436.8L92,436.8c-0.4,0.6-1,1.1-2.4,1.1c-1.7,0-2.9-0.9-2.9-2.5c0-1.8,1.5-2.4,3.3-2.6
		c1.4-0.2,2-0.3,2-0.9c0-0.6-0.5-1-1.4-1c-1,0-1.5,0.4-1.6,1.2H87c0.1-1.4,1.1-2.7,3.5-2.7c2.5,0,3.5,1.1,3.5,3v4.2
		c0,0.6,0.1,1,0.3,1.1v0.1h-2.1C92.1,437.6,92,437.2,92,436.8z M92,434.9v-1.2c-0.4,0.2-1,0.4-1.5,0.5c-1.1,0.3-1.7,0.5-1.7,1.3
		s0.5,1,1.3,1C91.3,436.4,92,435.7,92,434.9z"/>
	<path class="st10" d="M95.4,426.3h2.2v2h-2.2V426.3z M95.4,429.5h2.2v8.2h-2.2V429.5z"/>
	<path class="st10" d="M101.1,430.7L101.1,430.7c0.6-0.9,1.4-1.3,2.5-1.3c1.7,0,2.8,1.3,2.8,3.1v5.4h-2.2v-5c0-0.9-0.5-1.5-1.4-1.5
		c-1,0-1.7,0.8-1.7,1.9v4.7H99v-8.2h2.1V430.7z"/>
</g>
<g class="st8">
	<path class="st10" d="M3.9,181.8H9c1.2,0,2.2,0.3,2.8,0.8c0.6,0.6,0.9,1.2,0.9,2.1c0,1.2-0.7,1.9-1.8,2.3v0
		c1.3,0.4,2.1,1.4,2.1,2.8c0,1.1-0.3,1.8-1,2.4c-0.7,0.6-1.7,0.9-2.9,0.9H3.9V181.8z M8.7,186.4c1,0,1.7-0.5,1.7-1.4
		c0-0.8-0.6-1.3-1.6-1.3H6.2v2.7H8.7z M6.2,191.3h2.7c1.1,0,1.8-0.6,1.8-1.6c0-1.1-0.8-1.6-1.9-1.6H6.2V191.3z"/>
	<path class="st10" d="M19.1,192.3L19.1,192.3c-0.4,0.6-1,1.1-2.4,1.1c-1.7,0-2.9-0.9-2.9-2.5c0-1.8,1.5-2.4,3.3-2.6
		c1.4-0.2,2-0.3,2-0.9c0-0.6-0.5-1-1.4-1c-1,0-1.5,0.4-1.6,1.2h-1.9c0.1-1.4,1.1-2.7,3.5-2.7c2.5,0,3.5,1.1,3.5,3v4.2
		c0,0.6,0.1,1,0.3,1.1v0.1h-2.1C19.2,193.1,19.2,192.7,19.1,192.3z M19.1,190.4v-1.2c-0.4,0.2-1,0.4-1.5,0.5
		c-1.1,0.3-1.7,0.5-1.7,1.3s0.5,1,1.3,1C18.4,191.9,19.1,191.2,19.1,190.4z"/>
	<path class="st10" d="M22.1,189.2c0-2.4,1.6-4.3,4.1-4.3c2.1,0,3.4,1.2,3.7,3h-2.1c-0.1-0.7-0.7-1.3-1.5-1.3c-1.3,0-2,1-2,2.6
		c0,1.6,0.6,2.6,2,2.6c0.9,0,1.5-0.5,1.6-1.4h2.1c-0.1,1.7-1.5,3.1-3.7,3.1C23.8,193.5,22.1,191.6,22.1,189.2z"/>
	<path class="st10" d="M34.1,189.5l-0.9,1v2.8H31v-11.4h2.2v6.3l2.9-3.1h2.6l-3,3.1l3.4,5.1h-2.6L34.1,189.5z"/>
	<path class="st10" d="M42.6,181.8h5.1c1.2,0,2.2,0.3,2.8,0.8c0.6,0.6,0.9,1.2,0.9,2.1c0,1.2-0.7,1.9-1.8,2.3v0
		c1.3,0.4,2.1,1.4,2.1,2.8c0,1.1-0.3,1.8-1,2.4c-0.7,0.6-1.7,0.9-2.9,0.9h-5.3V181.8z M47.4,186.4c1,0,1.7-0.5,1.7-1.4
		c0-0.8-0.6-1.3-1.6-1.3h-2.6v2.7H47.4z M44.9,191.3h2.7c1.1,0,1.8-0.6,1.8-1.6c0-1.1-0.8-1.6-1.9-1.6h-2.6V191.3z"/>
</g>
<g class="st8">
	<path class="st3" d="M361.9,51.4h4.5c3.1,0,5,2.5,5,5.8c0,1.9-0.6,3.5-1.8,4.5c-0.8,0.7-2,1.1-3.4,1.1h-4.3V51.4z M366,60.9
		c2.2,0,3-1.3,3-3.6c0-2.3-1-3.9-3-3.9h-1.9v7.5H366z"/>
	<path class="st3" d="M372.1,58.8c0-2.4,1.6-4.3,4-4.3c2.6,0,4,2,4,4.9h-6c0.2,1.3,0.9,2,2.1,2c0.8,0,1.3-0.4,1.6-1h2.1
		c-0.3,1.5-1.6,2.7-3.7,2.7C373.6,63.1,372.1,61.2,372.1,58.8z M374.2,57.9h3.6c-0.1-1-0.8-1.8-1.7-1.8
		C375,56.1,374.4,56.8,374.2,57.9z"/>
	<path class="st3" d="M380.5,54.7h1.1v-0.7c0-2,1.6-2.7,3.6-2.5v1.7c-1,0-1.5,0.1-1.5,0.9v0.6h1.5v1.5h-1.5v6.7h-2.2v-6.7h-1.1V54.7
		z"/>
	<path class="st3" d="M385.6,58.8c0-2.4,1.6-4.3,4-4.3c2.6,0,4,2,4,4.9h-6c0.2,1.3,0.9,2,2.1,2c0.8,0,1.3-0.4,1.6-1h2.1
		c-0.3,1.5-1.6,2.7-3.7,2.7C387.2,63.1,385.6,61.2,385.6,58.8z M387.8,57.9h3.6c-0.1-1-0.8-1.8-1.7-1.8
		C388.6,56.1,388,56.8,387.8,57.9z"/>
	<path class="st3" d="M396.9,55.8L396.9,55.8c0.6-0.9,1.4-1.3,2.5-1.3c1.7,0,2.8,1.3,2.8,3.1v5.4H400v-5c0-0.9-0.5-1.5-1.4-1.5
		c-1,0-1.7,0.8-1.7,1.9v4.7h-2.2v-8.2h2.1V55.8z"/>
	<path class="st3" d="M403,60.2h2c0.1,0.9,0.8,1.4,1.8,1.4c1,0,1.5-0.4,1.5-0.9c0-0.8-1-0.9-2.2-1.1c-1.5-0.3-2.9-0.7-2.9-2.5
		c0-1.8,1.5-2.6,3.3-2.6c2.2,0,3.4,1.1,3.5,2.7h-2c-0.1-0.9-0.7-1.2-1.6-1.2c-0.8,0-1.4,0.3-1.4,0.9c0,0.7,1.1,0.8,2.3,1
		c1.4,0.3,2.9,0.7,2.9,2.6c0,1.6-1.4,2.6-3.5,2.6C404.5,63.1,403.1,62,403,60.2z"/>
	<path class="st3" d="M411,58.8c0-2.4,1.6-4.3,4-4.3c2.6,0,4,2,4,4.9h-6c0.2,1.3,0.9,2,2.1,2c0.8,0,1.3-0.4,1.6-1h2.1
		c-0.3,1.5-1.6,2.7-3.7,2.7C412.5,63.1,411,61.2,411,58.8z M413.1,57.9h3.6c-0.1-1-0.8-1.8-1.7-1.8
		C413.9,56.1,413.3,56.8,413.1,57.9z"/>
</g>
<g class="st5">
	<rect x="84" y="204.5" class="st6" width="102" height="59.5"/>
</g>
<g class="st8">
	<path class="st10" d="M159.9,255.6h5.1c1.2,0,2.2,0.3,2.8,0.8c0.6,0.6,0.9,1.2,0.9,2.1c0,1.2-0.7,1.9-1.8,2.3v0
		c1.3,0.4,2.1,1.4,2.1,2.8c0,1.1-0.3,1.8-1,2.4c-0.7,0.6-1.7,0.9-2.9,0.9h-5.3V255.6z M164.8,260.2c1,0,1.7-0.5,1.7-1.4
		c0-0.8-0.6-1.3-1.6-1.3h-2.6v2.7H164.8z M162.3,265.1h2.7c1.1,0,1.8-0.6,1.8-1.6c0-1.1-0.8-1.6-1.9-1.6h-2.6V265.1z"/>
	<path class="st10" d="M173.1,255.6h5.3c2.2,0,3.7,1.3,3.7,3.2c0,1.3-0.6,2.4-2.1,2.8v0c1.1,0.3,1.6,0.9,1.7,2.3
		c0.2,1.6,0.1,2.8,0.5,3v0.1H180c-0.3-0.1-0.3-1.4-0.4-2.6c-0.1-1.2-0.8-2-2.2-2h-1.9v4.6h-2.3V255.6z M175.4,260.6h2.5
		c1.3,0,1.9-0.7,1.9-1.6c0-0.9-0.6-1.6-1.8-1.6h-2.5V260.6z"/>
	<path class="st10" d="M188.3,266.1L188.3,266.1c-0.4,0.6-1,1.1-2.4,1.1c-1.7,0-2.9-0.9-2.9-2.5c0-1.8,1.5-2.4,3.3-2.6
		c1.4-0.2,2-0.3,2-0.9c0-0.6-0.5-1-1.4-1c-1,0-1.5,0.4-1.6,1.2h-1.9c0.1-1.4,1.1-2.7,3.5-2.7c2.5,0,3.5,1.1,3.5,3v4.2
		c0,0.6,0.1,1,0.3,1.1v0.1h-2.1C188.4,266.8,188.3,266.5,188.3,266.1z M188.3,264.1v-1.2c-0.4,0.2-1,0.4-1.5,0.5
		c-1.1,0.3-1.7,0.5-1.7,1.3s0.5,1,1.3,1C187.6,265.7,188.3,264.9,188.3,264.1z"/>
	<path class="st10" d="M191.2,258.8h1.1v-0.7c0-2,1.6-2.7,3.6-2.5v1.7c-1,0-1.5,0.1-1.5,0.9v0.6h1.5v1.5h-1.5v6.7h-2.2v-6.7h-1.1
		V258.8z"/>
	<path class="st10" d="M196.4,258.8h1.1v-2.6h2.1v2.6h1.4v1.4h-1.4v4.4c0,0.6,0.3,0.8,0.8,0.8c0.3,0,0.6,0,0.6,0v1.6
		c0,0-0.5,0-1.4,0c-1.1,0-2.2-0.4-2.2-2v-4.8h-1.1V258.8z"/>
	<path class="st10" d="M201.7,262.9c0-2.4,1.6-4.3,4-4.3c2.6,0,4,2,4,4.9h-6c0.2,1.3,0.9,2,2.1,2c0.8,0,1.3-0.4,1.6-1h2.1
		c-0.3,1.5-1.6,2.7-3.7,2.7C203.3,267.2,201.7,265.3,201.7,262.9z M203.9,262h3.6c-0.1-1-0.8-1.8-1.7-1.8
		C204.7,260.2,204.1,260.9,203.9,262z"/>
	<path class="st10" d="M212.9,260.1L212.9,260.1c0.5-0.9,1.1-1.4,2.1-1.4c0.2,0,0.4,0,0.5,0.1v1.9h0c-1.4-0.1-2.4,0.6-2.4,2.3v4
		h-2.2v-8.2h2.1V260.1z"/>
	<path class="st10" d="M215.9,264.3h2c0.1,0.9,0.8,1.4,1.8,1.4c1,0,1.5-0.4,1.5-0.9c0-0.8-1-0.9-2.2-1.1c-1.5-0.3-2.9-0.7-2.9-2.5
		c0-1.8,1.5-2.6,3.3-2.6c2.2,0,3.4,1.1,3.5,2.7h-2c-0.1-0.9-0.7-1.2-1.6-1.2c-0.8,0-1.4,0.3-1.4,0.9c0,0.7,1.1,0.8,2.3,1
		c1.4,0.3,2.9,0.7,2.9,2.6c0,1.6-1.4,2.6-3.5,2.6C217.4,267.2,216.1,266.1,215.9,264.3z"/>
</g>
<g class="st8">
	<path class="st10" d="M223.7,288.6h5.1c1.2,0,2.2,0.3,2.8,0.8c0.6,0.6,0.9,1.2,0.9,2.1c0,1.2-0.7,1.9-1.8,2.3v0
		c1.3,0.4,2.1,1.4,2.1,2.8c0,1.1-0.3,1.8-1,2.4c-0.7,0.6-1.7,0.9-2.9,0.9h-5.3V288.6z M228.6,293.2c1,0,1.7-0.5,1.7-1.4
		c0-0.8-0.6-1.3-1.6-1.3h-2.6v2.7H228.6z M226.1,298.1h2.7c1.1,0,1.8-0.6,1.8-1.6c0-1.1-0.8-1.6-1.9-1.6h-2.6V298.1z"/>
	<path class="st10" d="M236.9,288.6h2.3v4.5h4.5v-4.5h2.3V300h-2.3v-5h-4.5v5h-2.3V288.6z"/>
	<path class="st10" d="M247.3,295.9c0-2.4,1.6-4.3,4-4.3c2.6,0,4,2,4,4.9h-6c0.2,1.3,0.9,2,2.1,2c0.8,0,1.3-0.4,1.6-1h2.1
		c-0.3,1.5-1.6,2.7-3.7,2.7C248.8,300.2,247.3,298.3,247.3,295.9z M249.4,295h3.6c-0.1-1-0.8-1.8-1.7-1.8
		C250.2,293.2,249.6,293.9,249.4,295z"/>
	<path class="st10" d="M261.3,299.1L261.3,299.1c-0.4,0.6-1,1.1-2.4,1.1c-1.7,0-2.9-0.9-2.9-2.5c0-1.8,1.5-2.4,3.3-2.6
		c1.4-0.2,2-0.3,2-0.9c0-0.6-0.5-1-1.4-1c-1,0-1.5,0.4-1.6,1.2h-1.9c0.1-1.4,1.1-2.7,3.5-2.7c2.5,0,3.5,1.1,3.5,3v4.2
		c0,0.6,0.1,1,0.3,1.1v0.1h-2.1C261.4,299.8,261.3,299.5,261.3,299.1z M261.3,297.1v-1.2c-0.4,0.2-1,0.4-1.5,0.5
		c-1.1,0.3-1.7,0.5-1.7,1.3s0.5,1,1.3,1C260.6,298.7,261.3,297.9,261.3,297.1z"/>
	<path class="st10" d="M264,291.8h2.2l1.3,4.3c0.2,0.8,0.4,1.3,0.4,1.3h0c0,0,0.1-0.5,0.4-1.3l1.3-4.3h2.2l-2.9,8.2h-2.1L264,291.8z
		"/>
	<path class="st10" d="M271.8,295.9c0-2.4,1.6-4.3,4-4.3c2.6,0,4,2,4,4.9h-6c0.2,1.3,0.9,2,2.1,2c0.8,0,1.3-0.4,1.6-1h2.1
		c-0.3,1.5-1.6,2.7-3.7,2.7C273.4,300.2,271.8,298.3,271.8,295.9z M274,295h3.6c-0.1-1-0.8-1.8-1.7-1.8
		C274.8,293.2,274.2,293.9,274,295z"/>
	<path class="st10" d="M283.1,292.9L283.1,292.9c0.6-0.9,1.4-1.3,2.5-1.3c1.7,0,2.8,1.3,2.8,3.1v5.4h-2.2v-5c0-0.9-0.5-1.5-1.4-1.5
		c-1,0-1.7,0.8-1.7,1.9v4.7h-2.2v-8.2h2.1V292.9z"/>
</g>
<g class="st8">
	<path class="st10" d="M284.8,369.1h3.3l1.6,5.7c0.4,1.4,0.7,3.1,0.7,3.1h0c0,0,0.3-1.6,0.7-3.1l1.6-5.7h3.3v11.4h-2.2v-6.6
		c0-0.9,0.1-2.4,0.1-2.4h0c0,0-0.3,1.3-0.5,2.2l-2,6.8h-2.2l-1.9-6.8c-0.2-0.8-0.5-2.2-0.5-2.2h0c0,0,0.1,1.4,0.1,2.4v6.6h-2.1
		V369.1z"/>
	<path class="st10" d="M297.7,369.1h2.2v2h-2.2V369.1z M297.7,372.3h2.2v8.2h-2.2V372.3z"/>
	<path class="st10" d="M300.8,376.4c0-2.6,1.5-4.3,3.5-4.3c1.2,0,1.9,0.5,2.3,1.2h0v-4.2h2.2v11.4h-2.1v-1.1h0
		c-0.5,0.8-1.3,1.3-2.4,1.3C302.2,380.7,300.8,379.1,300.8,376.4z M306.8,376.5c0-1.6-0.5-2.6-1.9-2.6c-1.2,0-1.8,1.1-1.8,2.6
		c0,1.6,0.6,2.5,1.7,2.5C306.1,378.9,306.8,378,306.8,376.5z"/>
	<path class="st10" d="M313.2,369.1h3.3l1.6,5.7c0.4,1.4,0.7,3.1,0.7,3.1h0c0,0,0.3-1.6,0.7-3.1l1.6-5.7h3.3v11.4h-2.2v-6.6
		c0-0.9,0.1-2.4,0.1-2.4h0c0,0-0.3,1.3-0.5,2.2l-2,6.8h-2.2l-1.9-6.8c-0.2-0.8-0.5-2.2-0.5-2.2h0c0,0,0.1,1.4,0.1,2.4v6.6h-2.1
		V369.1z"/>
	<path class="st10" d="M330.9,379.6L330.9,379.6c-0.4,0.6-1,1.1-2.4,1.1c-1.7,0-2.9-0.9-2.9-2.5c0-1.8,1.5-2.4,3.3-2.6
		c1.4-0.2,2-0.3,2-0.9c0-0.6-0.5-1-1.4-1c-1,0-1.5,0.4-1.6,1.2H326c0.1-1.4,1.1-2.7,3.5-2.7c2.5,0,3.5,1.1,3.5,3v4.2
		c0,0.6,0.1,1,0.3,1.1v0.1h-2.1C331.1,380.3,331,380,330.9,379.6z M330.9,377.6v-1.2c-0.4,0.2-1,0.4-1.5,0.5
		c-1.1,0.3-1.7,0.5-1.7,1.3s0.5,1,1.3,1C330.3,379.2,330.9,378.4,330.9,377.6z"/>
	<path class="st10" d="M334.4,369.1h2.2v11.4h-2.2V369.1z"/>
	<path class="st10" d="M338,369.1h2.2v11.4H338V369.1z"/>
</g>
<g class="st8">
	<path class="st10" d="M355.1,369.1h9.2v2h-3.4v9.5h-2.3V371h-3.4V369.1z"/>
	<path class="st10" d="M363,376.4c0-2.4,1.7-4.3,4.3-4.3s4.3,1.9,4.3,4.3s-1.7,4.3-4.3,4.3S363,378.9,363,376.4z M369.4,376.4
		c0-1.6-0.8-2.7-2.1-2.7c-1.3,0-2.1,1.1-2.1,2.7s0.7,2.7,2.1,2.7C368.7,379.1,369.4,378,369.4,376.4z"/>
	<path class="st10" d="M372.6,372.3h2.1v1h0c0.5-0.7,1.3-1.2,2.4-1.2c2.2,0,3.6,1.8,3.6,4.3c0,2.7-1.4,4.3-3.6,4.3
		c-1.2,0-1.9-0.5-2.4-1.2h0v3.6h-2.2V372.3z M378.5,376.5c0-1.6-0.5-2.6-1.9-2.6c-1.4,0-1.9,1.2-1.9,2.6c0,1.5,0.7,2.5,2,2.5
		C377.8,378.9,378.5,378,378.5,376.5z"/>
	<path class="st10" d="M384.6,369.1h3.3l1.6,5.7c0.4,1.4,0.7,3.1,0.7,3.1h0c0,0,0.3-1.6,0.7-3.1l1.6-5.7h3.3v11.4h-2.2v-6.6
		c0-0.9,0.1-2.4,0.1-2.4h0c0,0-0.3,1.3-0.5,2.2l-2,6.8h-2.2l-1.9-6.8c-0.2-0.8-0.5-2.2-0.5-2.2h0c0,0,0.1,1.4,0.1,2.4v6.6h-2.1
		V369.1z"/>
	<path class="st10" d="M397.5,369.1h2.2v2h-2.2V369.1z M397.5,372.3h2.2v8.2h-2.2V372.3z"/>
	<path class="st10" d="M400.7,376.4c0-2.6,1.5-4.3,3.5-4.3c1.2,0,1.9,0.5,2.3,1.2h0v-4.2h2.2v11.4h-2.1v-1.1h0
		c-0.5,0.8-1.3,1.3-2.4,1.3C402.1,380.7,400.7,379.1,400.7,376.4z M406.6,376.5c0-1.6-0.5-2.6-1.9-2.6c-1.2,0-1.8,1.1-1.8,2.6
		c0,1.6,0.6,2.5,1.7,2.5C405.9,378.9,406.6,378,406.6,376.5z"/>
</g>
<g class="st8">
	<path class="st10" d="M415.4,319.6h3.3l1.6,5.7c0.4,1.4,0.7,3.1,0.7,3.1h0c0,0,0.3-1.6,0.7-3.1l1.6-5.7h3.3V331h-2.2v-6.6
		c0-0.9,0.1-2.4,0.1-2.4h0c0,0-0.3,1.3-0.5,2.2l-2,6.8h-2.2l-1.9-6.8c-0.2-0.8-0.5-2.2-0.5-2.2h0c0,0,0.1,1.4,0.1,2.4v6.6h-2.1
		V319.6z"/>
	<path class="st10" d="M428.2,319.6h2.2v2h-2.2V319.6z M428.2,322.8h2.2v8.2h-2.2V322.8z"/>
	<path class="st10" d="M431.4,326.9c0-2.6,1.5-4.3,3.5-4.3c1.2,0,1.9,0.5,2.3,1.2h0v-4.2h2.2V331h-2.1v-1.1h0
		c-0.5,0.8-1.3,1.3-2.4,1.3C432.8,331.2,431.4,329.6,431.4,326.9z M437.3,327c0-1.6-0.5-2.6-1.9-2.6c-1.2,0-1.8,1.1-1.8,2.6
		c0,1.6,0.6,2.5,1.7,2.5C436.7,329.4,437.3,328.5,437.3,327z"/>
	<path class="st10" d="M442.9,319.6h2.4l2,6.6c0.2,0.8,0.5,1.8,0.5,1.8h0c0,0,0.3-1.1,0.5-1.8l2-6.6h2.4l-3.9,11.4h-2.1L442.9,319.6
		z"/>
	<path class="st10" d="M451.9,326.9c0-2.4,1.6-4.3,4-4.3c2.6,0,4,2,4,4.9h-6c0.2,1.3,0.9,2,2.1,2c0.8,0,1.3-0.4,1.6-1h2.1
		c-0.3,1.5-1.6,2.7-3.7,2.7C453.5,331.2,451.9,329.3,451.9,326.9z M454.1,326h3.6c-0.1-1-0.8-1.8-1.7-1.8
		C454.9,324.2,454.3,324.9,454.1,326z"/>
	<path class="st10" d="M463.2,323.9L463.2,323.9c0.6-0.9,1.4-1.3,2.5-1.3c1.7,0,2.8,1.3,2.8,3.1v5.4h-2.2v-5c0-0.9-0.5-1.5-1.4-1.5
		c-1,0-1.7,0.8-1.7,1.9v4.7H461v-8.2h2.1V323.9z"/>
	<path class="st10" d="M469.2,322.8h1.1v-2.6h2.1v2.6h1.4v1.4h-1.4v4.4c0,0.6,0.3,0.8,0.8,0.8c0.3,0,0.6,0,0.6,0v1.6
		c0,0-0.5,0-1.4,0c-1.1,0-2.2-0.4-2.2-2v-4.8h-1.1V322.8z"/>
</g>
<g class="st8">
	<path class="st10" d="M329.1,509h5.1c1.2,0,2.2,0.3,2.8,0.8c0.6,0.6,0.9,1.2,0.9,2.1c0,1.2-0.7,1.9-1.8,2.3v0
		c1.3,0.4,2.1,1.4,2.1,2.8c0,1.1-0.3,1.8-1,2.4c-0.7,0.6-1.7,0.9-2.9,0.9h-5.3V509z M333.9,513.6c1,0,1.7-0.5,1.7-1.4
		c0-0.8-0.6-1.3-1.6-1.3h-2.6v2.7H333.9z M331.4,518.5h2.7c1.1,0,1.8-0.6,1.8-1.6c0-1.1-0.8-1.6-1.9-1.6h-2.6V518.5z"/>
	<path class="st10" d="M339.1,516.3c0-2.4,1.7-4.3,4.3-4.3s4.3,1.9,4.3,4.3s-1.7,4.3-4.3,4.3S339.1,518.8,339.1,516.3z M345.5,516.3
		c0-1.6-0.8-2.7-2.1-2.7c-1.3,0-2.1,1.1-2.1,2.7s0.7,2.7,2.1,2.7C344.8,519,345.5,517.9,345.5,516.3z"/>
	<path class="st10" d="M348.1,512.2h1.1v-2.6h2.1v2.6h1.4v1.4h-1.4v4.4c0,0.6,0.3,0.8,0.8,0.8c0.3,0,0.6,0,0.6,0v1.6
		c0,0-0.5,0-1.4,0c-1.1,0-2.2-0.4-2.2-2v-4.8h-1.1V512.2z"/>
	<path class="st10" d="M353.2,512.2h1.1v-2.6h2.1v2.6h1.4v1.4h-1.4v4.4c0,0.6,0.3,0.8,0.8,0.8c0.3,0,0.6,0,0.6,0v1.6
		c0,0-0.5,0-1.4,0c-1.1,0-2.2-0.4-2.2-2v-4.8h-1.1V512.2z"/>
	<path class="st10" d="M358.6,516.3c0-2.4,1.7-4.3,4.3-4.3s4.3,1.9,4.3,4.3s-1.7,4.3-4.3,4.3S358.6,518.8,358.6,516.3z M364.9,516.3
		c0-1.6-0.8-2.7-2.1-2.7c-1.3,0-2.1,1.1-2.1,2.7s0.7,2.7,2.1,2.7C364.2,519,364.9,517.9,364.9,516.3z"/>
	<path class="st10" d="M368.1,512.2h2.1v1.1h0c0.4-0.8,1.2-1.3,2.4-1.3c1,0,1.9,0.6,2.3,1.4h0c0.6-0.9,1.4-1.4,2.5-1.4
		c1.7,0,2.7,1.1,2.7,2.9v5.5H378v-5.2c0-0.9-0.5-1.4-1.3-1.4c-0.9,0-1.5,0.7-1.5,1.8v4.8h-2.2v-5.2c0-0.9-0.5-1.4-1.3-1.4
		c-0.9,0-1.5,0.7-1.5,1.8v4.8h-2.2V512.2z"/>
	<path class="st10" d="M384.3,509h3.3l1.6,5.7c0.4,1.4,0.7,3.1,0.7,3.1h0c0,0,0.3-1.6,0.7-3.1l1.6-5.7h3.3v11.4h-2.2v-6.6
		c0-0.9,0.1-2.4,0.1-2.4h0c0,0-0.3,1.3-0.5,2.2l-2,6.8h-2.2l-1.9-6.8c-0.2-0.8-0.5-2.2-0.5-2.2h0c0,0,0.1,1.4,0.1,2.4v6.6h-2.1V509z
		"/>
	<path class="st10" d="M397.2,509h2.2v2h-2.2V509z M397.2,512.2h2.2v8.2h-2.2V512.2z"/>
	<path class="st10" d="M400.4,516.3c0-2.6,1.5-4.3,3.5-4.3c1.2,0,1.9,0.5,2.3,1.2h0V509h2.2v11.4h-2.1v-1.1h0
		c-0.5,0.8-1.3,1.3-2.4,1.3C401.8,520.6,400.4,519,400.4,516.3z M406.3,516.4c0-1.6-0.5-2.6-1.9-2.6c-1.2,0-1.8,1.1-1.8,2.6
		c0,1.6,0.6,2.5,1.7,2.5C405.6,518.8,406.3,517.9,406.3,516.4z"/>
</g>
<g class="st8">
	<path class="st10" d="M217.6,509h5.1c1.2,0,2.2,0.3,2.8,0.8c0.6,0.6,0.9,1.2,0.9,2.1c0,1.2-0.7,1.9-1.8,2.3v0
		c1.3,0.4,2.1,1.4,2.1,2.8c0,1.1-0.3,1.8-1,2.4c-0.7,0.6-1.7,0.9-2.9,0.9h-5.3V509z M222.5,513.6c1,0,1.7-0.5,1.7-1.4
		c0-0.8-0.6-1.3-1.6-1.3H220v2.7H222.5z M220,518.5h2.7c1.1,0,1.8-0.6,1.8-1.6c0-1.1-0.8-1.6-1.9-1.6H220V518.5z"/>
	<path class="st10" d="M230.8,509h2.3v9.5h5.4v1.9h-7.7V509z"/>
	<path class="st10" d="M239.7,509h2.2v2h-2.2V509z M239.7,512.2h2.2v8.2h-2.2V512.2z"/>
	<path class="st10" d="M245.4,513.3L245.4,513.3c0.6-0.9,1.4-1.3,2.5-1.3c1.7,0,2.8,1.3,2.8,3.1v5.4h-2.2v-5c0-0.9-0.5-1.5-1.4-1.5
		c-1,0-1.7,0.8-1.7,1.9v4.7h-2.2v-8.2h2.1V513.3z"/>
	<path class="st10" d="M255.1,516.7l-0.9,1v2.8H252V509h2.2v6.3l2.9-3.1h2.6l-3,3.1l3.4,5.1h-2.6L255.1,516.7z"/>
</g>
<g class="st8">
	<path class="st10" d="M543.3,521.6h2.4l4,11.4h-2.4l-0.8-2.4h-4.1l-0.8,2.4h-2.4L543.3,521.6z M543,528.8h3l-1-3.3
		c-0.2-0.6-0.5-1.8-0.5-1.8h0c0,0-0.3,1.2-0.5,1.8L543,528.8z"/>
	<path class="st10" d="M552.9,529.5h2.3c0.2,1.4,0.9,1.9,2.6,1.9c1.2,0,2.2-0.4,2.2-1.5c0-1.1-1.1-1.3-2.8-1.7c-2-0.5-3.9-1-3.9-3.4
		c0-2.3,1.8-3.4,4.4-3.4c2.6,0,4.2,1.3,4.4,3.6h-2.2c-0.1-1.2-1-1.7-2.2-1.7c-1.2,0-2.1,0.5-2.1,1.3c0,0.9,0.8,1.2,2.5,1.6
		c2.4,0.5,4.3,1.1,4.3,3.5c0,2.3-1.9,3.6-4.5,3.6C554.7,533.3,553,531.9,552.9,529.5z"/>
	<path class="st10" d="M563.1,528.9c0-2.4,1.6-4.3,4-4.3c2.6,0,4,2,4,4.9h-6c0.2,1.3,0.9,2,2.1,2c0.8,0,1.3-0.4,1.6-1h2.1
		c-0.3,1.5-1.6,2.7-3.7,2.7C564.6,533.2,563.1,531.3,563.1,528.9z M565.3,528h3.6c-0.1-1-0.8-1.8-1.7-1.8
		C566,526.2,565.5,526.9,565.3,528z"/>
	<path class="st10" d="M571.4,524.8h2.2l1,3.8c0.2,0.7,0.4,1.5,0.4,1.5h0c0,0,0.2-0.9,0.4-1.6l1-3.8h1.9l1.1,3.8
		c0.2,0.7,0.4,1.6,0.4,1.6h0c0,0,0.2-0.9,0.4-1.5l1-3.8h2.1l-2.4,8.2h-2l-1.1-4c-0.2-0.7-0.4-1.4-0.4-1.4h0c0,0-0.2,0.8-0.4,1.4
		l-1.1,4h-2L571.4,524.8z"/>
	<path class="st10" d="M583.3,528.9c0-2.4,1.6-4.3,4-4.3c2.6,0,4,2,4,4.9h-6c0.2,1.3,0.9,2,2.1,2c0.8,0,1.3-0.4,1.6-1h2.1
		c-0.3,1.5-1.6,2.7-3.7,2.7C584.9,533.2,583.3,531.3,583.3,528.9z M585.5,528h3.6c-0.1-1-0.8-1.8-1.7-1.8
		C586.3,526.2,585.7,526.9,585.5,528z"/>
	<path class="st10" d="M594.5,526.1L594.5,526.1c0.5-0.9,1.1-1.4,2.1-1.4c0.2,0,0.4,0,0.5,0.1v1.9h0c-1.4-0.1-2.4,0.6-2.4,2.3v4
		h-2.2v-8.2h2.1V526.1z"/>
</g>
<g class="st8">
	<path class="st10" d="M686.3,529.6h2.4l4,11.4h-2.4l-0.8-2.4h-4.1l-0.8,2.4h-2.4L686.3,529.6z M686,536.8h3l-1-3.3
		c-0.2-0.6-0.5-1.8-0.5-1.8h0c0,0-0.3,1.2-0.5,1.8L686,536.8z"/>
	<path class="st10" d="M696.4,529.6h2.3v9.5h5.4v1.9h-7.7V529.6z"/>
	<path class="st10" d="M704.6,536.9c0-2.4,1.7-4.3,4.3-4.3s4.3,1.9,4.3,4.3s-1.7,4.3-4.3,4.3S704.6,539.4,704.6,536.9z M711,536.9
		c0-1.6-0.8-2.7-2.1-2.7c-1.3,0-2.1,1.1-2.1,2.7s0.7,2.7,2.1,2.7C710.2,539.6,711,538.5,711,536.9z"/>
	<path class="st10" d="M716.3,540L716.3,540l0,1h-2.1v-11.4h2.2v4.2h0c0.4-0.7,1.2-1.2,2.3-1.2c2.1,0,3.5,1.8,3.5,4.3
		c0,2.7-1.4,4.3-3.5,4.3C717.6,541.2,716.8,540.7,716.3,540z M720.1,536.9c0-1.5-0.6-2.6-1.8-2.6c-1.4,0-1.9,1.1-1.9,2.6
		c0,1.5,0.8,2.5,2,2.5C719.4,539.4,720.1,538.5,720.1,536.9z"/>
	<path class="st10" d="M725.4,540L725.4,540l0,1h-2.1v-11.4h2.2v4.2h0c0.4-0.7,1.2-1.2,2.3-1.2c2.1,0,3.5,1.8,3.5,4.3
		c0,2.7-1.4,4.3-3.5,4.3C726.7,541.2,725.9,540.7,725.4,540z M729.1,536.9c0-1.5-0.6-2.6-1.8-2.6c-1.4,0-1.9,1.1-1.9,2.6
		c0,1.5,0.8,2.5,2,2.5C728.5,539.4,729.1,538.5,729.1,536.9z"/>
	<path class="st10" d="M732.3,542h0.8c0.9,0,1.2-0.4,1.2-1.1c0-0.4-0.2-1-0.6-2.2l-2.2-5.8h2.3l1.2,3.7c0.3,0.8,0.5,1.8,0.5,1.8h0
		c0,0,0.2-1,0.5-1.8l1.2-3.7h2.2l-2.9,8.4c-0.6,1.8-1.2,2.5-2.9,2.5h-1.3V542z"/>
</g>
<g class="st8">
	<path class="st10" d="M642.6,400.6h2.4l4,11.4h-2.4l-0.8-2.4h-4.1L641,412h-2.4L642.6,400.6z M642.3,407.8h3l-1-3.3
		c-0.2-0.6-0.5-1.8-0.5-1.8h0c0,0-0.3,1.2-0.5,1.8L642.3,407.8z"/>
	<path class="st10" d="M652.7,400.6h3.3l1.6,5.7c0.4,1.4,0.7,3.1,0.7,3.1h0c0,0,0.3-1.6,0.7-3.1l1.6-5.7h3.3V412h-2.2v-6.6
		c0-0.9,0.1-2.4,0.1-2.4h0c0,0-0.3,1.3-0.5,2.2l-2,6.8h-2.2l-1.9-6.8c-0.2-0.8-0.5-2.2-0.5-2.2h0c0,0,0.1,1.4,0.1,2.4v6.6h-2.1
		V400.6z"/>
	<path class="st10" d="M670.5,411.1L670.5,411.1c-0.4,0.6-1,1.1-2.4,1.1c-1.7,0-2.9-0.9-2.9-2.5c0-1.8,1.5-2.4,3.3-2.6
		c1.4-0.2,2-0.3,2-0.9c0-0.6-0.5-1-1.4-1c-1,0-1.5,0.4-1.6,1.2h-1.9c0.1-1.4,1.1-2.7,3.5-2.7c2.5,0,3.5,1.1,3.5,3v4.2
		c0,0.6,0.1,1,0.3,1.1v0.1h-2.1C670.6,411.8,670.5,411.5,670.5,411.1z M670.5,409.1v-1.2c-0.4,0.2-1,0.4-1.5,0.5
		c-1.1,0.3-1.7,0.5-1.7,1.3s0.5,1,1.3,1C669.8,410.7,670.5,409.9,670.5,409.1z"/>
	<path class="st10" d="M673.9,400.6h2.2v2h-2.2V400.6z M673.9,403.8h2.2v8.2h-2.2V403.8z"/>
	<path class="st10" d="M679.6,404.9L679.6,404.9c0.6-0.9,1.4-1.3,2.5-1.3c1.7,0,2.8,1.3,2.8,3.1v5.4h-2.2v-5c0-0.9-0.5-1.5-1.4-1.5
		c-1,0-1.7,0.8-1.7,1.9v4.7h-2.2v-8.2h2.1V404.9z"/>
</g>
<g class="st8">
	<path class="st10" d="M532.4,382.6h2.4l4,11.4h-2.4l-0.8-2.4h-4.1l-0.8,2.4h-2.4L532.4,382.6z M532.1,389.8h3l-1-3.3
		c-0.2-0.6-0.5-1.8-0.5-1.8h0c0,0-0.3,1.2-0.5,1.8L532.1,389.8z"/>
	<path class="st10" d="M542.5,382.6h5.3c2.2,0,3.7,1.3,3.7,3.2c0,1.3-0.6,2.4-2.1,2.8v0c1.1,0.3,1.6,0.9,1.7,2.3
		c0.2,1.6,0.1,2.8,0.5,3v0.1h-2.2c-0.3-0.1-0.3-1.4-0.4-2.6c-0.1-1.2-0.8-2-2.2-2h-1.9v4.6h-2.3V382.6z M544.8,387.6h2.5
		c1.3,0,1.9-0.7,1.9-1.6c0-0.9-0.6-1.6-1.8-1.6h-2.5V387.6z"/>
	<path class="st10" d="M557.6,393.1L557.6,393.1c-0.4,0.6-1,1.1-2.4,1.1c-1.7,0-2.9-0.9-2.9-2.5c0-1.8,1.5-2.4,3.3-2.6
		c1.4-0.2,2-0.3,2-0.9c0-0.6-0.5-1-1.4-1c-1,0-1.5,0.4-1.6,1.2h-1.9c0.1-1.4,1.1-2.7,3.5-2.7c2.5,0,3.5,1.1,3.5,3v4.2
		c0,0.6,0.1,1,0.3,1.1v0.1h-2.1C557.8,393.8,557.7,393.5,557.6,393.1z M557.6,391.1v-1.2c-0.4,0.2-1,0.4-1.5,0.5
		c-1.1,0.3-1.7,0.5-1.7,1.3s0.5,1,1.3,1C557,392.7,557.6,391.9,557.6,391.1z"/>
	<path class="st10" d="M561.1,385.8h2.1v1.1h0c0.4-0.8,1.2-1.3,2.4-1.3c1,0,1.9,0.6,2.3,1.4h0c0.6-0.9,1.4-1.4,2.5-1.4
		c1.7,0,2.7,1.1,2.7,2.9v5.5h-2.2v-5.2c0-0.9-0.5-1.4-1.3-1.4c-0.9,0-1.5,0.7-1.5,1.8v4.8H566v-5.2c0-0.9-0.5-1.4-1.3-1.4
		c-0.9,0-1.5,0.7-1.5,1.8v4.8h-2.2V385.8z"/>
	<path class="st10" d="M574.4,385.8h2.1v1h0c0.5-0.7,1.3-1.2,2.4-1.2c2.2,0,3.6,1.8,3.6,4.3c0,2.7-1.4,4.3-3.6,4.3
		c-1.2,0-1.9-0.5-2.4-1.2h0v3.6h-2.2V385.8z M580.3,390c0-1.6-0.5-2.6-1.9-2.6c-1.4,0-1.9,1.2-1.9,2.6c0,1.5,0.7,2.5,2,2.5
		C579.6,392.4,580.3,391.5,580.3,390z"/>
</g>
<g class="st8">
	<path class="st10" d="M596.6,275.1h2.4l4,11.4h-2.4l-0.8-2.4h-4.1l-0.8,2.4h-2.4L596.6,275.1z M596.2,282.3h3l-1-3.3
		c-0.2-0.6-0.5-1.8-0.5-1.8h0c0,0-0.3,1.2-0.5,1.8L596.2,282.3z"/>
	<path class="st10" d="M606.6,275.1h5.3c2.2,0,3.7,1.3,3.7,3.2c0,1.3-0.6,2.4-2.1,2.8v0c1.1,0.3,1.6,0.9,1.7,2.3
		c0.2,1.6,0.1,2.8,0.5,3v0.1h-2.2c-0.3-0.1-0.3-1.4-0.4-2.6c-0.1-1.2-0.8-2-2.2-2H609v4.6h-2.3V275.1z M609,280.1h2.5
		c1.3,0,1.9-0.7,1.9-1.6c0-0.9-0.6-1.6-1.8-1.6H609V280.1z"/>
	<path class="st10" d="M621.8,285.6L621.8,285.6c-0.4,0.6-1,1.1-2.4,1.1c-1.7,0-2.9-0.9-2.9-2.5c0-1.8,1.5-2.4,3.3-2.6
		c1.4-0.2,2-0.3,2-0.9c0-0.6-0.5-1-1.4-1c-1,0-1.5,0.4-1.6,1.2h-1.9c0.1-1.4,1.1-2.7,3.5-2.7c2.5,0,3.5,1.1,3.5,3v4.2
		c0,0.6,0.1,1,0.3,1.1v0.1H622C621.9,286.3,621.8,286,621.8,285.6z M621.8,283.6v-1.2c-0.4,0.2-1,0.4-1.5,0.5
		c-1.1,0.3-1.7,0.5-1.7,1.3s0.5,1,1.3,1C621.1,285.2,621.8,284.4,621.8,283.6z"/>
	<path class="st10" d="M624.7,278.3h1.1v-0.7c0-2,1.6-2.7,3.6-2.5v1.7c-1,0-1.5,0.1-1.5,0.9v0.6h1.5v1.5H628v6.7h-2.2v-6.7h-1.1
		V278.3z"/>
	<path class="st10" d="M629.9,278.3h1.1v-2.6h2.1v2.6h1.4v1.4h-1.4v4.4c0,0.6,0.3,0.8,0.8,0.8c0.3,0,0.6,0,0.6,0v1.6
		c0,0-0.5,0-1.4,0c-1.1,0-2.2-0.4-2.2-2v-4.8h-1.1V278.3z"/>
	<path class="st10" d="M635.3,282.4c0-2.4,1.6-4.3,4-4.3c2.6,0,4,2,4,4.9h-6c0.2,1.3,0.9,2,2.1,2c0.8,0,1.3-0.4,1.6-1h2.1
		c-0.3,1.5-1.6,2.7-3.7,2.7C636.8,286.7,635.3,284.8,635.3,282.4z M637.4,281.5h3.6c-0.1-1-0.8-1.8-1.7-1.8
		C638.2,279.7,637.6,280.4,637.4,281.5z"/>
	<path class="st10" d="M646.5,279.6L646.5,279.6c0.5-0.9,1.1-1.4,2.1-1.4c0.2,0,0.4,0,0.5,0.1v1.9h0c-1.4-0.1-2.4,0.6-2.4,2.3v4
		h-2.2v-8.2h2.1V279.6z"/>
	<path class="st10" d="M649.5,283.8h2c0.1,0.9,0.8,1.4,1.8,1.4c1,0,1.5-0.4,1.5-0.9c0-0.8-1-0.9-2.2-1.1c-1.5-0.3-2.9-0.7-2.9-2.5
		c0-1.8,1.5-2.6,3.3-2.6c2.2,0,3.4,1.1,3.5,2.7h-2c-0.1-0.9-0.7-1.2-1.6-1.2c-0.8,0-1.4,0.3-1.4,0.9c0,0.7,1.1,0.8,2.3,1
		c1.4,0.3,2.9,0.7,2.9,2.6c0,1.6-1.4,2.6-3.5,2.6C650.9,286.7,649.6,285.6,649.5,283.8z"/>
</g>
<g class="st8">
	<path class="st10" d="M513.7,181.8h2.4l4,11.4h-2.4l-0.8-2.4h-4.1l-0.8,2.4h-2.4L513.7,181.8z M513.3,189h3l-1-3.3
		c-0.2-0.6-0.5-1.8-0.5-1.8h0c0,0-0.3,1.2-0.5,1.8L513.3,189z"/>
	<path class="st10" d="M523.7,181.8h2.3v4.5h4.5v-4.5h2.3v11.4h-2.3v-5h-4.5v5h-2.3V181.8z"/>
	<path class="st10" d="M534.1,189.1c0-2.4,1.6-4.3,4-4.3c2.6,0,4,2,4,4.9h-6c0.2,1.3,0.9,2,2.1,2c0.8,0,1.3-0.4,1.6-1h2.1
		c-0.3,1.5-1.6,2.7-3.7,2.7C535.6,193.5,534.1,191.6,534.1,189.1z M536.2,188.3h3.6c-0.1-1-0.8-1.8-1.7-1.8
		C537,186.5,536.4,187.2,536.2,188.3z"/>
	<path class="st10" d="M548.1,192.3L548.1,192.3c-0.4,0.6-1,1.1-2.4,1.1c-1.7,0-2.9-0.9-2.9-2.5c0-1.8,1.5-2.4,3.3-2.6
		c1.4-0.2,2-0.3,2-0.9c0-0.6-0.5-1-1.4-1c-1,0-1.5,0.4-1.6,1.2h-1.9c0.1-1.4,1.1-2.7,3.5-2.7c2.5,0,3.5,1.1,3.5,3v4.2
		c0,0.6,0.1,1,0.3,1.1v0.1h-2.1C548.2,193.1,548.1,192.7,548.1,192.3z M548.1,190.4v-1.2c-0.4,0.2-1,0.4-1.5,0.5
		c-1.1,0.3-1.7,0.5-1.7,1.3s0.5,1,1.3,1C547.4,191.9,548.1,191.2,548.1,190.4z"/>
	<path class="st10" d="M550.8,185h2.2l1.3,4.3c0.2,0.8,0.4,1.3,0.4,1.3h0c0,0,0.1-0.5,0.4-1.3l1.3-4.3h2.2l-2.9,8.2h-2.1L550.8,185z
		"/>
	<path class="st10" d="M558.6,189.1c0-2.4,1.6-4.3,4-4.3c2.6,0,4,2,4,4.9h-6c0.2,1.3,0.9,2,2.1,2c0.8,0,1.3-0.4,1.6-1h2.1
		c-0.3,1.5-1.6,2.7-3.7,2.7C560.2,193.5,558.6,191.6,558.6,189.1z M560.8,188.3h3.6c-0.1-1-0.8-1.8-1.7-1.8
		C561.6,186.5,561,187.2,560.8,188.3z"/>
	<path class="st10" d="M569.9,186.2L569.9,186.2c0.6-0.9,1.4-1.3,2.5-1.3c1.7,0,2.8,1.3,2.8,3.1v5.4H573v-5c0-0.9-0.5-1.5-1.4-1.5
		c-1,0-1.7,0.8-1.7,1.9v4.7h-2.2V185h2.1V186.2z"/>
</g>
<g class="st8">
	<path class="st10" d="M630.1,86.1h2.4l4,11.4h-2.4l-0.8-2.4h-4.1l-0.8,2.4h-2.4L630.1,86.1z M629.7,93.3h3l-1-3.3
		c-0.2-0.6-0.5-1.8-0.5-1.8h0c0,0-0.3,1.2-0.5,1.8L629.7,93.3z"/>
	<path class="st10" d="M639.7,94h2.3c0.2,1.4,0.9,1.9,2.6,1.9c1.2,0,2.2-0.4,2.2-1.5c0-1.1-1.1-1.3-2.8-1.7c-2-0.5-3.9-1-3.9-3.4
		c0-2.3,1.8-3.4,4.4-3.4c2.6,0,4.2,1.3,4.4,3.6h-2.2c-0.1-1.2-1-1.7-2.2-1.7c-1.2,0-2.1,0.5-2.1,1.3c0,0.9,0.8,1.2,2.5,1.6
		c2.4,0.5,4.3,1.1,4.3,3.5c0,2.3-1.9,3.6-4.5,3.6C641.5,97.8,639.7,96.4,639.7,94z"/>
	<path class="st10" d="M649.9,93.4c0-2.4,1.6-4.3,4.1-4.3c2.1,0,3.4,1.2,3.7,3h-2.1c-0.1-0.7-0.7-1.3-1.5-1.3c-1.3,0-2,1-2,2.6
		c0,1.6,0.6,2.6,2,2.6c0.9,0,1.5-0.5,1.6-1.4h2.1c-0.1,1.7-1.5,3.1-3.7,3.1C651.5,97.7,649.9,95.9,649.9,93.4z"/>
	<path class="st10" d="M660.8,90.6L660.8,90.6c0.5-0.9,1.1-1.4,2.1-1.4c0.2,0,0.4,0,0.5,0.1v1.9h0c-1.4-0.1-2.4,0.6-2.4,2.3v4h-2.2
		v-8.2h2.1V90.6z"/>
	<path class="st10" d="M663.7,93.4c0-2.4,1.7-4.3,4.1-4.3c2.6,0,4,2,4,4.9h-6c0.2,1.3,0.9,2,2.1,2c0.8,0,1.3-0.4,1.6-1h2.1
		c-0.3,1.5-1.6,2.7-3.7,2.7C665.2,97.7,663.7,95.8,663.7,93.4z M665.9,92.5h3.7c-0.1-1-0.8-1.8-1.7-1.8
		C666.6,90.7,666.1,91.4,665.9,92.5z"/>
	<path class="st10" d="M672.4,93.4c0-2.4,1.7-4.3,4.1-4.3c2.6,0,4,2,4,4.9h-6c0.2,1.3,0.9,2,2.1,2c0.8,0,1.3-0.4,1.6-1h2.1
		c-0.3,1.5-1.6,2.7-3.7,2.7C673.9,97.7,672.4,95.8,672.4,93.4z M674.6,92.5h3.7c-0.1-1-0.8-1.8-1.7-1.8
		C675.3,90.7,674.8,91.4,674.6,92.5z"/>
	<path class="st10" d="M683.6,90.4L683.6,90.4c0.6-0.9,1.4-1.3,2.5-1.3c1.7,0,2.8,1.3,2.8,3.1v5.4h-2.2v-5c0-0.9-0.5-1.5-1.4-1.5
		c-1,0-1.7,0.8-1.7,1.9v4.7h-2.2v-8.2h2.1V90.4z"/>
	<path class="st10" d="M689.8,94.8h2c0.1,0.9,0.8,1.4,1.8,1.4c1,0,1.5-0.4,1.5-0.9c0-0.8-1-0.9-2.2-1.1c-1.5-0.3-2.9-0.7-2.9-2.5
		c0-1.8,1.5-2.6,3.3-2.6c2.2,0,3.4,1.1,3.5,2.7h-2c-0.1-0.9-0.7-1.2-1.6-1.2c-0.8,0-1.4,0.3-1.4,0.9c0,0.7,1.1,0.8,2.3,1
		c1.4,0.3,2.9,0.7,2.9,2.6c0,1.6-1.4,2.6-3.5,2.6C691.2,97.7,689.9,96.6,689.8,94.8z"/>
</g>
<g class="st8">
	<path class="st11" d="M759.1,192.6h2.4l4,11.4h-2.4l-0.8-2.4h-4.1l-0.8,2.4h-2.4L759.1,192.6z M758.7,199.8h3l-1-3.3
		c-0.2-0.6-0.5-1.8-0.5-1.8h0c0,0-0.3,1.2-0.5,1.8L758.7,199.8z"/>
	<path class="st11" d="M768.6,200.5h2.3c0.2,1.4,0.9,1.9,2.6,1.9c1.2,0,2.2-0.4,2.2-1.5c0-1.1-1.1-1.3-2.8-1.7c-2-0.5-3.9-1-3.9-3.4
		c0-2.3,1.8-3.4,4.4-3.4c2.6,0,4.2,1.3,4.4,3.6h-2.2c-0.1-1.2-1-1.7-2.2-1.7c-1.2,0-2.1,0.5-2.1,1.3c0,0.9,0.8,1.2,2.5,1.6
		c2.4,0.5,4.3,1.1,4.3,3.5c0,2.3-1.9,3.6-4.5,3.6C770.5,204.3,768.7,202.9,768.6,200.5z"/>
	<path class="st11" d="M779.3,192.6h2.2v2h-2.2V192.6z M779.3,195.8h2.2v8.2h-2.2V195.8z"/>
	<path class="st11" d="M782.4,195.8h1.1v-2.6h2.1v2.6h1.4v1.4h-1.4v4.4c0,0.6,0.3,0.8,0.8,0.8c0.3,0,0.6,0,0.6,0v1.6
		c0,0-0.5,0-1.4,0c-1.1,0-2.2-0.4-2.2-2v-4.8h-1.1V195.8z"/>
	<path class="st11" d="M787.7,199.9c0-2.4,1.6-4.3,4-4.3c2.6,0,4,2,4,4.9h-6c0.2,1.3,0.9,2,2.1,2c0.8,0,1.3-0.4,1.6-1h2.1
		c-0.3,1.5-1.6,2.7-3.7,2.7C789.2,204.2,787.7,202.3,787.7,199.9z M789.8,199h3.6c-0.1-1-0.8-1.8-1.7-1.8
		C790.6,197.2,790,197.9,789.8,199z"/>
</g>
<g class="st8">
	<path class="st11" d="M116,228.1h5.1c1.2,0,2.2,0.3,2.8,0.8c0.6,0.6,0.9,1.2,0.9,2.1c0,1.2-0.7,1.9-1.8,2.3v0
		c1.3,0.4,2.1,1.4,2.1,2.8c0,1.1-0.3,1.8-1,2.4c-0.7,0.6-1.7,0.9-2.9,0.9H116V228.1z M120.8,232.7c1,0,1.7-0.5,1.7-1.4
		c0-0.8-0.6-1.3-1.6-1.3h-2.6v2.7H120.8z M118.3,237.6h2.7c1.1,0,1.8-0.6,1.8-1.6c0-1.1-0.8-1.6-1.9-1.6h-2.6V237.6z"/>
	<path class="st11" d="M128.6,236h2.3c0.2,1.4,0.9,1.9,2.6,1.9c1.2,0,2.2-0.4,2.2-1.5c0-1.1-1.1-1.3-2.8-1.7c-2-0.5-3.9-1-3.9-3.4
		c0-2.3,1.8-3.4,4.4-3.4c2.6,0,4.2,1.3,4.4,3.6h-2.2c-0.1-1.2-1-1.7-2.2-1.7c-1.2,0-2.1,0.5-2.1,1.3c0,0.9,0.8,1.2,2.5,1.6
		c2.4,0.5,4.3,1.1,4.3,3.5c0,2.3-1.9,3.6-4.5,3.6C130.5,239.8,128.7,238.4,128.6,236z"/>
	<path class="st11" d="M139.2,228.1h2.2v2h-2.2V228.1z M139.2,231.3h2.2v8.2h-2.2V231.3z"/>
	<path class="st11" d="M142.3,231.3h1.1v-2.6h2.1v2.6h1.4v1.4h-1.4v4.4c0,0.6,0.3,0.8,0.8,0.8c0.3,0,0.6,0,0.6,0v1.6
		c0,0-0.5,0-1.4,0c-1.1,0-2.2-0.4-2.2-2v-4.8h-1.1V231.3z"/>
	<path class="st11" d="M147.6,235.4c0-2.4,1.6-4.3,4-4.3c2.6,0,4,2,4,4.9h-6c0.2,1.3,0.9,2,2.1,2c0.8,0,1.3-0.4,1.6-1h2.1
		c-0.3,1.5-1.6,2.7-3.7,2.7C149.2,239.7,147.6,237.8,147.6,235.4z M149.8,234.5h3.6c-0.1-1-0.8-1.8-1.7-1.8
		C150.6,232.7,150,233.4,149.8,234.5z"/>
</g>
<g>
	<path class="st2" d="M652.5,373h-3v-1h3V373z M646.5,373h-3v-1h3V373z M640.5,373h-3v-1h3V373z M634.5,373h-3v-1h3V373z M628.5,373
		h-3v-1h3V373z M653,369.5h-1v-3h1V369.5z M653,363.5h-1v-3h1V363.5z M653,357.5h-1v-3h1V357.5z M653,351.5h-1v-2h1V351.5z"/>
</g>
</svg>
